<svg width="24" height="25" viewBox="0 0 24 25" fill="none" xmlns="http://www.w3.org/2000/svg">
<g id="Base/account">
<path id="Vector" d="M18.2308 3.51636H5.76923C5.40213 3.51678 5.0502 3.66279 4.79062 3.92237C4.53105 4.18194 4.38503 4.53388 4.38461 4.90097V20.1317C4.38503 20.4988 4.53105 20.8508 4.79062 21.1103C5.0502 21.3699 5.40213 21.5159 5.76923 21.5164H18.2308C18.5979 21.5159 18.9498 21.3699 19.2094 21.1103C19.4689 20.8508 19.615 20.4988 19.6154 20.1317V4.90097C19.615 4.53388 19.4689 4.18194 19.2094 3.92237C18.9498 3.66279 18.5979 3.51678 18.2308 3.51636ZM9.23077 5.59328H14.7692C14.9528 5.59328 15.1289 5.66622 15.2588 5.79605C15.3886 5.92589 15.4615 6.10198 15.4615 6.28559C15.4615 6.4692 15.3886 6.64529 15.2588 6.77512C15.1289 6.90496 14.9528 6.9779 14.7692 6.9779H9.23077C9.04716 6.9779 8.87106 6.90496 8.74123 6.77512C8.6114 6.64529 8.53846 6.4692 8.53846 6.28559C8.53846 6.10198 8.6114 5.92589 8.74123 5.79605C8.87106 5.66622 9.04716 5.59328 9.23077 5.59328ZM16.5698 18.608C16.423 18.7183 16.2384 18.7657 16.0567 18.7399C15.8749 18.714 15.7108 18.6171 15.6005 18.4703C15.1813 17.9113 14.6376 17.4577 14.0127 17.1453C13.3878 16.8328 12.6987 16.6702 12 16.6702C11.3013 16.6702 10.6122 16.8329 9.98727 17.1454C9.36235 17.4578 8.81875 17.9115 8.39952 18.4704C8.28925 18.6172 8.12517 18.7142 7.94339 18.7401C7.7616 18.7659 7.577 18.7185 7.43019 18.6082C7.28338 18.4979 7.18639 18.3338 7.16056 18.1521C7.13473 17.9703 7.18216 17.7857 7.29244 17.6389C7.90601 16.8167 8.72441 16.1697 9.66602 15.7625C9.15053 15.2918 8.78938 14.6763 8.62995 13.9968C8.47053 13.3172 8.52028 12.6053 8.77269 11.9545C9.02509 11.3037 9.46835 10.7444 10.0443 10.3501C10.6202 9.95569 11.302 9.74465 12 9.74465C12.698 9.74464 13.3797 9.95567 13.9557 10.35C14.5316 10.7444 14.9749 11.3037 15.2273 11.9545C15.4797 12.6052 15.5295 13.3171 15.3701 13.9967C15.2106 14.6763 14.8495 15.2918 14.334 15.7625C15.2756 16.1697 16.0939 16.8166 16.7075 17.6387C16.8178 17.7855 16.8652 17.9701 16.8394 18.1519C16.8136 18.3337 16.7166 18.4977 16.5698 18.608ZM14.0769 13.2087C14.0769 13.6194 13.9551 14.021 13.7269 14.3625C13.4987 14.7041 13.1743 14.9703 12.7948 15.1275C12.4153 15.2847 11.9977 15.3258 11.5948 15.2457C11.1919 15.1655 10.8219 14.9677 10.5314 14.6773C10.2409 14.3868 10.0431 14.0167 9.96298 13.6139C9.88284 13.211 9.92397 12.7934 10.0812 12.4139C10.2384 12.0344 10.5046 11.71 10.8461 11.4818C11.1877 11.2536 11.5892 11.1317 12 11.1317C12.5506 11.1324 13.0785 11.3514 13.4679 11.7408C13.8573 12.1301 14.0763 12.658 14.0769 13.2087Z" fill="currentColor" fill-opacity="0.2"/>
</g>
</svg>
