<svg xmlns="http://www.w3.org/2000/svg" width="16" height="16" viewBox="0 0 16 16" fill="none">
  <path d="M5.26589 2.42331C5.17721 1.36396 4.89432 0.826453 3.84629 0.00182369C3.84555 0.00123601 3.84597 3.69351e-06 3.84692 5.58835e-06C6.12649 0.0045506 7.2029 0.515519 8.82062 2.1815C8.82082 2.1817 8.8211 2.18181 8.82138 2.18181C12.1124 2.09118 13.6783 2.47492 15.6933 4.36307C15.6936 4.36339 15.6937 4.36394 15.6934 4.36434C15.0089 5.474 14.3903 5.84763 13.0885 6.30247C13.0878 6.30272 13.0871 6.30207 13.0872 6.30132C13.2928 5.03063 12.2581 4.8257 9.53997 4.84842C9.5388 4.84843 9.53861 4.85015 9.53975 4.85043C11.9211 5.44262 12.5952 5.8551 12.1391 6.78748C12.139 6.78773 12.1388 6.78793 12.1385 6.78801C10.2669 7.36206 9.23676 7.68388 8.34976 8.24065C8.34892 8.24118 8.34932 8.24248 8.35031 8.2425C8.83673 8.25301 9.10235 8.22743 9.53082 8.00059C9.53138 8.00029 9.5321 8.0006 9.53227 8.00122C9.83734 9.08185 9.69886 9.45517 9.53223 10.1805C9.53208 10.1811 9.53133 10.1815 9.53074 10.1811L7.39963 8.97008C7.39923 8.96986 7.39871 8.96994 7.39839 8.97026C5.5039 10.9087 6.68736 12.8471 9.76546 14.0592C9.76641 14.0596 9.76729 14.0585 9.76667 14.0577L8.82135 12.849C8.8211 12.8487 8.82108 12.8482 8.82129 12.8479C9.84453 11.113 10.6231 10.5298 12.3725 10.1825C12.3735 10.1823 12.3741 10.1836 12.3734 10.1842C10.0879 12.3736 10.143 13.6557 11.6634 15.9977C11.6639 15.9985 11.6632 15.9995 11.6623 15.9992C10.2216 15.5713 9.40041 15.3437 8.82117 14.0611C8.82103 14.0608 8.82072 14.0606 8.82038 14.0605L6.92555 13.8183C6.92518 13.8182 6.92481 13.8184 6.9246 13.8187C6.76665 14.0456 6.73408 14.2214 6.68827 14.5433C6.68814 14.5441 6.68706 14.5444 6.68649 14.5438C6.01383 13.7651 5.7251 13.2974 5.50339 12.3654C5.50321 12.3647 5.50224 12.3644 5.50169 12.3649L5.02948 12.848C5.02917 12.8483 5.02869 12.8483 5.0283 12.8481C2.18522 11.3938 1.81681 9.3675 3.60644 6.30396C3.60672 6.30346 3.60655 6.30281 3.60604 6.30255L3.1335 6.06087C3.13318 6.06071 3.13279 6.06073 3.13249 6.06092C2.4357 6.51351 2.08052 6.98324 1.47588 7.99684C1.47536 7.99771 1.474 7.99751 1.474 7.99649C1.47587 7.51005 1.86529 6.43194 2.42166 5.33397C2.42186 5.33359 2.42179 5.33313 2.42149 5.33282L1.00166 3.88049C1.00104 3.87985 1.00152 3.87879 1.00241 3.87879C3.33221 3.87698 4.56189 4.14406 6.6876 4.84837L6.68829 4.84835C8.0382 4.30827 9.07069 4.11529 11.1816 3.87983C11.1827 3.8797 11.1828 3.87794 11.1816 3.87782C9.33411 3.68604 8.29672 3.74519 6.45122 4.12116L6.4507 4.12112L4.32063 3.39485C4.31974 3.39454 4.31972 3.39329 4.3206 3.39296L6.91974 2.42618C6.92079 2.42579 6.92051 2.42424 6.91939 2.42424H5.26688C5.26636 2.42424 5.26593 2.42383 5.26589 2.42331Z" fill="currentColor"/>
</svg>