<svg viewBox="0 0 38 38" fill="none" xmlns="http://www.w3.org/2000/svg">
<path d="M32.5 18.5C32.5 25.6627 26.4731 31.5 19 31.5C11.5269 31.5 5.5 25.6627 5.5 18.5C5.5 11.3373 11.5269 5.5 19 5.5C26.4731 5.5 32.5 11.3373 32.5 18.5Z" stroke="currentColor"/>
<path d="M27.4093 16.8635C27.4093 20.8632 24.0416 24.1363 19.8487 24.1363C15.6558 24.1363 12.2881 20.8632 12.2881 16.8635C12.2881 12.8639 15.6558 9.59082 19.8487 9.59082C24.0416 9.59082 27.4093 12.8639 27.4093 16.8635Z" stroke="currentColor"/>
<path d="M19.8498 20.1903C19.3621 20.1903 18.9312 20.1038 18.5572 19.931C18.1855 19.7558 17.8955 19.5155 17.6871 19.2101C17.4788 18.9024 17.3758 18.552 17.3782 18.159C17.3758 17.8512 17.4362 17.5671 17.5593 17.3067C17.6824 17.0439 17.8505 16.825 18.0636 16.6498C18.279 16.4722 18.5193 16.3598 18.7844 16.3124V16.2698C18.4364 16.1798 18.1594 15.9845 17.9535 15.6839C17.7475 15.3808 17.6457 15.0364 17.6481 14.6505C17.6457 14.2812 17.7392 13.9509 17.9286 13.6597C18.118 13.3685 18.3784 13.1389 18.7099 12.9708C19.0437 12.8027 19.4237 12.7187 19.8498 12.7187C20.2712 12.7187 20.6476 12.8027 20.979 12.9708C21.3105 13.1389 21.5709 13.3685 21.7603 13.6597C21.9521 13.9509 22.0491 14.2812 22.0515 14.6505C22.0491 15.0364 21.9438 15.3808 21.7354 15.6839C21.5295 15.9845 21.256 16.1798 20.9151 16.2698V16.3124C21.1779 16.3598 21.4147 16.4722 21.6254 16.6498C21.8361 16.825 22.0041 17.0439 22.1296 17.3067C22.2551 17.5671 22.319 17.8512 22.3214 18.159C22.319 18.552 22.2125 18.9024 22.0018 19.2101C21.7934 19.5155 21.5034 19.7558 21.1317 19.931C20.7624 20.1038 20.3351 20.1903 19.8498 20.1903ZM19.8498 19.409C20.1789 19.409 20.463 19.3557 20.7021 19.2492C20.9412 19.1427 21.1258 18.9923 21.256 18.7982C21.3862 18.6041 21.4525 18.3768 21.4549 18.1164C21.4525 17.8418 21.3815 17.5991 21.2418 17.3884C21.1022 17.1777 20.9116 17.012 20.6701 16.8912C20.431 16.7705 20.1576 16.7101 19.8498 16.7101C19.5397 16.7101 19.2627 16.7705 19.0188 16.8912C18.7773 17.012 18.5868 17.1777 18.4471 17.3884C18.3098 17.5991 18.2423 17.8418 18.2447 18.1164C18.2423 18.3768 18.305 18.6041 18.4329 18.7982C18.5631 18.9923 18.7489 19.1427 18.9904 19.2492C19.2319 19.3557 19.5183 19.409 19.8498 19.409ZM19.8498 15.9573C20.1102 15.9573 20.341 15.9052 20.5423 15.801C20.7459 15.6969 20.9057 15.5513 21.0217 15.3643C21.1377 15.1772 21.1969 14.9582 21.1992 14.7073C21.1969 14.4611 21.1388 14.2468 21.0252 14.0645C20.9116 13.8799 20.7541 13.7378 20.5529 13.6384C20.3517 13.5366 20.1173 13.4857 19.8498 13.4857C19.5775 13.4857 19.3396 13.5366 19.136 13.6384C18.9324 13.7378 18.775 13.8799 18.6637 14.0645C18.5524 14.2468 18.498 14.4611 18.5004 14.7073C18.498 14.9582 18.5536 15.1772 18.6673 15.3643C18.7833 15.5513 18.9431 15.6969 19.1467 15.801C19.3503 15.9052 19.5846 15.9573 19.8498 15.9573Z" fill="currentColor"/>
</svg>
