<svg xmlns="http://www.w3.org/2000/svg" width="16" height="16" viewBox="0 0 16 16" fill="none">
<g clip-path="url(#clip0_1567_505)">
<path fill-rule="evenodd" clip-rule="evenodd" d="M8 16C12.4182 16 16 12.4182 16 8C16 3.58172 12.4182 0 8 0C3.58172 0 0 3.58172 0 8C0 12.4182 3.58172 16 8 16ZM12.3374 6.74682C12.3374 9.08904 10.4386 10.9878 8.0964 10.9878C5.75422 10.9878 3.85547 9.08904 3.85547 6.74682C3.85547 4.4046 5.75422 2.50586 8.0964 2.50586C10.4386 2.50586 12.3374 4.4046 12.3374 6.74682ZM8.66752 9.97752C8.25352 10.058 7.87225 10.0623 7.52357 9.99064C7.17634 9.9168 6.88852 9.78032 6.66011 9.58104C6.4317 9.38184 6.28859 9.13352 6.23077 8.83608C6.18618 8.60672 6.19722 8.386 6.26389 8.17408C6.33199 7.96001 6.44418 7.77176 6.60043 7.60935C6.75634 7.44515 6.94281 7.32337 7.15983 7.24398L7.15252 7.20635C6.84714 7.20434 6.58113 7.10821 6.35446 6.91795C6.12744 6.7259 5.98468 6.47936 5.92616 6.17831C5.87078 5.89339 5.90482 5.62363 6.02827 5.36904C6.15138 5.11266 6.34572 4.89263 6.61129 4.70898C6.8783 4.52318 7.19726 4.39423 7.5682 4.32213C7.93913 4.25003 8.28232 4.25027 8.59768 4.32286C8.9148 4.39511 9.17848 4.52703 9.38872 4.71863C9.59856 4.90844 9.73184 5.14474 9.78872 5.42751C9.84576 5.7307 9.804 6.01312 9.66328 6.27478C9.52264 6.53645 9.31376 6.72489 9.03672 6.8401L9.04408 6.87773C9.27144 6.87073 9.48728 6.91431 9.69152 7.0085C9.89728 7.10055 10.0718 7.23306 10.2151 7.40605C10.3599 7.57688 10.4555 7.77682 10.5018 8.00584C10.5579 8.30368 10.5174 8.58768 10.3802 8.858C10.243 9.12824 10.0264 9.3628 9.73032 9.56168C9.43568 9.75848 9.08144 9.89704 8.66752 9.97752ZM8.50136 9.12272C8.68592 9.08688 8.84072 9.0224 8.96584 8.92928C9.09056 8.83432 9.18 8.72024 9.23408 8.58704C9.28952 8.4516 9.30216 8.306 9.27184 8.15008C9.24088 7.9906 9.1732 7.85777 9.06888 7.75159C8.96416 7.64362 8.83608 7.5681 8.68448 7.52504C8.53264 7.48018 8.36704 7.47517 8.18784 7.51C8.01048 7.54448 7.85883 7.61115 7.73299 7.71C7.60681 7.80705 7.51542 7.92524 7.45881 8.06456C7.40365 8.20176 7.39157 8.35008 7.42257 8.50952C7.45287 8.66544 7.51822 8.79592 7.61861 8.90104C7.71866 9.00432 7.84518 9.0764 7.99818 9.11736C8.15088 9.15648 8.31856 9.15824 8.50136 9.12272ZM8.02328 6.6633C8.17736 6.63335 8.3084 6.57534 8.41624 6.48929C8.52408 6.40323 8.60128 6.29804 8.64776 6.1737C8.69432 6.04937 8.70344 5.91462 8.6752 5.76947C8.64736 5.62612 8.58896 5.5073 8.49992 5.41302C8.41056 5.31695 8.30088 5.24994 8.17072 5.21201C8.04032 5.17228 7.89622 5.16774 7.73853 5.19839C7.58262 5.2287 7.45074 5.28687 7.34287 5.37293C7.23466 5.45719 7.15712 5.5606 7.11028 5.68314C7.06487 5.80354 7.0561 5.93542 7.08397 6.07878C7.11218 6.22393 7.17114 6.34544 7.26082 6.4433C7.35051 6.54117 7.46149 6.60978 7.59374 6.64917C7.72599 6.68855 7.86917 6.69326 8.02328 6.6633Z" fill="currentColor"/>
</g>
<defs>
<clipPath id="clip0_1567_505">
<rect width="16" height="16" fill="white"/>
</clipPath>
</defs>
</svg>