<svg xmlns="http://www.w3.org/2000/svg" width="16" height="16" viewBox="0 0 16 16" fill="none">
  <g clip-path="url(#clip0_1567_305)">
    <path d="M16 8.00087C16 12.4186 12.4184 16 8 16C3.58158 16 0 12.4186 0 8.00087C0 7.26914 0.0981093 6.56063 0.282064 5.88755C0.183955 6.36783 0.132564 6.86843 0.132564 7.38528C0.132564 8.15825 0.247609 8.91322 0.461348 9.62985C0.81933 10.0062 1.95752 10.9708 2.56311 11.4731C2.5088 12.339 2.81714 13.087 3.08986 13.5324C4.10483 14.3397 5.32827 14.8873 6.67319 15.0609C7.18826 14.9041 7.8213 14.3205 8.13198 13.9779C9.26316 13.9779 10.7547 13.7142 11.3585 13.5824L11.2645 14.1974C12.8523 13.3373 14.0939 11.936 14.7316 10.246L13.038 11.2083L12.1539 9.14261L13.4801 5.88988L15.1088 6.46307C14.7952 4.5292 13.7271 2.84273 12.2099 1.70506C12.2572 2.39962 12.2806 3.09767 12.287 3.56052C11.4385 3.2086 9.8413 3.41418 9.14928 3.56052C8.51274 2.78698 7.55792 1.74397 7.16023 1.31886C7.76991 0.857174 8.2406 0.529636 8.71888 0.256107C8.35448 0.203259 7.98131 0.175965 7.60172 0.175965C6.58092 0.175965 5.61442 0.358317 4.73728 0.693405C5.73356 0.247976 6.83787 0 7.99942 0C12.4173 0 15.9994 3.58143 15.9994 7.99913L16 8.00087ZM2.38733 5.58383C1.86817 5.72843 0.930287 6.06236 0.273305 6.49269C0.563545 4.69413 1.49558 3.10871 2.82882 1.97626L3.97868 2.72658C3.50741 3.19524 2.52924 4.42351 2.38733 5.58383ZM7.77925 6.55018L4.50836 7.29759L4.19885 10.814L7.46974 12.2641L9.72392 9.58281L7.77925 6.55018Z" fill="currentColor"/>
  </g>
  <defs>
    <clipPath id="clip0_1567_305">
      <rect width="16" height="16" fill="white"/>
    </clipPath>
  </defs>
</svg>