<svg viewBox="0 0 38 38" fill="none" xmlns="http://www.w3.org/2000/svg">
<path d="M19.5887 9.78299L19.3255 9.92452V10.2234V13.3954V13.6497L19.5311 13.7995L24.2225 17.2169L24.4662 17.3944L24.7369 17.2617L27.2866 16.0121L27.5039 15.9056L27.5552 15.669L28.3514 11.9932L28.4019 11.76L28.2524 11.574C26.9701 9.97966 25.2843 8.72626 23.3522 7.96124L23.1361 7.87567L22.9313 7.98575L19.5887 9.78299ZM15.0969 7.97635L14.8927 7.86616L14.6768 7.95096C12.7416 8.71077 11.0522 9.95738 9.76623 11.5487L9.61603 11.7346L9.66632 11.9682L10.4626 15.6667L10.5137 15.9042L10.732 16.0108L13.2946 17.2621L13.5652 17.3942L13.8085 17.2168L18.4967 13.7994L18.7021 13.6496V13.3954V10.2201V9.92178L18.4396 9.7801L15.0969 7.97635ZM9.2117 25.7085L9.35085 25.9109L9.59611 25.9245L13.2069 26.1244L13.4575 26.1382L13.6184 25.9455L15.2158 24.0312L15.3979 23.813L15.3035 23.5448L13.4136 18.1774L13.3456 17.9843L13.1616 17.8943L10.6526 16.6675L10.3177 16.5037L10.0651 16.778L7.31402 19.7664L7.16264 19.9308L7.18421 20.1532C7.38277 22.2017 8.10418 24.0972 9.2117 25.7085ZM22.0252 30.47L22.2523 30.41L22.351 30.1969L23.9289 26.7925L24.063 26.5032L23.8572 26.2596L22.2566 24.3648L22.1068 24.1875H21.8746H16.1319H15.8975L15.7476 24.3676L14.1177 26.3258L13.9419 26.5369L14.026 26.7985L15.0481 29.9803L15.1266 30.2248L15.3711 30.3034C16.5154 30.6713 17.7337 30.875 19 30.875C20.0506 30.875 21.0606 30.7251 22.0252 30.47ZM24.3608 25.8925L24.5507 26.1174L24.8396 26.0604L28.881 25.2625L29.1003 25.2192L29.2143 25.0269C30.0767 23.5714 30.6458 21.9234 30.8174 20.1549L30.8389 19.9332L30.6885 19.769L27.9536 16.7822L27.7009 16.5062L27.3649 16.6709L24.8673 17.8945L24.6847 17.9839L24.6164 18.1754L22.7005 23.5411L22.6037 23.8121L22.7894 24.0319L24.3608 25.8925ZM6.5 19C6.5 12.1083 12.1083 6.5 19 6.5C25.8917 6.5 31.5 12.1083 31.5 19C31.5 25.8917 25.8917 31.5 19 31.5C12.1083 31.5 6.5 25.8917 6.5 19Z" stroke="currentColor"/>
</svg>
