<svg xmlns="http://www.w3.org/2000/svg" width="16" height="16" viewBox="0 0 16 16" fill="none">
  <path d="M8.76304 0.000571435C9.10703 0.000571435 9.38587 0.27199 9.38587 0.607407C9.38587 0.882254 9.19845 1.11367 8.94246 1.18853C9.46073 2.32277 10.1756 3.35531 11.0847 4.28556C11.1818 4.38499 11.2829 4.48784 11.3875 4.59355C13.0697 6.29863 15.5548 8.81854 14.2817 11.3996C13.5172 12.9498 11.9544 13.5292 10.1487 12.9607C9.783 12.8453 9.27616 12.5401 8.62761 12.043H8.00478C7.35623 12.5396 6.84882 12.8458 6.48312 12.9607C4.67747 13.5287 3.11524 12.9498 2.35013 11.3996C1.07646 8.8174 3.56265 6.29806 5.24488 4.59298C5.34888 4.48727 5.45001 4.38499 5.54715 4.28613C6.45455 3.35817 7.16767 2.32792 7.68708 1.19539C7.41623 1.12853 7.21738 0.890825 7.21738 0.607407C7.21738 0.272562 7.49623 0.000571435 7.84021 0.000571435C7.89736 0.000571435 7.95221 0.00799971 8.00478 0.0217135L8.00421 3.33874L8.00478 3.33817V7.1066C7.64137 7.23117 7.38137 7.56887 7.38137 7.96543C7.38137 8.46827 7.79964 8.87568 8.31563 8.87568C8.83161 8.87568 9.24931 8.46827 9.24931 7.96543C9.24931 7.56944 8.98932 7.23174 8.6259 7.1066L8.62533 3.33817L8.62647 3.33874L8.62533 0.0148567C8.66933 0.00514275 8.71504 0 8.7619 0L8.76304 0.000571435ZM8.28706 16H4.95118C4.87804 16 4.81804 15.94 4.81804 15.8669C4.81804 15.824 4.83804 15.784 4.87289 15.7589C5.39059 15.38 5.91114 14.8932 6.43512 14.2989C7.07738 13.5692 7.60079 12.8173 8.00535 12.0436H8.57047C8.97446 12.8173 9.49787 13.5692 10.1401 14.2989C10.6635 14.8938 11.1841 15.3806 11.7018 15.7589C11.7366 15.784 11.7566 15.824 11.7566 15.8669C11.7566 15.9406 11.6978 16 11.6235 16H8.28763H8.28706Z" fill="currentColor"/>
</svg>