<svg width="19" height="19" viewBox="0 0 19 19" fill="none" xmlns="http://www.w3.org/2000/svg">
<circle cx="9.5" cy="9.5" r="9.5" fill="#5F290F"/>
<path d="M9.754 1C4.91932 1 1 4.91938 1 9.75412C1 14.5888 4.91932 18.5081 9.754 18.5081C14.5888 18.5081 18.5081 14.5888 18.5081 9.75412C18.5081 4.91938 14.5888 1 9.754 1ZM9.6364 16.0471C9.18731 16.298 8.81996 16.4235 8.53507 16.4235C8.28532 16.4235 8.08749 16.3467 7.94141 16.1935C7.79529 16.0402 7.7223 15.8275 7.7223 15.5557C7.7223 14.6846 8.25694 12.5552 9.32631 9.16784C9.3763 9.00749 9.40126 8.86457 9.40126 8.73921C9.40126 8.59993 9.33707 8.53014 9.20873 8.53014C9.06605 8.53014 8.90404 8.58602 8.72232 8.69738C8.54043 8.80897 8.13562 9.16446 7.50851 9.76384L7.03793 9.40834C7.74994 8.64172 8.39974 8.09615 8.98706 7.77213C9.57469 7.44809 10.0747 7.28598 10.4877 7.28598C10.7157 7.28598 10.8901 7.33481 11.0112 7.43226C11.1321 7.52997 11.1928 7.66226 11.1928 7.82959C11.1928 8.03181 10.9617 8.88913 10.4994 10.4016C9.74593 12.8758 9.36915 14.3676 9.36915 14.8763C9.36915 14.9739 9.39395 15.0558 9.44399 15.1219C9.49384 15.1882 9.54724 15.2211 9.60443 15.2211C9.83251 15.2211 10.4171 14.7891 11.3581 13.9248L11.7752 14.322C10.7983 15.2211 10.0855 15.7962 9.6364 16.0471ZM12.1241 5.45548C11.9066 5.68912 11.6624 5.80564 11.3916 5.80564C11.1777 5.80564 10.9994 5.73245 10.8569 5.58607C10.7143 5.43985 10.643 5.24818 10.643 5.01106C10.643 4.69751 10.7462 4.43083 10.9531 4.21124C11.1598 3.99179 11.4058 3.88205 11.6911 3.88205C11.9119 3.88205 12.0938 3.95356 12.2364 4.09626C12.3789 4.23928 12.4502 4.4222 12.4502 4.64513C12.4502 4.95188 12.3415 5.22188 12.1241 5.45548Z" fill="#FAD29D"/>
</svg>
