<svg width="48" height="49" viewBox="0 0 48 49" fill="none" xmlns="http://www.w3.org/2000/svg">
<g filter="url(#filter0_d_525_4333)">
<path d="M4 20.3589C4 10.9308 4 6.21675 6.92893 3.28782C9.85786 0.358887 14.5719 0.358887 24 0.358887V0.358887C33.4281 0.358887 38.1421 0.358887 41.0711 3.28782C44 6.21675 44 10.9308 44 20.3589V20.3589C44 29.787 44 34.501 41.0711 37.43C38.1421 40.3589 33.4281 40.3589 24 40.3589V40.3589C14.5719 40.3589 9.85786 40.3589 6.92893 37.43C4 34.501 4 29.787 4 20.3589V20.3589Z" fill="#3B3466"/>
<path d="M14.9515 28.3589H18.2778V20.1728L13.4736 16.4515V26.8701C13.4736 27.6145 14.0277 28.3589 14.9515 28.3589Z" fill="#4285F4"/>
<path d="M29.7221 28.3589H33.048C33.7869 28.3589 34.5259 27.8006 34.5259 26.8705V16.4515L29.7217 20.1724V28.3589H29.7221Z" fill="#34A853"/>
<path d="M29.7221 13.8473V20.1728L34.5263 16.4519V14.5913C34.5263 13.4755 33.6017 12.3589 32.3082 12.3589C31.7541 12.3589 31.3844 12.545 31.0152 12.7311L29.7217 13.8469L29.7221 13.8473Z" fill="#FBBC04"/>
<path d="M18.2761 20.1728V13.8473L24.0041 18.126L29.7317 13.8473V20.1728L24.0041 24.4515L18.2761 20.1728Z" fill="#EA4335"/>
<path d="M13.4736 14.5913V16.4519L18.2778 20.1728V13.8473L16.9844 12.7311C16.0606 12.1728 14.5823 12.3589 13.8433 13.289C13.6581 13.6612 13.4736 14.0334 13.4736 14.5913Z" fill="#C5221F"/>
</g>
<defs>
<filter id="filter0_d_525_4333" x="0" y="0.358887" width="48" height="48" filterUnits="userSpaceOnUse" color-interpolation-filters="sRGB">
<feFlood flood-opacity="0" result="BackgroundImageFix"/>
<feColorMatrix in="SourceAlpha" type="matrix" values="0 0 0 0 0 0 0 0 0 0 0 0 0 0 0 0 0 0 127 0" result="hardAlpha"/>
<feMorphology radius="2" operator="erode" in="SourceAlpha" result="effect1_dropShadow_525_4333"/>
<feOffset dy="4"/>
<feGaussianBlur stdDeviation="3"/>
<feComposite in2="hardAlpha" operator="out"/>
<feColorMatrix type="matrix" values="0 0 0 0 0 0 0 0 0 0 0 0 0 0 0 0 0 0 0.06 0"/>
<feBlend mode="normal" in2="BackgroundImageFix" result="effect1_dropShadow_525_4333"/>
<feBlend mode="normal" in="SourceGraphic" in2="effect1_dropShadow_525_4333" result="shape"/>
</filter>
</defs>
</svg>
