<svg width="48" height="49" viewBox="0 0 48 49" fill="none" xmlns="http://www.w3.org/2000/svg">
<g filter="url(#filter0_d_509_4285)">
<path d="M4 20.3589C4 10.9308 4 6.21675 6.92893 3.28782C9.85786 0.358887 14.5719 0.358887 24 0.358887V0.358887C33.4281 0.358887 38.1421 0.358887 41.0711 3.28782C44 6.21675 44 10.9308 44 20.3589V20.3589C44 29.787 44 34.501 41.0711 37.43C38.1421 40.3589 33.4281 40.3589 24 40.3589V40.3589C14.5719 40.3589 9.85786 40.3589 6.92893 37.43C4 34.501 4 29.787 4 20.3589V20.3589Z" fill="#3B3466"/>
<path d="M28.3192 21.7065L28.9565 17.5514H24.9699V14.8562C24.9699 13.7192 25.5258 12.6102 27.3114 12.6102H29.125V9.07274C29.125 9.07274 27.4798 8.79199 25.9076 8.79199C22.6228 8.79199 20.4779 10.7825 20.4779 14.3845V17.5514H16.8281V21.7065H20.4779V31.7518C21.2106 31.8669 21.9602 31.9258 22.7239 31.9258C23.4875 31.9258 24.2371 31.8669 24.9699 31.7518V21.7065H28.3192Z" fill="#1877F2"/>
</g>
<defs>
<filter id="filter0_d_509_4285" x="0" y="0.358887" width="48" height="48" filterUnits="userSpaceOnUse" color-interpolation-filters="sRGB">
<feFlood flood-opacity="0" result="BackgroundImageFix"/>
<feColorMatrix in="SourceAlpha" type="matrix" values="0 0 0 0 0 0 0 0 0 0 0 0 0 0 0 0 0 0 127 0" result="hardAlpha"/>
<feMorphology radius="2" operator="erode" in="SourceAlpha" result="effect1_dropShadow_509_4285"/>
<feOffset dy="4"/>
<feGaussianBlur stdDeviation="3"/>
<feComposite in2="hardAlpha" operator="out"/>
<feColorMatrix type="matrix" values="0 0 0 0 0 0 0 0 0 0 0 0 0 0 0 0 0 0 0.06 0"/>
<feBlend mode="normal" in2="BackgroundImageFix" result="effect1_dropShadow_509_4285"/>
<feBlend mode="normal" in="SourceGraphic" in2="effect1_dropShadow_509_4285" result="shape"/>
</filter>
</defs>
</svg>
