<svg width="48" height="49" viewBox="0 0 48 49" fill="none" xmlns="http://www.w3.org/2000/svg">
<g filter="url(#filter0_d_509_4293)">
<path d="M4 20.3589C4 10.9308 4 6.21675 6.92893 3.28782C9.85786 0.358887 14.5719 0.358887 24 0.358887V0.358887C33.4281 0.358887 38.1421 0.358887 41.0711 3.28782C44 6.21675 44 10.9308 44 20.3589V20.3589C44 29.787 44 34.501 41.0711 37.43C38.1421 40.3589 33.4281 40.3589 24 40.3589V40.3589C14.5719 40.3589 9.85786 40.3589 6.92893 37.43C4 34.501 4 29.787 4 20.3589V20.3589Z" fill="#3B3466"/>
<path d="M24.0032 10.5219C27.2096 10.5219 27.586 10.5362 28.8534 10.5934C30.0254 10.6458 30.6591 10.8412 31.0831 11.0079C31.6453 11.2271 32.0455 11.4843 32.4648 11.9036C32.8841 12.3229 33.1461 12.7231 33.3605 13.2853C33.5225 13.7093 33.7226 14.343 33.775 15.5151C33.8322 16.7824 33.8465 17.1588 33.8465 20.3652C33.8465 23.5717 33.8322 23.9481 33.775 25.2154C33.7226 26.3875 33.5273 27.0211 33.3605 27.4452C33.1414 28.0074 32.8841 28.4076 32.4648 28.8269C32.0455 29.2461 31.6453 29.5082 31.0831 29.7226C30.6591 29.8846 30.0254 30.0847 28.8534 30.1371C27.586 30.1942 27.2096 30.2085 24.0032 30.2085C20.7967 30.2085 20.4203 30.1942 19.153 30.1371C17.9809 30.0847 17.3473 29.8893 16.9232 29.7226C16.361 29.5034 15.9608 29.2461 15.5416 28.8269C15.1223 28.4076 14.8602 28.0074 14.6458 27.4452C14.4839 27.0211 14.2837 26.3875 14.2313 25.2154C14.1742 23.9481 14.1599 23.5717 14.1599 20.3652C14.1599 17.1588 14.1742 16.7824 14.2313 15.5151C14.2837 14.343 14.4791 13.7093 14.6458 13.2853C14.865 12.7231 15.1223 12.3229 15.5416 11.9036C15.9608 11.4843 16.361 11.2223 16.9232 11.0079C17.3473 10.8459 17.9809 10.6458 19.153 10.5934C20.4203 10.5315 20.8015 10.5219 24.0032 10.5219ZM24.0032 8.35889C20.7443 8.35889 20.3346 8.37318 19.0529 8.43035C17.7761 8.48753 16.9042 8.6924 16.1419 8.98779C15.351 9.29271 14.684 9.70722 14.0169 10.3742C13.3499 11.0413 12.9402 11.713 12.6305 12.4992C12.3351 13.2615 12.1302 14.1334 12.0731 15.415C12.0159 16.6919 12.0016 17.1016 12.0016 20.3605C12.0016 23.6193 12.0159 24.0291 12.0731 25.3107C12.1302 26.5876 12.3351 27.4595 12.6305 28.2265C12.9354 29.0174 13.3499 29.6845 14.0169 30.3515C14.684 31.0185 15.3557 31.4282 16.1419 31.7379C16.9042 32.0333 17.7761 32.2382 19.0577 32.2954C20.3393 32.3525 20.7443 32.3668 24.0079 32.3668C27.2716 32.3668 27.6766 32.3525 28.9582 32.2954C30.2351 32.2382 31.1069 32.0333 31.874 31.7379C32.6649 31.433 33.3319 31.0185 33.999 30.3515C34.666 29.6845 35.0757 29.0127 35.3854 28.2265C35.6808 27.4642 35.8857 26.5923 35.9428 25.3107C36 24.0291 36.0143 23.6241 36.0143 20.3605C36.0143 17.0968 36 16.6919 35.9428 15.4102C35.8857 14.1334 35.6808 13.2615 35.3854 12.4944C35.0805 11.7035 34.666 11.0365 33.999 10.3695C33.3319 9.70245 32.6602 9.29271 31.874 8.98303C31.1117 8.68763 30.2398 8.48276 28.9582 8.42559C27.6718 8.37318 27.2621 8.35889 24.0032 8.35889Z" fill="url(#paint0_linear_509_4293)"/>
<path d="M24.0032 14.2001C20.6014 14.2001 17.838 16.9587 17.838 20.3652C17.838 23.7718 20.5966 26.5304 24.0032 26.5304C27.4097 26.5304 30.1683 23.7718 30.1683 20.3652C30.1683 16.9587 27.4097 14.2001 24.0032 14.2001ZM24.0032 24.3626C21.7925 24.3626 20.0011 22.5712 20.0011 20.3605C20.0011 18.1498 21.7925 16.3584 24.0032 16.3584C26.2139 16.3584 28.0053 18.1498 28.0053 20.3605C28.0053 22.5712 26.2139 24.3626 24.0032 24.3626Z" fill="url(#paint1_linear_509_4293)"/>
<path d="M30.4114 15.3911C31.206 15.3911 31.8502 14.7469 31.8502 13.9523C31.8502 13.1576 31.206 12.5134 30.4114 12.5134C29.6167 12.5134 28.9725 13.1576 28.9725 13.9523C28.9725 14.7469 29.6167 15.3911 30.4114 15.3911Z" fill="url(#paint2_linear_509_4293)"/>
</g>
<defs>
<filter id="filter0_d_509_4293" x="0" y="0.358887" width="48" height="48" filterUnits="userSpaceOnUse" color-interpolation-filters="sRGB">
<feFlood flood-opacity="0" result="BackgroundImageFix"/>
<feColorMatrix in="SourceAlpha" type="matrix" values="0 0 0 0 0 0 0 0 0 0 0 0 0 0 0 0 0 0 127 0" result="hardAlpha"/>
<feMorphology radius="2" operator="erode" in="SourceAlpha" result="effect1_dropShadow_509_4293"/>
<feOffset dy="4"/>
<feGaussianBlur stdDeviation="3"/>
<feComposite in2="hardAlpha" operator="out"/>
<feColorMatrix type="matrix" values="0 0 0 0 0 0 0 0 0 0 0 0 0 0 0 0 0 0 0.06 0"/>
<feBlend mode="normal" in2="BackgroundImageFix" result="effect1_dropShadow_509_4293"/>
<feBlend mode="normal" in="SourceGraphic" in2="effect1_dropShadow_509_4293" result="shape"/>
</filter>
<linearGradient id="paint0_linear_509_4293" x1="24.0079" y1="8.35889" x2="24.0079" y2="32.3668" gradientUnits="userSpaceOnUse">
<stop stop-color="#7628EC"/>
<stop offset="0.495" stop-color="#D32C83"/>
<stop offset="1" stop-color="#F1AB30"/>
</linearGradient>
<linearGradient id="paint1_linear_509_4293" x1="24.0032" y1="14.2001" x2="24.0032" y2="26.5304" gradientUnits="userSpaceOnUse">
<stop stop-color="#7628EC"/>
<stop offset="0.495" stop-color="#D32C83"/>
<stop offset="1" stop-color="#F1AB30"/>
</linearGradient>
<linearGradient id="paint2_linear_509_4293" x1="30.4114" y1="12.5134" x2="30.4114" y2="15.3911" gradientUnits="userSpaceOnUse">
<stop stop-color="#7628EC"/>
<stop offset="0.495" stop-color="#D32C83"/>
<stop offset="1" stop-color="#F1AB30"/>
</linearGradient>
</defs>
</svg>
