<svg width="48" height="49" viewBox="0 0 48 49" fill="none" xmlns="http://www.w3.org/2000/svg">
<g filter="url(#filter0_d_509_4290)">
<path d="M4 20.3589C4 10.9308 4 6.21675 6.92893 3.28782C9.85786 0.358887 14.5719 0.358887 24 0.358887V0.358887C33.4281 0.358887 38.1421 0.358887 41.0711 3.28782C44 6.21675 44 10.9308 44 20.3589V20.3589C44 29.787 44 34.501 41.0711 37.43C38.1421 40.3589 33.4281 40.3589 24 40.3589V40.3589C14.5719 40.3589 9.85786 40.3589 6.92893 37.43C4 34.501 4 29.787 4 20.3589V20.3589Z" fill="#3B3466"/>
<path d="M28.6894 17.0471C30.2213 18.146 32.098 18.7927 34.1249 18.7927V14.8784C33.7413 14.8785 33.3587 14.8383 32.9834 14.7585V17.8396C30.9567 17.8396 29.0802 17.193 27.5479 16.0941V24.082C27.5479 28.0779 24.3201 31.317 20.3386 31.317C18.853 31.317 17.4722 30.8663 16.3252 30.0933C17.6343 31.4366 19.46 32.27 21.4798 32.27C25.4616 32.27 28.6896 29.0308 28.6896 25.0348V17.0471H28.6894ZM30.0976 13.0981C29.3147 12.2397 28.8006 11.1304 28.6894 9.90409V9.40063H27.6077C27.88 10.9593 28.8087 12.291 30.0976 13.0981ZM18.8435 27.0269C18.4061 26.4514 18.1697 25.7473 18.1708 25.0233C18.1708 23.1957 19.6471 21.7139 21.4686 21.7139C21.8081 21.7138 22.1455 21.766 22.469 21.869V17.8673C22.0909 17.8153 21.7094 17.7932 21.328 17.8013V20.916C21.0042 20.813 20.6667 20.7607 20.3271 20.761C18.5057 20.761 17.0294 22.2427 17.0294 24.0705C17.0294 25.3629 17.7673 26.4818 18.8435 27.0269Z" fill="#FF004F"/>
<path d="M27.548 16.094C29.0803 17.1929 30.9567 17.8395 32.9834 17.8395V14.7585C31.8521 14.5166 30.8506 13.9233 30.0976 13.0981C28.8087 12.2909 27.88 10.9592 27.6077 9.40063H24.7663V25.0346C24.7599 26.8572 23.2861 28.333 21.4685 28.333C20.3974 28.333 19.4459 27.8206 18.8433 27.0269C17.7672 26.4818 17.0292 25.3628 17.0292 24.0706C17.0292 22.2429 18.5056 20.7611 20.327 20.7611C20.676 20.7611 21.0124 20.8156 21.3279 20.9161V17.8014C17.4163 17.8825 14.2705 21.0899 14.2705 25.0347C14.2705 27.0039 15.0539 28.789 16.3253 30.0934C17.4724 30.8663 18.8532 31.3171 20.3387 31.3171C24.3203 31.3171 27.548 28.0778 27.548 24.082V16.094H27.548Z" fill="#F1F1F1"/>
<path d="M32.9835 14.7585V13.9254C31.9633 13.9269 30.9632 13.6402 30.0977 13.098C30.8639 13.9398 31.8728 14.5203 32.9835 14.7585ZM27.6078 9.40063C27.5818 9.25167 27.5619 9.10172 27.548 8.95121V8.44775H23.6248V24.0819C23.6186 25.9042 22.1448 27.38 20.3271 27.38C19.7934 27.38 19.2896 27.2529 18.8433 27.027C19.446 27.8206 20.3975 28.3329 21.4686 28.3329C23.2859 28.3329 24.76 26.8573 24.7664 25.0347V9.40063H27.6078ZM21.3281 17.8013V16.9145C21.0003 16.8695 20.6698 16.8469 20.3389 16.8471C16.357 16.847 13.1292 20.0863 13.1292 24.0819C13.1292 26.5869 14.3977 28.7946 16.3255 30.0932C15.054 28.7889 14.2706 27.0037 14.2706 25.0346C14.2706 21.0899 17.4164 17.8825 21.3281 17.8013Z" fill="#00F2EA"/>
</g>
<defs>
<filter id="filter0_d_509_4290" x="0" y="0.358887" width="48" height="48" filterUnits="userSpaceOnUse" color-interpolation-filters="sRGB">
<feFlood flood-opacity="0" result="BackgroundImageFix"/>
<feColorMatrix in="SourceAlpha" type="matrix" values="0 0 0 0 0 0 0 0 0 0 0 0 0 0 0 0 0 0 127 0" result="hardAlpha"/>
<feMorphology radius="2" operator="erode" in="SourceAlpha" result="effect1_dropShadow_509_4290"/>
<feOffset dy="4"/>
<feGaussianBlur stdDeviation="3"/>
<feComposite in2="hardAlpha" operator="out"/>
<feColorMatrix type="matrix" values="0 0 0 0 0 0 0 0 0 0 0 0 0 0 0 0 0 0 0.06 0"/>
<feBlend mode="normal" in2="BackgroundImageFix" result="effect1_dropShadow_509_4290"/>
<feBlend mode="normal" in="SourceGraphic" in2="effect1_dropShadow_509_4290" result="shape"/>
</filter>
</defs>
</svg>
