<svg width="48" height="49" viewBox="0 0 48 49" fill="none" xmlns="http://www.w3.org/2000/svg">
<g filter="url(#filter0_d_509_4287)">
<path d="M4 20.3589C4 10.9308 4 6.21675 6.92893 3.28782C9.85786 0.358887 14.5719 0.358887 24 0.358887V0.358887C33.4281 0.358887 38.1421 0.358887 41.0711 3.28782C44 6.21675 44 10.9308 44 20.3589V20.3589C44 29.787 44 34.501 41.0711 37.43C38.1421 40.3589 33.4281 40.3589 24 40.3589V40.3589C14.5719 40.3589 9.85786 40.3589 6.92893 37.43C4 34.501 4 29.787 4 20.3589V20.3589Z" fill="#3B3466"/>
<path d="M12.9991 31.3589L14.5555 25.7099C13.5923 24.058 13.0862 22.1787 13.0862 20.2614C13.0917 14.2496 18.0057 9.35889 24.0462 9.35889C26.9794 9.35889 29.7276 10.4963 31.7955 12.5544C33.8634 14.6125 35.0008 17.353 35.0008 20.2668C35.0008 26.2786 30.0813 31.1693 24.0462 31.1693H24.0408C22.2069 31.1693 20.4056 30.709 18.8057 29.8424L12.9991 31.3589Z" fill="#20B038"/>
<path fill-rule="evenodd" clip-rule="evenodd" d="M21.2109 15.5331C20.9987 15.0619 20.7756 15.0511 20.5742 15.0457C20.411 15.0403 20.2205 15.0403 20.0301 15.0403C19.8396 15.0403 19.5348 15.1107 19.2736 15.3923C19.0124 15.674 18.2832 16.3564 18.2832 17.7483C18.2832 19.1348 19.3008 20.478 19.4423 20.6676C19.5838 20.8571 21.4069 23.798 24.2856 24.93C26.6801 25.8724 27.1698 25.6828 27.6868 25.6341C28.2038 25.5853 29.3629 24.9517 29.6024 24.2909C29.8364 23.6301 29.8364 23.0669 29.7656 22.9477C29.6949 22.8286 29.5044 22.7582 29.2214 22.6173C28.9385 22.4765 27.5453 21.7941 27.2841 21.6966C27.0229 21.6045 26.8324 21.5558 26.6474 21.8374C26.457 22.1191 25.9128 22.7527 25.7495 22.9423C25.5862 23.1319 25.4175 23.1535 25.1346 23.0127C24.8516 22.8719 23.9373 22.574 22.8544 21.61C22.0109 20.8625 21.4395 19.9364 21.2763 19.6548C21.113 19.3731 21.2599 19.2215 21.4014 19.0807C21.5266 18.9561 21.6844 18.7503 21.8259 18.5878C21.9674 18.4253 22.0164 18.3062 22.1089 18.1166C22.2014 17.927 22.1578 17.7646 22.0871 17.6237C22.0164 17.4883 21.4613 16.091 21.2109 15.5331Z" fill="#C4FFC9"/>
</g>
<defs>
<filter id="filter0_d_509_4287" x="0" y="0.358887" width="48" height="48" filterUnits="userSpaceOnUse" color-interpolation-filters="sRGB">
<feFlood flood-opacity="0" result="BackgroundImageFix"/>
<feColorMatrix in="SourceAlpha" type="matrix" values="0 0 0 0 0 0 0 0 0 0 0 0 0 0 0 0 0 0 127 0" result="hardAlpha"/>
<feMorphology radius="2" operator="erode" in="SourceAlpha" result="effect1_dropShadow_509_4287"/>
<feOffset dy="4"/>
<feGaussianBlur stdDeviation="3"/>
<feComposite in2="hardAlpha" operator="out"/>
<feColorMatrix type="matrix" values="0 0 0 0 0 0 0 0 0 0 0 0 0 0 0 0 0 0 0.06 0"/>
<feBlend mode="normal" in2="BackgroundImageFix" result="effect1_dropShadow_509_4287"/>
<feBlend mode="normal" in="SourceGraphic" in2="effect1_dropShadow_509_4287" result="shape"/>
</filter>
</defs>
</svg>
