<svg width="19" height="19" viewBox="0 0 19 19" fill="none" xmlns="http://www.w3.org/2000/svg">
<path d="M13.8008 5.05493C13.9245 5.02827 14.0563 5.06336 14.1416 5.14478C14.2264 5.22621 14.2522 5.34121 14.208 5.4436C13.8014 6.38416 13.612 6.92867 13.5938 7.59985C14.3681 7.86799 14.9994 8.27955 15.4717 8.82544C15.9827 9.41606 16.1854 10.023 16.2646 10.4348C16.2831 10.4443 16.3342 10.4641 16.4443 10.4641H17.085C17.6272 10.4642 18.0683 10.8429 18.0684 11.3079V12.9524C18.0683 13.4166 17.6271 13.7942 17.085 13.7942H16.4443C16.2565 13.7943 16.2045 13.8551 16.1152 14.0159C15.6453 14.8553 14.9112 15.5255 13.9912 15.9543C13.9178 15.9885 13.8916 16.0185 13.8877 16.0305C13.8873 16.0338 13.8876 16.0535 13.8877 16.0559C13.8974 16.07 13.9063 16.0854 13.9131 16.1008L14.1152 16.5608C14.2118 16.7772 14.2043 17.0146 14.0928 17.2278C13.9807 17.4417 13.778 17.6059 13.5225 17.6887L12.2578 18.0989C12.1415 18.1366 12.0193 18.1555 11.8955 18.1555C11.4755 18.1554 11.0937 17.9313 10.9434 17.5969C10.922 17.5534 10.7791 17.2588 10.6602 16.9553C10.6465 16.9208 10.6355 16.8984 10.6279 16.885C10.6196 16.8845 10.6091 16.885 10.5957 16.885C10.5162 16.885 10.3963 16.8956 10.2451 16.9094C9.93345 16.9379 9.46255 16.9807 8.76855 16.9807C7.99962 16.9807 7.52131 16.896 7.20508 16.8391C7.10133 16.8206 7.00947 16.8033 6.95215 16.7991C6.94039 16.8176 6.92268 16.8492 6.89941 16.9016C6.76532 17.2083 6.59897 17.5805 6.59375 17.592C6.4446 17.9285 6.06101 18.1555 5.63965 18.1555C5.51582 18.1555 5.39358 18.1359 5.27734 18.0979L4.0127 17.6887C3.75766 17.6058 3.55516 17.4424 3.44336 17.2288C3.33165 17.0154 3.3239 16.7777 3.4209 16.5598C3.42214 16.557 3.42353 16.5538 3.4248 16.551C3.43179 16.5369 3.65059 16.0862 3.77051 15.7698C3.81434 15.6534 3.78739 15.6353 3.6748 15.5608C3.66519 15.5545 3.65623 15.5481 3.64746 15.5422C2.87975 15.0161 1.58244 13.9048 1.50684 12.3606C1.47769 11.7662 1.5355 11.207 1.67773 10.6907C1.51167 10.6436 1.24138 10.552 0.97168 10.3948C0.38084 10.0506 0.0684294 9.56321 0.0683594 8.9856C0.0683594 8.37414 0.453397 7.83727 1.04883 7.61743C1.22316 7.55305 1.42581 7.62135 1.50098 7.77075C1.57614 7.92021 1.49547 8.09397 1.32129 8.15845C0.973138 8.28704 0.756836 8.60404 0.756836 8.9856C0.756904 9.3592 0.953839 9.66591 1.34277 9.89771C1.54327 10.0171 1.74847 10.0885 1.87402 10.1252C1.90534 10.0519 1.9385 9.9796 1.97363 9.90845C2.30985 9.22663 2.81281 8.65912 3.46777 8.22192C4.97285 7.21789 6.70715 6.72974 8.76855 6.72974C9.50703 6.72976 10.233 6.79471 10.9307 6.9231C11.5216 5.95536 12.4631 5.34288 13.8008 5.05493ZM13.585 10.3411C13.1685 10.3412 12.8311 10.6531 12.8311 11.0374C12.8312 11.4219 13.1686 11.7335 13.585 11.7336C14.0002 11.7336 14.3367 11.4221 14.3369 11.0374C14.3369 10.6529 14.0003 10.3411 13.585 10.3411ZM6.51074 0.155518C8.64011 0.155518 10.3662 1.88167 10.3662 4.01099C10.3662 4.60577 10.2317 5.16907 9.99121 5.67212C6.75375 5.31889 4.71482 6.12409 3.73242 6.68384C3.06553 5.99077 2.65527 5.04877 2.65527 4.01099C2.65528 1.88172 4.38144 0.155614 6.51074 0.155518ZM5.43164 2.93091V5.09106H7.58984V2.93091H5.43164Z" fill="url(#paint0_linear_2209_14438)"/>
<defs>
<linearGradient id="paint0_linear_2209_14438" x1="9.06836" y1="0.155518" x2="9.06836" y2="18.1555" gradientUnits="userSpaceOnUse">
<stop stop-color="white"/>
<stop offset="1" stop-color="#E4DCF4"/>
</linearGradient>
</defs>
</svg>
