<svg width="117" height="6" viewBox="0 0 117 6" fill="none" xmlns="http://www.w3.org/2000/svg">
<path fill-rule="evenodd" clip-rule="evenodd" d="M116.045 4.93355L116.46 4.65539C115.73 3.56488 114.791 2.62597 113.7 1.89589L113.422 2.31138L113.144 2.72686C114.126 3.38422 114.972 4.22982 115.629 5.21171L116.045 4.93355ZM8.4846 0.211548H10.5608V0.711548V1.21155H8.4846C7.88225 1.21155 7.29468 1.27058 6.72705 1.38288L6.63001 0.892382L6.53298 0.401888C7.16418 0.277017 7.81675 0.211548 8.4846 0.211548ZM3.2066 2.31138L2.92844 1.89589C1.83793 2.62597 0.899026 3.56488 0.168945 4.65539L0.58443 4.93355L0.999913 5.21171C1.65728 4.22982 2.50287 3.38422 3.48476 2.72686L3.2066 2.31138ZM14.7133 0.711548V0.211548H18.8658V0.711548V1.21155H14.7133V0.711548ZM23.0183 0.711548V0.211548H27.1708V0.711548V1.21155H23.0183V0.711548ZM31.3233 0.711548V0.211548H35.4758V0.711548V1.21155H31.3233V0.711548ZM39.6283 0.711548V0.211548H43.7808V0.711548V1.21155H39.6283V0.711548ZM47.9332 0.711548V0.211548H52.0857V0.711548V1.21155H47.9332V0.711548ZM56.2382 0.711548V0.211548H60.3907V0.711548V1.21155H56.2382V0.711548ZM64.5432 0.711548V0.211548H68.6957V0.711548V1.21155H64.5432V0.711548ZM72.8482 0.711548V0.211548H77.0007V0.711548V1.21155H72.8482V0.711548ZM81.1531 0.711548V0.211548H85.3056V0.711548V1.21155H81.1531V0.711548ZM89.4581 0.711548V0.211548H93.6106V0.711548V1.21155H89.4581V0.711548ZM97.7631 0.711548V0.211548H101.916V0.711548V1.21155H97.7631V0.711548ZM106.068 0.711548V0.211548H108.144C108.812 0.211548 109.465 0.277017 110.096 0.401888L109.999 0.892382L109.902 1.38288C109.334 1.27058 108.747 1.21155 108.144 1.21155H106.068V0.711548Z" fill="white"/>
</svg>
