<svg width="33" height="5" viewBox="0 0 33 5" fill="none" xmlns="http://www.w3.org/2000/svg">
<path fill-rule="evenodd" clip-rule="evenodd" d="M32.9999 4.26869L33.0005 4.26828C32.4302 3.4164 31.6968 2.68296 30.8449 2.11264L30.5667 2.52812L30.2886 2.94361C30.8394 3.31237 31.3336 3.75941 31.7551 4.26869H32.9999ZM1.74742 4.26869C2.16892 3.75941 2.6631 3.31237 3.21392 2.94361L2.93576 2.52812L2.6576 2.11264C1.80572 2.68296 1.07227 3.4164 0.501953 4.26829L0.502564 4.26869H1.74742ZM6.99792 0.796875H9.43625V1.29688V1.79688H6.99792C6.54172 1.79688 6.09694 1.84158 5.66744 1.92655L5.5704 1.43606L5.47337 0.945564C5.96645 0.848018 6.47621 0.796875 6.99792 0.796875ZM14.3129 1.29688V0.796875H19.1896V1.29688V1.79688H14.3129V1.29688ZM24.0662 1.29688V0.796875H26.5046C27.0263 0.796875 27.5361 0.848018 28.0291 0.945564L27.9321 1.43606L27.8351 1.92655C27.4056 1.84158 26.9608 1.79688 26.5046 1.79688H24.0662V1.29688Z" fill="white"/>
</svg>
