<svg width="278" height="86" viewBox="0 0 278 86" fill="none" xmlns="http://www.w3.org/2000/svg">
<g filter="url(#filter0_d_5688_3796)">
<path fill-rule="evenodd" clip-rule="evenodd" d="M12 39.3999C25.6934 36.6203 36 24.5137 36 10C36 8.9875 35.9498 7.98672 35.8519 7H243.148C251.003 7 254.931 7 257.714 8.60538C260.156 10.014 262.024 12.2374 262.99 14.8856C264.092 17.9038 263.415 21.7724 262.061 29.5097L259.903 41.8404C258.338 50.7849 257.555 55.2571 255.298 58.6105C253.307 61.5667 250.526 63.9036 247.271 65.3544C243.579 67 239.038 67 229.958 67H34.4C26.5593 67 22.6389 67 19.6441 65.4741C17.0099 64.1319 14.8681 61.9901 13.5259 59.3559C12 56.3611 12 52.4407 12 44.6V39.3999Z" fill="black" fill-opacity="0.55" shape-rendering="crispEdges"/>
<path d="M12 39.3999L11.9005 38.9099L11.5 38.9912V39.3999H12ZM35.8519 7V6.5H35.2998L35.3543 7.0494L35.8519 7ZM257.714 8.60538L257.963 8.17227L257.963 8.17227L257.714 8.60538ZM262.99 14.8856L263.46 14.7142L263.46 14.7142L262.99 14.8856ZM262.061 29.5097L262.553 29.5959L262.553 29.5959L262.061 29.5097ZM259.903 41.8404L260.395 41.9266L260.395 41.9266L259.903 41.8404ZM255.298 58.6105L254.883 58.3312L254.883 58.3312L255.298 58.6105ZM247.271 65.3544L247.067 64.8977L247.067 64.8977L247.271 65.3544ZM19.6441 65.4741L19.4171 65.9196L19.4171 65.9196L19.6441 65.4741ZM13.5259 59.3559L13.9714 59.1289L13.9714 59.1289L13.5259 59.3559ZM35.5 10C35.5 24.2713 25.3655 36.1766 11.9005 38.9099L12.0995 39.8899C26.0213 37.0639 36.5 24.7562 36.5 10H35.5ZM35.3543 7.0494C35.4507 8.01973 35.5 9.00403 35.5 10H36.5C36.5 8.97098 36.449 7.95371 36.3494 6.9506L35.3543 7.0494ZM35.8519 7.5H243.148V6.5H35.8519V7.5ZM243.148 7.5C247.085 7.5 250.005 7.50044 252.29 7.6988C254.57 7.89676 256.164 8.28858 257.464 9.03849L257.963 8.17227C256.48 7.3168 254.719 6.90593 252.376 6.70255C250.038 6.49956 247.067 6.5 243.148 6.5V7.5ZM257.464 9.03849C259.804 10.3884 261.594 12.5192 262.521 15.057L263.46 14.7142C262.453 11.9556 260.507 9.63957 257.963 8.17227L257.464 9.03849ZM262.521 15.057C263.035 16.4669 263.146 18.1044 262.948 20.3847C262.75 22.6696 262.247 25.5461 261.568 29.4235L262.553 29.5959C263.229 25.736 263.741 22.8095 263.945 20.4712C264.148 18.1284 264.047 16.3225 263.46 14.7142L262.521 15.057ZM261.568 29.4235L259.41 41.7542L260.395 41.9266L262.553 29.5959L261.568 29.4235ZM259.41 41.7542C258.626 46.2338 258.043 49.5663 257.375 52.1992C256.709 54.8259 255.967 56.721 254.883 58.3312L255.712 58.8897C256.886 57.1466 257.664 55.1289 258.344 52.445C259.024 49.7673 259.614 46.3915 260.395 41.9266L259.41 41.7542ZM254.883 58.3312C252.945 61.2097 250.237 63.4851 247.067 64.8977L247.474 65.8111C250.815 64.3222 253.67 61.9237 255.712 58.8897L254.883 58.3312ZM247.067 64.8977C245.294 65.6879 243.3 66.0922 240.597 66.2957C237.889 66.4997 234.506 66.5 229.958 66.5V67.5C234.491 67.5 237.918 67.5003 240.673 67.2929C243.434 67.085 245.555 66.6665 247.474 65.8111L247.067 64.8977ZM229.958 66.5H34.4V67.5H229.958V66.5ZM34.4 66.5C30.4714 66.5 27.555 66.4996 25.2455 66.3109C22.9419 66.1227 21.2863 65.7496 19.8711 65.0286L19.4171 65.9196C20.9968 66.7244 22.7987 67.1143 25.1641 67.3076C27.5237 67.5004 30.4879 67.5 34.4 67.5V66.5ZM19.8711 65.0286C17.3309 63.7343 15.2657 61.6691 13.9714 59.1289L13.0804 59.5829C14.4706 62.3112 16.6888 64.5294 19.4171 65.9196L19.8711 65.0286ZM13.9714 59.1289C13.2504 57.7137 12.8773 56.0581 12.6891 53.7545C12.5004 51.445 12.5 48.5286 12.5 44.6H11.5C11.5 48.5121 11.4996 51.4763 11.6924 53.8359C11.8857 56.2013 12.2756 58.0032 13.0804 59.5829L13.9714 59.1289ZM12.5 44.6V39.3999H11.5V44.6H12.5Z" fill="url(#paint0_linear_5688_3796)" fill-opacity="0.61"/>
</g>
<defs>
<filter id="filter0_d_5688_3796" x="0.5" y="0.5" width="276.541" height="85" filterUnits="userSpaceOnUse" color-interpolation-filters="sRGB">
<feFlood flood-opacity="0" result="BackgroundImageFix"/>
<feColorMatrix in="SourceAlpha" type="matrix" values="0 0 0 0 0 0 0 0 0 0 0 0 0 0 0 0 0 0 127 0" result="hardAlpha"/>
<feOffset dx="1" dy="6"/>
<feGaussianBlur stdDeviation="6"/>
<feComposite in2="hardAlpha" operator="out"/>
<feColorMatrix type="matrix" values="0 0 0 0 0 0 0 0 0 0 0 0 0 0 0 0 0 0 0.25 0"/>
<feBlend mode="normal" in2="BackgroundImageFix" result="effect1_dropShadow_5688_3796"/>
<feBlend mode="normal" in="SourceGraphic" in2="effect1_dropShadow_5688_3796" result="shape"/>
</filter>
<linearGradient id="paint0_linear_5688_3796" x1="60.9285" y1="32.431" x2="59.581" y2="8.80594" gradientUnits="userSpaceOnUse">
<stop stop-color="white" stop-opacity="0"/>
<stop offset="1" stop-color="white"/>
</linearGradient>
</defs>
</svg>
