<svg t="1699962115513" class="icon" viewBox="0 0 1024 1024" version="1.1" xmlns="http://www.w3.org/2000/svg" p-id="76961" width="200" height="200"><path d="M327.45389 724.833363c-14.536065 4.595668-22.592554 20.103874-17.997909 34.639938l19.332301 61.147662c-109.826338-66.688865-179.060165-187.654914-179.060166-317.516564 0-204.565049 166.426427-370.991476 370.991476-370.991476 15.245216 0 27.603685-12.357446 27.603685-27.603684s-12.358469-27.603685-27.603685-27.603685c-57.525158 0-113.342418 11.271718-165.903517 33.504068-50.754964 21.466917-96.331999 52.193733-135.464252 91.327009s-69.859068 84.709287-91.325985 135.464251c-22.23235 52.5611-33.504068 108.380406-33.504068 165.904541 0 81.976036 23.337521 161.594375 67.487044 230.245941 36.840046 57.281611 86.578868 104.689341 145.08333 138.612964l-67.104328 21.216208c-14.536065 4.595668-22.592554 20.103874-17.997909 34.639938 3.720741 11.768021 14.59337 19.290345 26.311249 19.290345a27.598568 27.598568 0 0 0 8.328689-1.291413l154.225547-48.759517-48.761564-154.225547c-4.593622-14.539134-20.101827-22.597671-34.639938-18.000979zM716.909903 152.044882l67.103304-21.216208c14.536065-4.595668 22.592554-20.104897 17.997909-34.639938-4.595668-14.536065-20.101827-22.596647-34.640961-17.998933l-154.225547 48.759517 48.76054 154.225547c3.720741 11.768021 14.59337 19.290345 26.311249 19.290346a27.598568 27.598568 0 0 0 8.328689-1.291413c14.536065-4.595668 22.594601-20.103874 17.998933-34.639938l-19.332301-61.146639c109.826338 66.688865 179.060165 187.654914 179.060166 317.516564 0 204.565049-166.426427 370.991476-370.991476 370.991476-15.245216 0-27.603685 12.357446-27.603685 27.603685 0 15.246239 12.358469 27.603685 27.603685 27.603684 57.525158 0 113.342418-11.271718 165.903517-33.504068 50.754964-21.466917 96.331999-52.193733 135.464252-91.327008 39.132252-39.133276 69.859068-84.709287 91.325985-135.464251 22.23235-52.5611 33.504068-108.380406 33.504068-165.904541 0-81.976036-23.337521-161.594375-67.487044-230.245941-36.836977-57.282634-86.577844-104.689341-145.081283-138.611941z" fill="" p-id="76962"></path><path d="M576.357773 741.664703l-16.906041 32.538068c-4.217045 8.117888-1.057075 18.11559 7.060812 22.333657a16.486486 16.486486 0 0 0 7.621585 1.868557c5.983271 0 11.760858-3.25309 14.710027-8.929369l42.146912-81.122599-81.121576-42.147936c-8.115841-4.217045-18.11559-1.054005-22.332634 7.060813-4.217045 8.117888-1.057075 18.11559 7.060813 22.333658l28.988218 15.059997c-68.399833 15.615653-141.602042-4.830005-191.815677-55.041594-38.881542-38.882566-60.295248-90.576925-60.295248-145.564283s21.413706-106.681718 60.295248-145.564284c6.468318-6.467295 6.468318-16.954137 0-23.422455-6.467295-6.468318-16.953114-6.468318-23.422456 0-45.138036 45.137013-69.997214 105.150852-69.997214 168.986739s24.858154 123.849726 69.997214 168.986739c32.503275 32.503275 73.325006 54.818513 118.051673 64.533782a240.212944 240.212944 0 0 0 50.987255 5.478781c19.857257 0 39.662325-2.478448 58.971089-7.388271zM663.042041 692.944072a16.505929 16.505929 0 0 0 11.710717 4.851495c4.237511 0 8.478092-1.617847 11.710716-4.851495 45.138036-45.137013 69.997214-105.150852 69.997214-168.986739s-24.858154-123.849726-69.997214-168.987762c-32.503275-32.503275-73.325006-54.818513-118.051673-64.532759-36.459377-7.92039-74.066903-7.221472-109.953228 1.903349l16.902972-32.533974c4.217045-8.117888 1.057075-18.11559-7.060813-22.333657-8.116865-4.217045-18.11559-1.056052-22.332634 7.060812l-42.147936 81.122599 81.122599 42.147936a16.486486 16.486486 0 0 0 7.621584 1.868557c5.983271 0 11.760858-3.25309 14.710027-8.92937 4.217045-8.117888 1.057075-18.11559-7.060813-22.333658l-28.987194-15.059997c68.399833-15.615653 141.603065 4.826935 191.815676 55.040571 38.881542 38.882566 60.295248 90.577948 60.295248 145.565306s-21.413706 106.681718-60.295248 145.564284c-6.466272 6.470365-6.466272 16.957207 0 23.424502z" fill="" p-id="76963"></path></svg>
