<svg xmlns="http://www.w3.org/2000/svg" width="33" height="33" viewBox="0 0 33 33" fill="none">
  <path d="M22.4443 17.7009C22.4443 17.9976 22.3564 18.2876 22.1915 18.5343C22.0267 18.781 21.7924 18.9732 21.5184 19.0868C21.2443 19.2003 20.9427 19.23 20.6517 19.1721C20.3607 19.1142 20.0935 18.9714 19.8837 18.7616C19.6739 18.5518 19.531 18.2845 19.4732 17.9936C19.4153 17.7026 19.445 17.401 19.5585 17.1269C19.672 16.8528 19.8643 16.6186 20.111 16.4537C20.3577 16.2889 20.6477 16.2009 20.9443 16.2009C21.342 16.2014 21.7233 16.3596 22.0045 16.6408C22.2857 16.922 22.4439 17.3033 22.4443 17.7009ZM11.9443 16.2009C11.6477 16.2009 11.3577 16.2889 11.111 16.4537C10.8643 16.6186 10.672 16.8528 10.5585 17.1269C10.445 17.401 10.4153 17.7026 10.4732 17.9936C10.531 18.2845 10.6739 18.5518 10.8837 18.7616C11.0935 18.9714 11.3607 19.1142 11.6517 19.1721C11.9427 19.23 12.2443 19.2003 12.5184 19.0868C12.7924 18.9732 13.0267 18.781 13.1915 18.5343C13.3564 18.2876 13.4443 17.9976 13.4443 17.7009C13.4439 17.3033 13.2857 16.922 13.0045 16.6408C12.7233 16.3596 12.342 16.2014 11.9443 16.2009ZM30.4443 8.20094V18.2009C30.4416 20.5871 29.4926 22.8747 27.8053 24.5619C26.1181 26.2492 23.8305 27.1982 21.4443 27.2009H11.4443C9.05821 27.1982 6.77059 26.2492 5.08334 24.5619C3.3961 22.8747 2.44702 20.5871 2.44434 18.2009V8.20094C2.4444 7.22734 2.79953 6.28718 3.44317 5.55668C4.0868 4.82618 4.97475 4.35549 5.94059 4.23282C6.90643 4.11015 7.88386 4.34392 8.68967 4.89033C9.49548 5.43674 10.0744 6.25827 10.3178 7.20094H22.5709C22.8143 6.25827 23.3932 5.43674 24.199 4.89033C25.0048 4.34392 25.9822 4.11015 26.9481 4.23282C27.9139 4.35549 28.8019 4.82618 29.4455 5.55668C30.0891 6.28718 30.4443 7.22734 30.4443 8.20094ZM25.4443 17.2009C25.4443 16.6756 25.3409 16.1555 25.1399 15.6702C24.9388 15.1849 24.6442 14.7439 24.2728 14.3725C23.9013 14.0011 23.4604 13.7064 22.9751 13.5054C22.4898 13.3044 21.9696 13.2009 21.4443 13.2009H11.4443C10.3835 13.2009 9.36605 13.6224 8.61591 14.3725C7.86576 15.1227 7.44434 16.1401 7.44434 17.2009V18.2009C7.44435 19.2618 7.86578 20.2792 8.61592 21.0294C9.36606 21.7795 10.3835 22.2009 11.4443 22.2009H21.4443C22.5052 22.2009 23.5226 21.7795 24.2728 21.0294C25.0229 20.2792 25.4443 19.2618 25.4443 18.2009V17.2009Z" fill="url(#paint0_linear_2664_6473)"/>
  <defs>
    <linearGradient id="paint0_linear_2664_6473" x1="30.4443" y1="26.1078" x2="8.16117" y2="-2.82798" gradientUnits="userSpaceOnUse">
      <stop stop-color="#7041F3"/>
      <stop offset="1" stop-color="#F5C84C"/>
    </linearGradient>
  </defs>
</svg>