<svg width="33" height="32" viewBox="0 0 33 32" fill="none" xmlns="http://www.w3.org/2000/svg">
<path d="M26.4434 3.99963H23.4434V2.99963C23.4434 2.73442 23.338 2.48006 23.1505 2.29253C22.9629 2.10499 22.7086 1.99963 22.4434 1.99963C22.1781 1.99963 21.9238 2.10499 21.7363 2.29253C21.5487 2.48006 21.4434 2.73442 21.4434 2.99963V3.99963H11.4434V2.99963C11.4434 2.73442 11.338 2.48006 11.1505 2.29253C10.9629 2.10499 10.7086 1.99963 10.4434 1.99963C10.1781 1.99963 9.92379 2.10499 9.73625 2.29253C9.54872 2.48006 9.44336 2.73442 9.44336 2.99963V3.99963H6.44336C5.91309 4.00016 5.40468 4.21104 5.02972 4.586C4.65476 4.96096 4.44388 5.46936 4.44336 5.99963V25.9996C4.44388 26.5299 4.65476 27.0383 5.02972 27.4133C5.40468 27.7882 5.91309 27.9991 6.44336 27.9996H26.4434C26.9736 27.9991 27.482 27.7882 27.857 27.4133C28.232 27.0383 28.4428 26.5299 28.4434 25.9996V5.99963C28.4428 5.46936 28.232 4.96096 27.857 4.586C27.482 4.21104 26.9736 4.00016 26.4434 3.99963ZM13.4441 23.4996C13.0503 23.5007 12.6601 23.4237 12.2962 23.2731C11.9324 23.1225 11.6019 22.9013 11.324 22.6222C11.1364 22.4348 11.0309 22.1805 11.0307 21.9153C11.0306 21.65 11.1358 21.3956 11.3232 21.208C11.5106 21.0203 11.7649 20.9148 12.0301 20.9147C12.2954 20.9145 12.5498 21.0197 12.7374 21.2072C12.8538 21.3233 12.997 21.4091 13.1543 21.4567C13.3117 21.5044 13.4784 21.5125 13.6396 21.4803C13.8009 21.4482 13.9517 21.3767 14.0788 21.2724C14.2058 21.168 14.3052 21.034 14.3681 20.882C14.431 20.7301 14.4554 20.565 14.4393 20.4014C14.4231 20.2377 14.3668 20.0806 14.2755 19.9439C14.1841 19.8072 14.0604 19.6952 13.9154 19.6177C13.7704 19.5402 13.6085 19.4996 13.4441 19.4996H13.4435C13.4124 19.4996 13.3812 19.4978 13.3502 19.4949C13.3402 19.494 13.3305 19.4924 13.3207 19.4912C13.2999 19.4887 13.2791 19.4856 13.2584 19.4818C13.2469 19.4796 13.2355 19.4771 13.2241 19.4746C13.2053 19.4703 13.1865 19.4655 13.1679 19.4601C13.1566 19.4569 13.1452 19.4537 13.134 19.45C13.1152 19.4439 13.0966 19.4369 13.0781 19.4296C13.0681 19.4256 13.0579 19.422 13.048 19.4177C13.0264 19.4084 13.0053 19.3979 12.9841 19.387C12.978 19.3838 12.9716 19.3811 12.9656 19.3778C12.9392 19.3634 12.9133 19.3477 12.8879 19.3306C12.8794 19.3249 12.8715 19.3185 12.8631 19.3125C12.8485 19.302 12.8336 19.2919 12.8194 19.2805C12.8176 19.2791 12.816 19.2774 12.8142 19.2759C12.7991 19.2636 12.7849 19.2504 12.7706 19.2372C12.7601 19.2277 12.7492 19.2186 12.7392 19.2087C12.7296 19.1991 12.7208 19.1887 12.7116 19.1787C12.5905 19.0482 12.5064 18.8878 12.4677 18.714C12.467 18.7109 12.4659 18.7078 12.4653 18.7046C12.4618 18.6877 12.4597 18.6704 12.4571 18.6533C12.4547 18.6377 12.4517 18.6223 12.45 18.6067C12.4486 18.5938 12.4484 18.5807 12.4475 18.5677C12.4461 18.5472 12.4446 18.5268 12.4445 18.5062C12.4444 18.504 12.4441 18.5019 12.4441 18.4996C12.4441 18.4893 12.4453 18.4792 12.4457 18.4689C12.4463 18.4482 12.4469 18.4275 12.4488 18.4068C12.4501 18.3928 12.4523 18.3791 12.4542 18.3654C12.4567 18.3467 12.4591 18.3282 12.4627 18.3097C12.4655 18.2948 12.4692 18.2803 12.4727 18.2657C12.4768 18.2487 12.4808 18.2316 12.4858 18.2147C12.4904 18.1996 12.4957 18.1848 12.5009 18.17C12.5064 18.1542 12.5118 18.1383 12.5182 18.1227C12.5244 18.1074 12.5315 18.0926 12.5385 18.0777C12.5453 18.0631 12.5519 18.0485 12.5595 18.0341C12.5676 18.0185 12.5768 18.0035 12.5858 17.9885C12.5935 17.9755 12.601 17.9624 12.6093 17.9497C12.6199 17.9337 12.6315 17.9184 12.6429 17.903C12.6499 17.8937 12.6559 17.884 12.6632 17.8749L13.3635 16.9996H11.9441C11.6789 16.9996 11.4245 16.8943 11.237 16.7067C11.0494 16.5192 10.9441 16.2649 10.9441 15.9996C10.9441 15.7344 11.0494 15.4801 11.237 15.2925C11.4245 15.105 11.6789 14.9996 11.9441 14.9996H15.4441C15.6325 14.9996 15.817 15.0528 15.9765 15.1531C16.1359 15.2534 16.2638 15.3967 16.3454 15.5665C16.427 15.7362 16.459 15.9256 16.4377 16.1128C16.4164 16.3 16.3427 16.4773 16.225 16.6244L15.1163 18.0102C15.6502 18.3685 16.0548 18.8889 16.2704 19.4946C16.486 20.1004 16.5013 20.7594 16.3139 21.3744C16.1266 21.9895 15.7465 22.5281 15.2298 22.9107C14.7131 23.2934 14.0871 23.4998 13.4441 23.4996ZM21.4441 22.4996C21.4441 22.7649 21.3387 23.0192 21.1512 23.2067C20.9637 23.3943 20.7093 23.4996 20.4441 23.4996C20.1789 23.4996 19.9245 23.3943 19.737 23.2067C19.5494 23.0192 19.4441 22.7649 19.4441 22.4996V17.9996L19.0441 18.2997C18.8319 18.4588 18.5652 18.5271 18.3026 18.4896C18.0401 18.4521 17.8032 18.3118 17.644 18.0996C17.4849 17.8874 17.4166 17.6207 17.4541 17.3582C17.4916 17.0956 17.6319 16.8587 17.8441 16.6996L19.8441 15.1996C19.9927 15.0882 20.1694 15.0203 20.3543 15.0037C20.5393 14.987 20.7252 15.0222 20.8913 15.1052C21.0574 15.1883 21.1971 15.316 21.2947 15.4739C21.3924 15.6319 21.4441 15.8139 21.4441 15.9996V22.4996ZM26.4434 9.99963H6.44336V5.99963H9.44336V6.99963C9.44336 7.26485 9.54872 7.5192 9.73625 7.70674C9.92379 7.89428 10.1781 7.99963 10.4434 7.99963C10.7086 7.99963 10.9629 7.89428 11.1505 7.70674C11.338 7.5192 11.4434 7.26485 11.4434 6.99963V5.99963H21.4434V6.99963C21.4434 7.26485 21.5487 7.5192 21.7363 7.70674C21.9238 7.89428 22.1781 7.99963 22.4434 7.99963C22.7086 7.99963 22.9629 7.89428 23.1505 7.70674C23.338 7.5192 23.4434 7.26485 23.4434 6.99963V5.99963H26.4434V9.99963Z" fill="currentColor" fill-opacity="1"/>
</svg>
