<svg viewBox="0 0 38 38" fill="none" xmlns="http://www.w3.org/2000/svg">
<path d="M18.3324 5.766C23.5999 9.25758 31.5 16.007 31.5 22.291C31.5 23.8866 31.1888 25.2352 30.6716 26.3696C29.4043 28.3158 28.5544 29.2128 26.7582 30.4643C25.9165 30.9255 25.0522 31.2521 24.2481 31.4698C23.574 31.6523 23.131 30.9685 23.5342 30.4643C24.9099 28.7441 26.5 26.1195 26.5 23.6507C26.5 20.9986 23.9311 17.8675 21.9252 15.9363C21.4666 15.4948 20.6667 15.787 20.6417 16.3817C20.5588 18.352 20.2015 20.9882 18.6607 23.0543C18.4126 23.3868 17.8862 23.4144 17.6036 23.1034C17.1222 22.5736 16.6408 21.9191 16.1593 21.4021C15.9 21.1236 15.4313 21.1198 15.1322 21.3662C13.966 22.3271 12.3333 23.8254 12.3333 25.6901C12.3333 27.0351 13.07 28.7092 13.8293 30.0056C14.1742 30.5943 13.5344 31.2849 12.8772 30.9539C10.0087 29.509 6.5 26.5152 6.5 22.291C6.5 20.6773 7.45833 18.829 8.79001 16.8523L11.767 12.7734C13.3156 10.7009 14.8493 8.57179 15.8063 6.48807C16.2121 5.6046 17.4626 5.18947 18.3324 5.766Z" stroke="currentColor" stroke-linecap="round"/>
</svg>
