<svg xmlns="http://www.w3.org/2000/svg" width="16" height="16" viewBox="0 0 16 16" fill="none">
  <g clip-path="url(#clip0_1567_308)">
    <path d="M11.9659 8.99163C11.9819 8.99053 11.999 9.00046 12.0156 9.00487C12.0095 9.02032 12.0045 9.03687 11.9962 9.05121L11.9014 9.20733C11.8859 9.23381 11.8716 9.26029 11.8589 9.28787C11.8098 9.39269 11.8578 9.48868 11.9703 9.51184C12.1474 9.54825 12.325 9.58135 12.5032 9.60618C12.5628 9.61445 12.6301 9.60618 12.6847 9.58411C12.8618 9.5135 12.9843 9.37779 13.0841 9.21836C13.1316 9.14223 13.1531 9.13506 13.2353 9.17202C13.4912 9.28622 13.7069 9.45447 13.8785 9.68176C13.8967 9.70603 13.921 9.72534 13.9419 9.7474L14.562 10.6008C14.5774 10.6301 14.5918 10.6598 14.6083 10.6885C14.6839 10.8165 14.6795 10.9517 14.6646 11.0879C14.6646 11.0901 14.658 11.0912 14.6481 11.0951C14.6326 11.0763 14.6155 11.0565 14.6001 11.0355C14.4655 10.8513 14.3309 10.6676 14.1985 10.4817C14.1659 10.4359 14.135 10.4221 14.0865 10.4497C14.0545 10.4679 14.017 10.4772 13.9817 10.4899C13.8961 10.5208 13.8068 10.544 13.7262 10.5837C13.5707 10.6604 13.4736 10.7856 13.4482 10.9677C13.4283 11.1083 13.403 11.2474 13.3748 11.3864C13.3461 11.5276 13.414 11.6274 13.5481 11.6335C13.5602 11.6341 13.5729 11.6346 13.5839 11.6319C13.6744 11.6092 13.7632 11.5817 13.8548 11.5646C13.9083 11.5546 13.9668 11.5513 14.0197 11.5635C14.0445 11.569 14.0622 11.6181 14.0832 11.6479L14.0903 11.6578C14.1951 11.799 14.2978 11.9413 14.4059 12.0798C14.4528 12.1399 14.4555 12.1945 14.4274 12.2569C14.3954 12.3275 14.3651 12.3992 14.3353 12.4715C14.2299 12.7258 14.0992 12.9647 13.9508 13.1936C13.6882 13.5985 13.377 13.9598 13.0334 14.2936C12.9743 14.351 12.9644 14.351 12.9142 14.2809C12.7211 14.0106 12.5297 13.7392 12.335 13.47C12.3173 13.4457 12.2842 13.4275 12.255 13.4176C12.1297 13.3751 12.0249 13.4264 11.9306 13.4926C11.6928 13.6592 11.4589 13.8302 11.2256 14.0034C11.1776 14.0393 11.1318 14.084 11.0998 14.1347C11.0612 14.1971 11.0331 14.2737 11.0728 14.3493C11.1136 14.4266 11.166 14.4983 11.2179 14.5683C11.3767 14.784 11.5373 14.9981 11.6972 15.2121C11.7199 15.2424 11.7177 15.2634 11.6846 15.2805C11.6057 15.3208 11.5279 15.3633 11.449 15.4041C11.1737 15.5475 10.8858 15.6639 10.5901 15.7605C10.1658 15.8995 9.72673 15.9756 9.27603 15.9999C9.24569 16.0015 9.20541 15.9866 9.18335 15.9657C9.13866 15.9232 9.10115 15.8724 9.06529 15.8222C8.97096 15.6893 8.87718 15.5563 8.78781 15.4201C8.77402 15.3991 8.77181 15.3594 8.78119 15.3368C8.7845 15.3285 8.79609 15.3208 8.80877 15.3153L8.83746 15.2706L8.87111 15.2099C8.87111 15.2094 8.87166 15.2088 8.87166 15.2082L8.87222 15.1983C8.87552 15.1895 8.87773 15.1823 8.8838 15.1757L8.88766 15.1718C8.89097 15.1625 8.89538 15.1542 8.902 15.1481L8.90862 15.1448L8.92462 15.1056L8.93345 15.093L8.94117 15.0654C8.94228 15.0626 8.94338 15.0599 8.94559 15.0576L8.95386 15.0356C8.95551 15.0317 8.95772 15.029 8.95993 15.0268C8.96103 15.019 8.96655 15.0052 8.97482 14.9887C9.00682 14.9247 8.99303 14.8618 8.97868 14.7973C8.97593 14.784 8.96213 14.7669 8.94945 14.762C8.88104 14.7333 8.81098 14.7167 8.73982 14.7057L8.63224 14.6919C8.56053 14.6836 8.48881 14.6726 8.41765 14.6621C8.35586 14.6533 8.29298 14.6318 8.2334 14.6362C8.06514 14.6489 7.93495 14.7366 7.83014 14.8613C7.77166 14.9308 7.72256 15.0085 7.6674 15.0808C7.60671 15.1597 7.60506 15.1591 7.66629 15.243C7.80145 15.4289 7.93716 15.6148 8.07231 15.8013C8.085 15.8184 8.09272 15.8388 8.10265 15.8581L8.09272 15.8719C8.0668 15.8636 8.04142 15.8537 8.01549 15.8471C7.93826 15.8278 7.86048 15.8101 7.78269 15.7919L6.94859 14.6439C6.90501 14.5435 6.86639 14.4409 6.8173 14.3433C6.74337 14.196 6.71745 14.0409 6.70145 13.8832C6.69593 13.8319 6.72407 13.8137 6.76765 13.8004C6.86805 13.7701 6.97562 13.7497 7.06333 13.6978C7.21394 13.6079 7.35737 13.502 7.36619 13.294C7.36674 13.2824 7.37557 13.2719 7.37723 13.2598C7.40591 13.0904 7.44729 12.9222 7.42963 12.7462C7.42688 12.7159 7.39929 12.6784 7.37281 12.6596C7.29393 12.6044 7.21063 12.6204 7.12953 12.6458C7.06609 12.6657 7.0021 12.6839 6.93866 12.7026L6.92376 12.6861C6.93645 12.6563 6.94914 12.6265 6.96238 12.5973C7.02251 12.4649 7.07823 12.3303 7.14443 12.2012C7.19904 12.0953 7.26359 11.9949 7.32813 11.895C7.41474 11.7604 7.50245 11.6258 7.59568 11.4962C7.65526 11.4129 7.72256 11.334 7.79207 11.2584C7.95481 11.0808 8.11755 10.9031 8.28636 10.731C8.37076 10.6449 8.37241 10.6538 8.45682 10.7498C8.49433 10.7922 8.55005 10.8402 8.5997 10.8452C8.72106 10.8573 8.83029 10.8121 8.92738 10.7404C9.05095 10.6488 9.17949 10.5633 9.30085 10.4679C9.42994 10.3664 9.58385 10.293 9.67708 10.1474C9.72783 10.0679 9.77141 9.98792 9.71294 9.88807C9.69529 9.85773 9.67432 9.82905 9.65336 9.80091C9.62798 9.76726 9.62743 9.74133 9.66494 9.72147C9.70356 9.70162 9.74162 9.68065 9.77969 9.65969C10.2138 9.42468 10.6695 9.24043 11.1528 9.12072C11.4192 9.05452 11.6917 9.01701 11.967 8.99494L11.9659 8.99163ZM7.4677 0.0492859L14.6712 2.11469C15.336 2.30501 15.7199 2.99844 15.5296 3.66319L14.0528 8.81455C12.8463 7.88722 10.5857 8.10623 8.60466 9.44234C6.38093 10.9423 5.33003 13.2962 6.19834 14.7708L6.21489 14.7973L3.46488 14.0089C2.80013 13.8186 2.41618 13.1252 2.6065 12.4604L5.9192 0.907111C6.10952 0.242366 6.80295 -0.141587 7.4677 0.0487343V0.0492859ZM10.552 10.1303C9.84975 10.3862 9.24624 10.7933 8.73099 11.3296C8.42206 11.6512 8.16278 12.0108 7.99122 12.4323C7.87261 12.7236 7.79924 13.0259 7.84282 13.353C7.87427 13.5853 7.96474 13.7916 8.13355 13.9621C8.32332 14.154 8.55612 14.2522 8.80933 14.2986C9.233 14.3763 9.64122 14.3179 10.0384 14.1976C10.5321 14.0476 10.984 13.8148 11.4016 13.5152C11.5461 13.3955 11.6956 13.2824 11.8335 13.1555C12.159 12.856 12.4442 12.5195 12.6599 12.1261C12.8315 11.8134 12.9567 11.4818 12.9622 11.11C12.9683 10.667 12.7939 10.3189 12.3912 10.0988C12.2086 9.99896 12.0117 9.95372 11.8103 9.93607C11.3707 9.898 10.9547 9.98296 10.5526 10.1297L10.552 10.1303ZM11.8683 10.2621C12.1104 10.3151 12.3245 10.4221 12.4767 10.6372C12.6235 10.8441 12.6571 11.073 12.634 11.3108C12.6042 11.6214 12.4867 11.8972 12.3311 12.1559C12.0564 12.6133 11.6884 12.9796 11.2278 13.3161C10.7975 13.6228 10.2927 13.8749 9.71845 13.9775C9.46911 14.0222 9.217 14.031 8.96214 13.9747C8.43917 13.8594 8.15175 13.4628 8.20471 12.9299C8.2356 12.6193 8.352 12.3435 8.50647 12.0848C8.74589 11.6832 9.05978 11.35 9.42222 11.0648C9.88506 10.7007 10.3948 10.4243 10.9773 10.2891C11.2692 10.2218 11.5654 10.1953 11.8683 10.2621ZM5.02386 0.721203L2.14697 11.4608C2.14201 11.4802 2.13704 11.4989 2.13318 11.5182C2.0885 11.4327 2.05264 11.3395 2.02837 11.2407L0.0374395 3.25441C-0.129712 2.58359 0.278513 1.90451 0.949327 1.7368L5.02496 0.721203H5.02386ZM2.15028 2.64979C1.9401 2.65697 1.75254 2.70827 1.58759 2.80315C1.42265 2.89804 1.29577 3.02602 1.2053 3.18656C1.11482 3.34709 1.07345 3.52638 1.08007 3.72332C1.08614 3.89599 1.12917 4.05266 1.20916 4.19443C1.28915 4.33621 1.39782 4.4515 1.53574 4.54142C1.67365 4.63134 1.82922 4.68761 2.00299 4.71023C2.11884 4.82387 2.2231 4.91158 2.31523 4.97392C2.40735 5.03626 2.49893 5.07984 2.58885 5.10522C2.67877 5.13059 2.77917 5.14107 2.88895 5.13721C3.00259 5.13335 3.10685 5.10853 3.20064 5.06219C3.29442 5.01585 3.37386 4.9513 3.4373 4.86745L3.18243 4.58611C3.09637 4.6821 2.99763 4.7323 2.88619 4.73616C2.84261 4.73781 2.80179 4.73064 2.76428 4.71464C2.72676 4.69864 2.68815 4.67106 2.64898 4.63024C2.85309 4.54915 3.01307 4.42061 3.12947 4.24463C3.24587 4.06865 3.29993 3.86895 3.29221 3.64553C3.28559 3.44859 3.23153 3.27261 3.13002 3.1187C3.02852 2.96479 2.89281 2.84618 2.7218 2.76288C2.55079 2.67958 2.36046 2.64152 2.14973 2.64924L2.15028 2.64979ZM7.09092 1.31975L6.21764 4.17623L7.01755 4.42061L7.236 3.70622L7.6365 3.47617L8.13575 4.76208L9.07412 5.04895L8.33214 3.08174L9.88616 2.17371L8.99634 1.90175L7.52728 2.7513L7.89027 1.56358L7.09036 1.3192L7.09092 1.31975ZM2.16628 3.11594C2.26668 3.11263 2.35826 3.13304 2.44156 3.17773C2.52486 3.22241 2.59161 3.28696 2.64181 3.37136C2.69201 3.45576 2.71959 3.55396 2.72345 3.66594C2.72732 3.77793 2.7069 3.87778 2.66277 3.96549C2.61864 4.05321 2.5563 4.12272 2.47631 4.17292C2.39632 4.22312 2.3064 4.25015 2.206 4.25346C2.1056 4.25677 2.01402 4.23636 1.93072 4.19167C1.84742 4.14699 1.78067 4.08245 1.73047 3.99804C1.68027 3.91364 1.65269 3.81544 1.64883 3.70346C1.64497 3.59147 1.66538 3.49162 1.70951 3.40391C1.75364 3.31619 1.81598 3.24669 1.89597 3.19649C1.97596 3.14628 2.06588 3.11925 2.16628 3.11594Z" fill="currentColor"/>
  </g>
  <defs>
    <clipPath id="clip0_1567_308">
      <rect width="16" height="16" fill="white"/>
    </clipPath>
  </defs>
</svg>