<svg xmlns="http://www.w3.org/2000/svg" width="16" height="16" viewBox="0 0 16 16" fill="none">
  <path d="M11.4198 2C12.1497 2 12.8012 2.90034 13.227 4.30929L13.2324 4.30875L13.3001 4.56954C13.839 6.7809 13.8016 9.89368 13.069 12.6071C12.6481 13.7423 12.0643 14.4446 11.4193 14.4446L11.3798 14.4419L11.3803 14.4446L4.55149 14.4403C3.94873 14.3797 3.40496 13.7044 3.00511 12.6423L2.99915 12.6418C2.4175 9.92398 2.38666 6.69541 2.81194 4.46674L2.86876 4.18917H2.87146C3.28971 2.87437 3.90924 2.03138 4.60235 2.00108V2H11.4198ZM2.57279 4.18863C2.1632 5.57215 1.97437 7.00599 2.00791 8.48906C2.03821 9.86663 2.24761 11.1831 2.6361 12.4383L2.70102 12.6402H2.31254C1.73305 12.6402 1.28937 11.7658 1.05292 10.5186C0.438267 10.2021 0 9.37371 0 8.40195C0 7.44317 0.426364 6.62507 1.02749 6.29827C1.25691 5.03595 1.71195 4.18809 2.31362 4.18809H2.57387L2.57279 4.18863ZM13.7551 4.30983C14.3184 4.38125 14.8048 5.16039 15.0683 6.35724C15.6191 6.71435 16 7.4962 16 8.40195C16 9.29363 15.631 10.0652 15.0953 10.4304C14.8529 11.63 14.3909 12.4394 13.8471 12.5828L13.7556 12.6001L13.7546 12.6061L13.3423 12.6066L13.438 12.3604C13.8639 11.2052 14.1046 9.94779 14.1587 8.58808C14.2183 7.10121 14.0013 5.67549 13.5073 4.30929L13.7551 4.30983ZM6.67248 5.76152L6.48365 5.83403L6.20554 5.9601C6.12871 5.97525 6.08272 5.93088 6.06703 5.82699C6.05133 5.72311 5.98208 5.66846 5.85925 5.66413C5.62822 5.66413 5.43722 5.67495 5.2868 5.69714C5.15749 5.71553 5.09093 5.77884 5.08606 5.88597L5.08877 5.94332L5.02655 7.79108C5.01897 7.86575 5.02655 7.92094 5.04981 7.95773C5.0655 7.98262 5.08823 7.99831 5.11745 8.00642L5.16723 8.01184L5.88468 7.99723C5.92635 8.01021 5.96206 8.00372 5.99398 7.97775C6.01454 7.96098 6.03348 7.93446 6.05025 7.90038L6.07298 7.84248L6.16767 7.67854C6.25478 7.52595 6.37057 7.41936 6.51449 7.3593C6.63461 7.30953 6.79693 7.30141 7.00254 7.33442L7.13131 7.3593L8.17179 7.65852C8.43746 7.70072 8.70096 7.70072 8.96175 7.65852C9.22255 7.61631 9.46549 7.5292 9.69058 7.39826C9.61212 7.49241 9.49741 7.59954 9.347 7.71803C9.19658 7.83653 9.00883 7.96801 8.78537 8.11139C8.64469 8.18173 8.49806 8.26289 8.34547 8.35596C8.19289 8.44902 8.03436 8.55345 7.87041 8.66924C7.69781 8.8018 7.5474 8.93653 7.42078 9.07396C7.29417 9.21139 7.19029 9.35044 7.10967 9.49166C7.0047 9.65831 6.92138 9.85148 6.8624 10.0706C6.80342 10.2897 6.76663 10.5359 6.7531 10.8081C6.74391 10.8801 6.75473 10.9336 6.78503 10.9688C6.80775 10.9953 6.84184 11.0104 6.88729 11.0159L6.93653 11.0175L9.45575 11.0224C9.57046 11.0337 9.65 11.0288 9.69436 11.0083C9.72791 10.9931 9.74252 10.9677 9.73711 10.9342L9.7252 10.8974L9.68192 10.6631C9.66244 10.504 9.65378 10.3265 9.65649 10.1307C9.65919 9.9348 9.67218 9.72 9.69707 9.48679C9.72358 9.28498 9.762 9.08694 9.81123 8.89432C9.86047 8.7017 9.92053 8.51341 9.99087 8.32999C10.0634 8.12979 10.1445 7.93176 10.2344 7.73751C10.3242 7.54327 10.4232 7.35173 10.5298 7.16344C10.5909 7.03737 10.6786 6.88966 10.7933 6.7203C10.908 6.55095 11.0492 6.36049 11.2169 6.14839C11.2559 6.10835 11.2754 6.07264 11.2754 6.04234C11.2754 6.02178 11.2667 6.00284 11.2499 5.98607L11.218 5.9628L11.066 5.89192L10.7532 5.69768C10.71 5.66792 10.6732 5.6571 10.6407 5.66359C10.6082 5.67008 10.5817 5.69497 10.5606 5.73772C10.5222 5.78858 10.4724 5.83078 10.4097 5.86324C10.3469 5.89571 10.2722 5.91843 10.1851 5.9325C10.0672 5.95198 9.94975 5.96226 9.8318 5.96334C9.71384 5.96442 9.59589 5.95577 9.4774 5.93737C8.93578 5.83186 8.42826 5.73555 7.95536 5.64844C7.54144 5.57215 7.11508 5.61056 6.67627 5.76261H6.67357L6.67248 5.76152Z" fill="currentColor"/>
</svg>