<svg viewBox="0 0 38 38" fill="none" xmlns="http://www.w3.org/2000/svg">
<path d="M13.7437 16.1697H11V8.75452L13.7437 8.75451V10.6083C16.4873 5.88858 21.2087 8.92704 22.6606 9.37244C25.4042 10.2141 26.7761 9.18424 26.7761 8.36033L29 9.37244C23.7889 17.9783 20.1725 22.7627 21.9747 31H15.8014L16.4873 25.4386C16.9959 21.5666 17.8422 19.6448 20.6028 16.7876L24.0324 13.0801C23.3465 13.286 21.7003 13.5744 20.6028 13.0801C15.1155 10.8321 13.6964 13.8958 13.7437 16.1697Z" stroke="currentColor"/>
<path d="M3.67668 21.3281H2V16.4921L3.67668 16.4921V17.7011C5.35337 14.623 8.23864 16.6046 9.1259 16.8951C10.8026 17.444 11.6409 16.7723 11.6409 16.235L13 16.8951C9.81545 22.5076 7.60544 25.6278 8.70673 31H4.93419L5.35337 27.373C5.66414 24.8478 6.18134 23.5944 7.86839 21.7311L9.96424 19.3131C9.54507 19.4474 8.53906 19.6355 7.86839 19.3131C4.51502 17.847 3.6478 19.8451 3.67668 21.3281Z" stroke="currentColor"/>
<path d="M27.6767 21.3281H26V16.4921L27.6767 16.4921V17.7011C29.3534 14.623 32.2386 16.6046 33.1259 16.8951C34.8026 17.444 35.6409 16.7723 35.6409 16.235L37 16.8951C33.8155 22.5076 31.6054 25.6278 32.7067 31H28.9342L29.3534 27.373C29.6641 24.8478 30.1813 23.5944 31.8684 21.7311L33.9642 19.3131C33.5451 19.4474 32.5391 19.6355 31.8684 19.3131C28.515 17.847 27.6478 19.8451 27.6767 21.3281Z" stroke="currentColor"/>
</svg>
