<svg xmlns="http://www.w3.org/2000/svg" width="16" height="16" viewBox="0 0 16 16" fill="none">
  <path fill-rule="evenodd" clip-rule="evenodd" d="M6.62692 0C7.70134 0 7.16157 1.21267 7.70134 2.62493C8.2411 4.0372 9.01199 4.97562 9.32756 5.0258C9.94449 5.12389 10.0009 3.12476 10.2747 3.05631C10.678 2.95543 11.0516 3.47771 12.1536 5.0258C14.7807 8.71657 13.3889 14.6599 7.70134 15.0821C2.01374 15.5043 0.00538456 11.249 1.14647 7.19492C1.757 5.0258 2.53017 3.85509 3.72664 2.37089C4.00788 2.02202 5.55251 0 6.62692 0ZM6.77121 8.37892C5.2828 10.0684 4.75272 11.5528 5.18095 12.832C5.82329 14.7508 8.52862 14.5832 9.1167 13.1163C9.56579 11.7069 8.61482 9.92824 8.61482 10.2665C8.61482 10.6047 8.41368 10.944 7.86833 10.7263C7.50476 10.5812 7.13905 9.79875 6.77121 8.37892Z" fill="currentColor"/>
</svg>