<svg width="24" height="24" viewBox="0 0 24 24" fill="none" xmlns="http://www.w3.org/2000/svg">
<mask id="mask0_5_283170" style="mask-type:luminance" maskUnits="userSpaceOnUse" x="2" y="2" width="20" height="20">
<path d="M22 2H2V22H22V2Z" fill="white"/>
</mask>
<g mask="url(#mask0_5_283170)">
<path opacity="0.6" d="M15.4944 6.83984H4.32671C3.10319 6.83984 2.11133 7.8317 2.11133 9.05522V18.6617C2.11133 19.8852 3.10319 20.877 4.32671 20.877H15.4944C16.718 20.877 17.7098 19.8852 17.7098 18.6617V9.05522C17.7098 7.8317 16.718 6.83984 15.4944 6.83984Z" fill="currentColor" fill-opacity="0.4"/>
<path fill-rule="evenodd" clip-rule="evenodd" d="M8.47653 12.9375C8.47653 12.3847 8.9247 11.9365 9.47754 11.9365H10.3453C10.8981 11.9365 11.3463 12.3847 11.3463 12.9375V17.3298C11.3463 17.8826 10.8981 18.3308 10.3453 18.3308H9.47754C8.9247 18.3308 8.47653 17.8826 8.47653 17.3298V12.9375ZM4.47266 12.9376C4.47266 12.3848 4.92083 11.9366 5.47367 11.9366H6.34519C6.89804 11.9366 7.34621 12.3848 7.34621 12.9376V17.3299C7.34621 17.8827 6.89804 18.3309 6.34519 18.3309H5.47367C4.92083 18.3309 4.47266 17.8827 4.47266 17.3299V12.9376ZM13.4773 11.9365C12.9244 11.9365 12.4762 12.3847 12.4762 12.9375V17.3298C12.4762 17.8826 12.9244 18.3308 13.4773 18.3308H14.3477C14.9006 18.3308 15.3487 17.8826 15.3487 17.3298V12.9375C15.3487 12.3847 14.9006 11.9365 14.3477 11.9365H13.4773Z" fill="currentColor"/>
<path fill-rule="evenodd" clip-rule="evenodd" d="M19.2068 9.29098V12.9817C19.2068 13.5658 18.7333 14.0393 18.1493 14.0393H17.395C16.8953 14.0393 16.4902 14.4444 16.4902 14.9441C16.4902 15.4438 16.8953 15.8489 17.395 15.8489H18.1493C19.7328 15.8489 21.0164 14.5652 21.0164 12.9817V9.29069C21.573 8.97501 21.9484 8.37718 21.9484 7.69165C21.9484 6.76538 21.2629 5.99923 20.3716 5.87285C20.2892 5.8482 20.202 5.83496 20.1116 5.83496C20.0215 5.83496 19.9344 5.84815 19.8522 5.87271C18.9603 5.99866 18.2743 6.76504 18.2743 7.69165C18.2743 8.37739 18.65 8.97538 19.2068 9.29098Z" fill="currentColor"/>
<path d="M9.71074 2.58923C9.77512 2.44129 9.98494 2.44129 10.0493 2.58923L11.0993 5.00228C11.1261 5.06378 11.1841 5.10593 11.2509 5.11238L13.8703 5.36532C14.0309 5.38083 14.0958 5.58038 13.975 5.68732L12.0045 7.43161C11.9542 7.47607 11.932 7.54427 11.9465 7.60975L12.5155 10.1791C12.5504 10.3367 12.3806 10.46 12.2416 10.3781L9.97368 9.04312C9.91588 9.00909 9.84417 9.00909 9.78637 9.04312L7.51854 10.3781C7.3795 10.46 7.20975 10.3367 7.24463 10.1791L7.81352 7.60975C7.82802 7.54427 7.80586 7.47607 7.75563 7.43161L5.78515 5.68732C5.66434 5.58038 5.72918 5.38083 5.88977 5.36532L8.5092 5.11238C8.57596 5.10593 8.63397 5.06378 8.66074 5.00228L9.71074 2.58923Z" fill="currentColor"/>
</g>
</svg>
