<svg width="24" height="24" viewBox="0 0 24 24" fill="none" xmlns="http://www.w3.org/2000/svg">
<path fill-rule="evenodd" clip-rule="evenodd" d="M9.6 2.57141H14.4C18.9255 2.57141 21.1882 2.57141 22.5941 3.9773C23.6064 4.98955 23.8898 6.446 23.9691 8.87141H0.0308597C0.110216 6.446 0.393638 4.98955 1.40589 3.9773C2.81177 2.57141 5.07452 2.57141 9.6 2.57141ZM9.6 21.7714H14.4C18.9255 21.7714 21.1882 21.7714 22.5941 20.3655C24 18.9596 24 16.6969 24 12.1714V12.1701C24 11.6403 24 11.1415 23.9977 10.6714H0.00226235C0 11.1418 0 11.6411 0 12.1714C0 16.6969 0 18.9596 1.40589 20.3655C2.81177 21.7714 5.07452 21.7714 9.6 21.7714ZM4.8 13.0714C4.30294 13.0714 3.9 13.4744 3.9 13.9714C3.9 14.4685 4.30294 14.8714 4.8 14.8714H7.2C7.69706 14.8714 8.1 14.4685 8.1 13.9714C8.1 13.4744 7.69706 13.0714 7.2 13.0714H4.8ZM4.8 16.6714C4.30294 16.6714 3.9 17.0744 3.9 17.5714C3.9 18.0685 4.30294 18.4714 4.8 18.4714H9.6C10.0971 18.4714 10.5 18.0685 10.5 17.5714C10.5 17.0744 10.0971 16.6714 9.6 16.6714H4.8ZM14 16C14 15.4477 14.4477 15 15 15H16.5V13.5C16.5 12.9477 16.9477 12.5 17.5 12.5C18.0523 12.5 18.5 12.9477 18.5 13.5V15H20C20.5523 15 21 15.4477 21 16C21 16.5523 20.5523 17 20 17H18.5V18.5C18.5 19.0523 18.0523 19.5 17.5 19.5C16.9477 19.5 16.5 19.0523 16.5 18.5V17H15C14.4477 17 14 16.5523 14 16Z" fill="currentColor"/>
</svg>
