<svg width="390" height="136" viewBox="0 0 390 136" fill="none" xmlns="http://www.w3.org/2000/svg">
<path d="M0 20C0 8.9543 8.95431 0 20 0H370C381.046 0 390 8.95431 390 20V135H0V20Z" fill="url(#paint0_linear_4410_2830)"/>
<g filter="url(#filter0_d_4410_2830)">
<path d="M56 59.3726L81.1074 19.8731L111.486 63.7102L94.3792 61.8865C106.979 97.9484 130.352 113.164 140.463 116.264C140.272 118.442 139.685 121.063 138.56 123.592L103.537 123.592C88.571 108.182 75.9727 76.2644 70.7998 59.3726L56 59.3726Z" fill="white"/>
<g filter="url(#filter1_i_4410_2830)">
<path d="M83.7489 60.7532L81.1074 19.873L111.486 63.7102L94.3792 61.8865C106.979 97.9484 130.352 113.164 140.463 116.264C139.745 124.432 132.919 122.018 131.435 124.736C112.055 117.07 84.9378 81.1194 83.7489 60.7532Z" fill="#F4FAFF"/>
</g>
</g>
<path d="M256.5 119.549C289.5 75.5493 332 99.0493 334 101.049C361.01 87.1891 380.694 100.105 390 109.633V135.049H159C178.5 121.049 195.5 132.549 198.5 134.049C217.5 97.5493 254.5 117.549 256.5 119.549Z" fill="url(#paint1_linear_4410_2830)" fill-opacity="0.38"/>
<g filter="url(#filter2_i_4410_2830)">
<path d="M225 128.912C246.6 116.127 267.333 117.497 275 119.78V135H0V110.201C28.8423 95.3541 58.3418 107.864 60 109.126C98 94.2859 121.5 119.78 122 121.682C157.5 106.462 176 131.195 178 131.956C198 112.17 222.5 127.77 225 128.912Z" fill="url(#paint2_linear_4410_2830)" fill-opacity="0.38"/>
</g>
<path d="M50 127.049C28.4 110.249 7.66667 112.049 0 115.049V135.049H390C370.5 121.049 353.5 132.549 350.5 134.049C331.5 97.5493 294.5 117.549 292.5 119.549C259.5 75.5493 217 99.0493 215 101.049C177 81.5493 153.5 115.049 153 117.549C117.5 97.5493 99 130.049 97 131.049C77 105.049 52.5 125.549 50 127.049Z" fill="white"/>
<path d="M110.5 28L112.526 33.4743L118 35.5L112.526 37.5257L110.5 43L108.474 37.5257L103 35.5L108.474 33.4743L110.5 28Z" fill="white"/>
<g filter="url(#filter3_f_4410_2830)">
<path d="M22 58L23.3505 61.6495L27 63L23.3505 64.3505L22 68L20.6495 64.3505L17 63L20.6495 61.6495L22 58Z" fill="white"/>
</g>
<g filter="url(#filter4_f_4410_2830)">
<path d="M122.5 89L123.715 92.2846L127 93.5L123.715 94.7154L122.5 98L121.285 94.7154L118 93.5L121.285 92.2846L122.5 89Z" fill="white"/>
</g>
<g filter="url(#filter5_f_4410_2830)">
<path d="M122.5 89L123.715 92.2846L127 93.5L123.715 94.7154L122.5 98L121.285 94.7154L118 93.5L121.285 92.2846L122.5 89Z" fill="white"/>
</g>
<g filter="url(#filter6_f_4410_2830)">
<path d="M375.5 69L376.715 72.2846L380 73.5L376.715 74.7154L375.5 78L374.285 74.7154L371 73.5L374.285 72.2846L375.5 69Z" fill="white"/>
</g>
<defs>
<filter id="filter0_d_4410_2830" x="48" y="18" width="106" height="125" filterUnits="userSpaceOnUse" color-interpolation-filters="sRGB">
<feFlood flood-opacity="0" result="BackgroundImageFix"/>
<feColorMatrix in="SourceAlpha" type="matrix" values="0 0 0 0 0 0 0 0 0 0 0 0 0 0 0 0 0 0 127 0" result="hardAlpha"/>
<feOffset dy="4"/>
<feGaussianBlur stdDeviation="2"/>
<feComposite in2="hardAlpha" operator="out"/>
<feColorMatrix type="matrix" values="0 0 0 0 0.194359 0 0 0 0 0.69289 0 0 0 0 0.932194 0 0 0 1 0"/>
<feBlend mode="normal" in2="BackgroundImageFix" result="effect1_dropShadow_4410_2830"/>
<feBlend mode="normal" in="SourceGraphic" in2="effect1_dropShadow_4410_2830" result="shape"/>
</filter>
<filter id="filter1_i_4410_2830" x="81.1074" y="18.973" width="59.356" height="105.763" filterUnits="userSpaceOnUse" color-interpolation-filters="sRGB">
<feFlood flood-opacity="0" result="BackgroundImageFix"/>
<feBlend mode="normal" in="SourceGraphic" in2="BackgroundImageFix" result="shape"/>
<feColorMatrix in="SourceAlpha" type="matrix" values="0 0 0 0 0 0 0 0 0 0 0 0 0 0 0 0 0 0 127 0" result="hardAlpha"/>
<feOffset dy="-3"/>
<feGaussianBlur stdDeviation="0.45"/>
<feComposite in2="hardAlpha" operator="arithmetic" k2="-1" k3="1"/>
<feColorMatrix type="matrix" values="0 0 0 0 0.666667 0 0 0 0 0.847059 0 0 0 0 1 0 0 0 0.09 0"/>
<feBlend mode="normal" in2="shape" result="effect1_innerShadow_4410_2830"/>
</filter>
<filter id="filter2_i_4410_2830" x="0" y="102.6" width="275" height="32.4" filterUnits="userSpaceOnUse" color-interpolation-filters="sRGB">
<feFlood flood-opacity="0" result="BackgroundImageFix"/>
<feBlend mode="normal" in="SourceGraphic" in2="BackgroundImageFix" result="shape"/>
<feColorMatrix in="SourceAlpha" type="matrix" values="0 0 0 0 0 0 0 0 0 0 0 0 0 0 0 0 0 0 127 0" result="hardAlpha"/>
<feOffset dy="-2"/>
<feGaussianBlur stdDeviation="0.2"/>
<feComposite in2="hardAlpha" operator="arithmetic" k2="-1" k3="1"/>
<feColorMatrix type="matrix" values="0 0 0 0 0.898039 0 0 0 0 0.972549 0 0 0 0 1 0 0 0 1 0"/>
<feBlend mode="normal" in2="shape" result="effect1_innerShadow_4410_2830"/>
</filter>
<filter id="filter3_f_4410_2830" x="16" y="57" width="12" height="12" filterUnits="userSpaceOnUse" color-interpolation-filters="sRGB">
<feFlood flood-opacity="0" result="BackgroundImageFix"/>
<feBlend mode="normal" in="SourceGraphic" in2="BackgroundImageFix" result="shape"/>
<feGaussianBlur stdDeviation="0.5" result="effect1_foregroundBlur_4410_2830"/>
</filter>
<filter id="filter4_f_4410_2830" x="116.6" y="87.6" width="11.8" height="11.8" filterUnits="userSpaceOnUse" color-interpolation-filters="sRGB">
<feFlood flood-opacity="0" result="BackgroundImageFix"/>
<feBlend mode="normal" in="SourceGraphic" in2="BackgroundImageFix" result="shape"/>
<feGaussianBlur stdDeviation="0.7" result="effect1_foregroundBlur_4410_2830"/>
</filter>
<filter id="filter5_f_4410_2830" x="116.6" y="87.6" width="11.8" height="11.8" filterUnits="userSpaceOnUse" color-interpolation-filters="sRGB">
<feFlood flood-opacity="0" result="BackgroundImageFix"/>
<feBlend mode="normal" in="SourceGraphic" in2="BackgroundImageFix" result="shape"/>
<feGaussianBlur stdDeviation="0.7" result="effect1_foregroundBlur_4410_2830"/>
</filter>
<filter id="filter6_f_4410_2830" x="369.6" y="67.6" width="11.8" height="11.8" filterUnits="userSpaceOnUse" color-interpolation-filters="sRGB">
<feFlood flood-opacity="0" result="BackgroundImageFix"/>
<feBlend mode="normal" in="SourceGraphic" in2="BackgroundImageFix" result="shape"/>
<feGaussianBlur stdDeviation="0.7" result="effect1_foregroundBlur_4410_2830"/>
</filter>
<linearGradient id="paint0_linear_4410_2830" x1="-5.12101e-06" y1="10" x2="386.5" y2="135" gradientUnits="userSpaceOnUse">
<stop stop-color="#74DBFE"/>
<stop offset="0.475" stop-color="#8BB7FF"/>
<stop offset="1" stop-color="#CB89FE"/>
</linearGradient>
<linearGradient id="paint1_linear_4410_2830" x1="349.5" y1="93" x2="349.5" y2="135" gradientUnits="userSpaceOnUse">
<stop stop-color="#EDF4FF"/>
<stop offset="1" stop-color="#E6F9FF"/>
</linearGradient>
<linearGradient id="paint2_linear_4410_2830" x1="75.5" y1="103" x2="75.5" y2="134.962" gradientUnits="userSpaceOnUse">
<stop stop-color="#EDF4FF"/>
<stop offset="1" stop-color="#E6F9FF"/>
</linearGradient>
</defs>
</svg>
