<svg width="13" height="13" viewBox="0 0 13 13" fill="none" xmlns="http://www.w3.org/2000/svg">
<rect x="0.5" y="0.5" width="12" height="12" rx="6" stroke="white" stroke-opacity="0.5"/>
<path fill-rule="evenodd" clip-rule="evenodd" d="M4.68681 3.97982C4.49154 3.78456 4.17496 3.78456 3.9797 3.97982C3.78444 4.17508 3.78444 4.49167 3.9797 4.68693L5.79265 6.49988L3.97984 8.31269C3.78457 8.50795 3.78457 8.82454 3.97984 9.0198C4.1751 9.21506 4.49168 9.21506 4.68694 9.0198L6.49976 7.20698L8.31257 9.0198C8.50783 9.21506 8.82441 9.21506 9.01968 9.0198C9.21494 8.82454 9.21494 8.50795 9.01968 8.31269L7.20686 6.49988L9.01981 4.68693C9.21508 4.49167 9.21508 4.17508 9.01981 3.97982C8.82455 3.78456 8.50797 3.78456 8.31271 3.97982L6.49976 5.79277L4.68681 3.97982Z" fill="white" fill-opacity="0.5"/>
</svg>
