<svg width="56" height="6" viewBox="0 0 56 6" fill="none" xmlns="http://www.w3.org/2000/svg">
<path fill-rule="evenodd" clip-rule="evenodd" d="M55.1248 5.40389L55.5403 5.12573C54.8102 4.03521 53.8713 3.09631 52.7808 2.36623L52.5026 2.78172L52.2244 3.1972C53.2063 3.85456 54.0519 4.70015 54.7093 5.68205L55.1248 5.40389ZM8.35374 0.681885H10.2973V1.18188V1.68188H8.35374C7.75139 1.68188 7.16382 1.74092 6.59619 1.85321L6.49916 1.36272L6.40212 0.872225C7.03332 0.747354 7.68589 0.681885 8.35374 0.681885ZM3.07574 2.78172L2.79758 2.36623C1.70707 3.09631 0.768167 4.03522 0.0380859 5.12573L0.45357 5.40389L0.869054 5.68205C1.52642 4.70016 2.37201 3.85456 3.3539 3.1972L3.07574 2.78172ZM14.1844 1.18188V0.681885H18.0715V1.18188V1.68188H14.1844V1.18188ZM21.9585 1.18188V0.681885H25.8456V1.18188V1.68188H21.9585V1.18188ZM29.7327 1.18188V0.681885H33.6198V1.18188V1.68188H29.7327V1.18188ZM37.5069 1.18188V0.681885H41.394V1.18188V1.68188H37.5069V1.18188ZM45.2811 1.18188V0.681885H47.2246C47.8925 0.681885 48.545 0.747354 49.1762 0.872225L49.0792 1.36272L48.9822 1.85321C48.4145 1.74092 47.827 1.68188 47.2246 1.68188H45.2811V1.18188Z" fill="white"/>
</svg>
