<svg width="40" height="40" viewBox="0 0 40 40" fill="none" xmlns="http://www.w3.org/2000/svg">
<rect width="40" height="40" rx="20" fill="url(#paint0_linear_6023_5396)"/>
<path fill-rule="evenodd" clip-rule="evenodd" d="M30.8774 19.2948C30.8521 19.2948 30.8316 19.2742 30.8316 19.2489C30.8316 13.3125 26.0191 8.5 20.0827 8.5C14.1462 8.5 9.33374 13.3125 9.33374 19.2489C9.33374 19.2742 9.31327 19.2948 9.28798 19.2948H6.87968C6.85433 19.2948 6.83374 19.2743 6.83374 19.2489C6.83374 11.9317 12.7655 6 20.0827 6C27.3998 6 33.3316 11.9317 33.3316 19.2489C33.3316 19.2743 33.311 19.2948 33.2857 19.2948H30.8774Z" fill="white"/>
<path d="M33.3313 18.928C33.3313 26.7516 26.9891 33.0938 19.1655 33.0938" stroke="white"/>
<rect x="17.011" y="15.9023" width="3.02571" height="6.05141" rx="1.51285" fill="white"/>
<rect x="23.3374" y="15.9023" width="3.02571" height="6.05141" rx="1.51285" fill="white"/>
<path d="M31.406 17.461C33.2583 17.461 35.0735 19.7188 35.0735 22.5038C35.0735 25.2889 33.2583 27.5467 31.406 27.5467C29.5536 27.5467 29.8088 25.2889 29.8088 22.5038C29.8088 19.7188 29.5536 17.461 31.406 17.461Z" fill="white"/>
<path d="M8.66753 17.461C6.81517 17.461 5 19.7188 5 22.5038C5 25.2889 6.81517 27.5467 8.66753 27.5467C10.5199 27.5467 10.2647 25.2889 10.2647 22.5038C10.2647 19.7188 10.5199 17.461 8.66753 17.461Z" fill="white"/>
<ellipse cx="19.9449" cy="32.6354" rx="3.39246" ry="2.15467" fill="white"/>
<defs>
<linearGradient id="paint0_linear_6023_5396" x1="19.9907" y1="45.5074" x2="19.9907" y2="-0.936919" gradientUnits="userSpaceOnUse">
<stop stop-color="#0167CA"/>
<stop offset="1" stop-color="#38A8FA"/>
</linearGradient>
</defs>
</svg>
