<svg viewBox="0 0 192 58" fill="none" xmlns="http://www.w3.org/2000/svg">
<path d="M26.5353 26.9269C27.2759 23.3791 25.9386 20.8361 23.552 19.1749C21.3712 17.7189 18.6142 17.5138 15.6927 18.9494L3.5539 24.4045C0.508923 25.7785 -0.807822 29.3264 0.508923 32.3001C1.8874 35.3353 5.385 36.6477 8.42998 35.3353L10.0348 34.5969L7.42185 48.7475C6.68118 53.0131 9.4587 56.4995 13.2443 57.2377C17.2563 57.9761 21.1654 55.351 21.8237 51.352L26.5353 26.9269Z" fill="url(#paint0_linear_3735_2562)"/>
<path d="M136.957 18.129C130.27 17.1652 123.522 21.0616 120.95 26.5578L121.382 24.1584C122.473 19.298 120.436 18.006 116.958 18.006H112.453C108.173 18.006 107.206 20.3234 106.693 23.0099L101.445 52.0082C101.013 53.9769 101.302 57.3813 105.149 57.3813H111.404C115.108 57.3813 115.827 54.4896 116.342 51.7211L118.872 37.7962C119.469 34.6174 119.963 33.0794 121.053 31.9104C122.719 30.0236 126.073 29.1623 128.398 31.049C129.776 32.1975 130.291 34.1663 129.92 36.9348L127.39 52.0082C126.834 55.351 128.254 57.3813 131.032 57.3813H137.286C140.845 57.3813 141.566 54.6332 142.08 51.7211L145.742 32.8333C147.449 26.0245 145.043 19.298 136.957 18.129Z" fill="url(#paint1_linear_3735_2562)"/>
<path d="M181.873 18.129C175.187 17.1652 168.439 21.0616 165.867 26.5578L166.299 24.1584C167.389 19.298 165.353 18.006 161.875 18.006H157.37C153.09 18.006 152.123 20.3234 151.609 23.0099L146.362 52.0082C145.93 53.9769 146.219 57.3813 150.066 57.3813H156.321C160.024 57.3813 160.744 54.4896 161.258 51.7211L163.789 37.7962C164.386 34.6174 164.88 33.0794 165.97 31.9104C167.636 30.0236 170.99 29.1623 173.315 31.049C174.693 32.1975 175.207 34.1663 174.837 36.9348L172.307 52.0082C171.751 55.351 173.171 57.3813 175.949 57.3813H182.202C185.762 57.3813 186.482 54.6332 186.997 51.7211L190.658 32.8333C192.366 26.0245 189.959 19.298 181.873 18.129Z" fill="url(#paint2_linear_3735_2562)"/>
<path d="M96.858 14.2326C100.835 14.2326 104.059 11.0465 104.059 7.11627C104.059 3.18606 100.835 0 96.858 0C92.8809 0 89.6568 3.18606 89.6568 7.11627C89.6568 11.0465 92.8809 14.2326 96.858 14.2326Z" fill="url(#paint3_linear_3735_2562)"/>
<path d="M97.3107 51.6801C96.7962 54.7153 95.9321 57.3402 92.3727 57.3402H86.0564C83.0114 57.3402 81.9004 55.0844 82.497 52.1108L87.6817 22.9689C88.1961 19.8517 89.5743 17.965 93.4429 17.965H98.2366C102.31 17.965 103.318 19.9337 102.454 24.1174L97.3107 51.6801Z" fill="url(#paint4_linear_3735_2562)"/>
<path d="M27.8109 17.965C29.4157 19.8517 31.3085 22.1691 30.3415 27.8292L27.8726 41.1185L28.3046 51.7826C28.3869 55.6381 30.2797 57.2992 33.4687 57.2992H41.6161C44.1468 57.2992 45.2578 55.3305 46.2659 52.89L52.4382 37.7346L53.0966 52.2338C53.1788 55.4125 54.763 57.3812 57.7463 57.3812H66.9841C69.597 57.3812 70.6874 55.7816 71.8602 52.972L83.7109 23.9738C85.0071 21.0002 84.2252 18.0264 81.0157 18.0264H75.1109C72.9301 18.0264 71.4076 18.7648 70.5229 20.8566L62.5195 40.2571L61.7789 22.9279C61.6348 19.2364 59.886 18.006 57.7668 18.006H51.7386C49.3315 18.006 47.953 18.9493 47.2329 20.754L39.2295 40.3391L38.4889 22.4972C38.4066 19.1544 37.2544 18.006 34.5592 18.006H29.4157H27.8109V17.965Z" fill="url(#paint5_linear_3735_2562)"/>
<defs>
<linearGradient id="paint0_linear_3735_2562" x1="13.3635" y1="62.7855" x2="13.3635" y2="17.0492" gradientUnits="userSpaceOnUse">
<stop stop-color="#0167CA"/>
<stop offset="1" stop-color="#38A8FA"/>
</linearGradient>
<linearGradient id="paint1_linear_3735_2562" x1="123.798" y1="58.3849" x2="123.798" y2="16.9891" gradientUnits="userSpaceOnUse">
<stop stop-color="#C8C7C7"/>
<stop offset="0.0762789" stop-color="#D6D5D5"/>
<stop offset="0.216" stop-color="#E8E8E8"/>
<stop offset="0.3802" stop-color="#F5F5F5"/>
<stop offset="0.5898" stop-color="#FDFDFD"/>
<stop offset="1" stop-color="white"/>
</linearGradient>
<linearGradient id="paint2_linear_3735_2562" x1="168.715" y1="58.3849" x2="168.715" y2="16.9891" gradientUnits="userSpaceOnUse">
<stop stop-color="#C8C7C7"/>
<stop offset="0.0762789" stop-color="#D6D5D5"/>
<stop offset="0.216" stop-color="#E8E8E8"/>
<stop offset="0.3802" stop-color="#F5F5F5"/>
<stop offset="0.5898" stop-color="#FDFDFD"/>
<stop offset="1" stop-color="white"/>
</linearGradient>
<linearGradient id="paint3_linear_3735_2562" x1="96.8598" y1="17.855" x2="96.8598" y2="-2.47103" gradientUnits="userSpaceOnUse">
<stop stop-color="#0167CA"/>
<stop offset="1" stop-color="#38A8FA"/>
</linearGradient>
<linearGradient id="paint4_linear_3735_2562" x1="56.0892" y1="58.3827" x2="56.0892" y2="17.0766" gradientUnits="userSpaceOnUse">
<stop stop-color="#C8C7C7"/>
<stop offset="0.0762789" stop-color="#D6D5D5"/>
<stop offset="0.216" stop-color="#E8E8E8"/>
<stop offset="0.3802" stop-color="#F5F5F5"/>
<stop offset="0.5898" stop-color="#FDFDFD"/>
<stop offset="1" stop-color="white"/>
</linearGradient>
<linearGradient id="paint5_linear_3735_2562" x1="56.0892" y1="58.3827" x2="56.0892" y2="17.0766" gradientUnits="userSpaceOnUse">
<stop stop-color="#C8C7C7"/>
<stop offset="0.0762789" stop-color="#D6D5D5"/>
<stop offset="0.216" stop-color="#E8E8E8"/>
<stop offset="0.3802" stop-color="#F5F5F5"/>
<stop offset="0.5898" stop-color="#FDFDFD"/>
<stop offset="1" stop-color="white"/>
</linearGradient>
</defs>
</svg>
