<svg width="10" height="10" viewBox="0 0 10 10" fill="none" xmlns="http://www.w3.org/2000/svg">
<path d="M5 0.9375C4.19651 0.9375 3.41107 1.17576 2.743 1.62215C2.07492 2.06855 1.55422 2.70302 1.24674 3.44535C0.93926 4.18767 0.858809 5.00451 1.01556 5.79255C1.17231 6.5806 1.55923 7.30447 2.12738 7.87262C2.69553 8.44077 3.4194 8.82769 4.20745 8.98444C4.99549 9.14119 5.81233 9.06074 6.55465 8.75326C7.29698 8.44578 7.93145 7.92508 8.37785 7.257C8.82424 6.58893 9.0625 5.80349 9.0625 5C9.06128 3.92293 8.63288 2.89033 7.87128 2.12872C7.10967 1.36712 6.07707 0.938719 5 0.9375V0.9375ZM5.46875 6.875H5.3125V7.1875C5.3125 7.27038 5.27958 7.34987 5.22097 7.40847C5.16237 7.46708 5.08288 7.5 5 7.5C4.91712 7.5 4.83764 7.46708 4.77903 7.40847C4.72043 7.34987 4.6875 7.27038 4.6875 7.1875V6.875H4.0625C3.97962 6.875 3.90014 6.84208 3.84153 6.78347C3.78293 6.72487 3.75 6.64538 3.75 6.5625C3.75 6.47962 3.78293 6.40013 3.84153 6.34153C3.90014 6.28292 3.97962 6.25 4.0625 6.25H5.46875C5.59307 6.25 5.7123 6.20061 5.80021 6.11271C5.88812 6.0248 5.9375 5.90557 5.9375 5.78125C5.9375 5.65693 5.88812 5.5377 5.80021 5.44979C5.7123 5.36189 5.59307 5.3125 5.46875 5.3125H4.53125C4.24117 5.3125 3.96297 5.19727 3.75785 4.99215C3.55274 4.78703 3.4375 4.50883 3.4375 4.21875C3.4375 3.92867 3.55274 3.65047 3.75785 3.44535C3.96297 3.24023 4.24117 3.125 4.53125 3.125H4.6875V2.8125C4.6875 2.72962 4.72043 2.65013 4.77903 2.59153C4.83764 2.53292 4.91712 2.5 5 2.5C5.08288 2.5 5.16237 2.53292 5.22097 2.59153C5.27958 2.65013 5.3125 2.72962 5.3125 2.8125V3.125H5.9375C6.02038 3.125 6.09987 3.15792 6.15847 3.21653C6.21708 3.27513 6.25 3.35462 6.25 3.4375C6.25 3.52038 6.21708 3.59987 6.15847 3.65847C6.09987 3.71708 6.02038 3.75 5.9375 3.75H4.53125C4.40693 3.75 4.2877 3.79939 4.1998 3.88729C4.11189 3.9752 4.0625 4.09443 4.0625 4.21875C4.0625 4.34307 4.11189 4.4623 4.1998 4.55021C4.2877 4.63811 4.40693 4.6875 4.53125 4.6875H5.46875C5.75883 4.6875 6.03703 4.80273 6.24215 5.00785C6.44727 5.21297 6.5625 5.49117 6.5625 5.78125C6.5625 6.07133 6.44727 6.34953 6.24215 6.55465C6.03703 6.75977 5.75883 6.875 5.46875 6.875V6.875Z" fill="#DF8644"/>
</svg>
