<svg width="20" height="21" viewBox="0 0 20 21" fill="none" xmlns="http://www.w3.org/2000/svg">
<path d="M14.9609 18.9966H5.07031C3.4082 18.9966 2.06055 17.6489 2.06055 15.9868V7.15674C2.06055 5.49463 3.4082 4.14697 5.07031 4.14697H14.9609C16.623 4.14697 17.9707 5.49463 17.9707 7.15674V15.9868C17.9688 17.6489 16.623 18.9966 14.9609 18.9966Z" fill="#83A4FF"/>
<path d="M14.9609 18.4653H5.07031C3.4082 18.4653 2.06055 17.1177 2.06055 15.4556V6.62744C2.06055 4.96533 3.4082 3.61768 5.07031 3.61768H14.9609C16.623 3.61768 17.9707 4.96533 17.9707 6.62744V15.4575C17.9688 17.1177 16.623 18.4653 14.9609 18.4653Z" fill="#5B79FB"/>
<path d="M14.9609 17.936H5.07031C3.4082 17.936 2.06055 16.5884 2.06055 14.9263V6.09619C2.06055 4.43408 3.4082 3.08643 5.07031 3.08643H14.9609C16.623 3.08643 17.9707 4.43408 17.9707 6.09619V14.9263C17.9688 16.5884 16.623 17.936 14.9609 17.936Z" fill="#83A4FF"/>
<path d="M14.4336 7.68408H5.5957C5.35352 7.68408 5.1543 7.48486 5.1543 7.24268C5.1543 7.00049 5.35352 6.80127 5.5957 6.80127H14.4336C14.6758 6.80127 14.875 7.00049 14.875 7.24268C14.877 7.48486 14.6777 7.68408 14.4336 7.68408Z" fill="#5B79FB"/>
<path d="M10.2227 16.1685H6.0957C5.85352 16.1685 5.6543 15.9692 5.6543 15.7271C5.6543 15.4849 5.85352 15.2856 6.0957 15.2856H10.2227C10.4648 15.2856 10.6641 15.4849 10.6641 15.7271C10.6641 15.9692 10.4648 16.1685 10.2227 16.1685ZM13.3887 16.1685H11.7676C11.5254 16.1685 11.3262 15.9692 11.3262 15.7271C11.3262 15.4849 11.5254 15.2856 11.7676 15.2856H13.3887C13.6309 15.2856 13.8301 15.4849 13.8301 15.7271C13.8301 15.9692 13.6328 16.1685 13.3887 16.1685Z" fill="#E5ECFF"/>
<path d="M6.82227 13.1118C7.89062 12.1411 8.60742 11.3657 8.60742 10.7466C8.60742 10.356 8.38867 10.1431 8.05078 10.1431C7.75781 10.1431 7.52734 10.3384 7.32812 10.5571L6.77148 10.0044C7.19141 9.56299 7.58203 9.34424 8.18945 9.34424C9.01562 9.34424 9.58984 9.87158 9.58984 10.688C9.58984 11.4224 8.95898 12.2329 8.30273 12.8931C8.51562 12.8638 8.80859 12.8364 8.99805 12.8364H9.78516V13.6978H6.82227V13.1118ZM10.2148 13.1802L10.6855 12.5376C10.9434 12.7837 11.2422 12.9517 11.5762 12.9517C11.9727 12.9517 12.2305 12.7856 12.2305 12.4634C12.2305 12.0962 12.0352 11.8774 11.1387 11.8774V11.1587C11.8672 11.1587 12.0977 10.9341 12.0977 10.5962C12.0977 10.3032 11.9258 10.1431 11.6094 10.1431C11.3223 10.1431 11.1035 10.2759 10.8457 10.4985L10.3281 9.87353C10.7246 9.53955 11.1484 9.34619 11.6543 9.34619C12.5391 9.34619 13.1191 9.76025 13.1191 10.5239C13.1191 10.9497 12.8887 11.2817 12.4297 11.4653V11.4946C12.9062 11.6372 13.2559 11.9829 13.2559 12.5337C13.2559 13.3325 12.5273 13.7798 11.6758 13.7798C11.002 13.7778 10.5254 13.5435 10.2148 13.1802Z" fill="white"/>
<path d="M5.94922 5.03174C5.94922 5.19435 5.98125 5.35537 6.04348 5.50561C6.10571 5.65584 6.19692 5.79235 6.3119 5.90734C6.42689 6.02232 6.5634 6.11353 6.71363 6.17576C6.86387 6.23799 7.02489 6.27002 7.1875 6.27002C7.35011 6.27002 7.51113 6.23799 7.66137 6.17576C7.8116 6.11353 7.94811 6.02232 8.0631 5.90734C8.17808 5.79235 8.26929 5.65584 8.33152 5.50561C8.39375 5.35537 8.42578 5.19435 8.42578 5.03174C8.42578 4.86912 8.39375 4.7081 8.33152 4.55787C8.26929 4.40763 8.17808 4.27113 8.0631 4.15614C7.94811 4.04116 7.8116 3.94994 7.66137 3.88772C7.51113 3.82549 7.35011 3.79346 7.1875 3.79346C7.02489 3.79346 6.86387 3.82549 6.71363 3.88772C6.5634 3.94994 6.42689 4.04116 6.3119 4.15614C6.19692 4.27113 6.10571 4.40763 6.04348 4.55787C5.98125 4.7081 5.94922 4.86912 5.94922 5.03174Z" fill="#5B79FB"/>
<path d="M11.4277 5.03174C11.4277 5.19435 11.4598 5.35537 11.522 5.50561C11.5842 5.65584 11.6754 5.79235 11.7904 5.90734C11.9054 6.02232 12.0419 6.11353 12.1921 6.17576C12.3424 6.23799 12.5034 6.27002 12.666 6.27002C12.8286 6.27002 12.9897 6.23799 13.1399 6.17576C13.2901 6.11353 13.4266 6.02232 13.5416 5.90734C13.6566 5.79235 13.7478 5.65584 13.81 5.50561C13.8723 5.35537 13.9043 5.19435 13.9043 5.03174C13.9043 4.86912 13.8723 4.7081 13.81 4.55787C13.7478 4.40763 13.6566 4.27113 13.5416 4.15614C13.4266 4.04116 13.2901 3.94994 13.1399 3.88772C12.9897 3.82549 12.8286 3.79346 12.666 3.79346C12.5034 3.79346 12.3424 3.82549 12.1921 3.88772C12.0419 3.94994 11.9054 4.04116 11.7904 4.15614C11.6754 4.27113 11.5842 4.40763 11.522 4.55787C11.4598 4.7081 11.4277 4.86912 11.4277 5.03174Z" fill="#5B79FB"/>
<path d="M7.1875 5.9165C6.60156 5.9165 6.12695 5.44189 6.12695 4.85596V2.55713C6.12695 1.97119 6.60156 1.49658 7.1875 1.49658C7.77344 1.49658 8.24805 1.97119 8.24805 2.55713V4.85596C8.24805 5.43994 7.77344 5.9165 7.1875 5.9165Z" fill="#FF7E71"/>
<path d="M7.1875 5.20947C6.60156 5.20947 6.12695 4.73486 6.12695 4.14893V4.85596C6.12695 5.44189 6.60156 5.9165 7.1875 5.9165C7.77344 5.9165 8.24805 5.44189 8.24805 4.85596V4.14893C8.24805 4.73291 7.77344 5.20947 7.1875 5.20947Z" fill="#F7554D"/>
<path d="M12.666 5.9165C12.0801 5.9165 11.6055 5.44189 11.6055 4.85596V2.55713C11.6055 1.97119 12.0801 1.49658 12.666 1.49658C13.252 1.49658 13.7266 1.97119 13.7266 2.55713V4.85596C13.7266 5.43994 13.252 5.9165 12.666 5.9165Z" fill="#FF7E71"/>
<path d="M12.666 5.20947C12.0801 5.20947 11.6055 4.73486 11.6055 4.14893V4.85596C11.6055 5.44189 12.0801 5.9165 12.666 5.9165C13.252 5.9165 13.7266 5.44189 13.7266 4.85596V4.14893C13.7266 4.73291 13.252 5.20947 12.666 5.20947Z" fill="#F7554D"/>
</svg>
