<svg width="17" height="17" viewBox="0 0 17 17" fill="none" xmlns="http://www.w3.org/2000/svg">
<g clip-path="url(#clip0_6947_7781)">
<path d="M10.761 8.6202C10.5773 8.45256 10.3686 8.32416 10.135 8.235C9.90139 8.14583 9.58931 8.04775 9.19519 7.94075V5.96126C9.59466 6.08966 9.84611 6.35359 9.95132 6.75127C10.0441 7.08832 10.2438 7.25595 10.5559 7.25595C10.7199 7.25595 10.8608 7.19888 10.9767 7.08297C11.0909 6.96705 11.1497 6.82974 11.1497 6.67102C11.1497 6.52835 11.1105 6.37142 11.0338 6.20022C10.9553 6.02902 10.8466 5.86317 10.7039 5.70089C10.5238 5.48868 10.3116 5.32996 10.069 5.22474C9.82649 5.11953 9.53581 5.04998 9.19519 5.01609V4.30276C9.19519 4.0424 9.09354 3.91222 8.89024 3.91222C8.69051 3.91222 8.59064 4.04596 8.59064 4.31168V5.01431C7.93438 5.07138 7.43148 5.27468 7.08552 5.62242C6.73777 5.97196 6.56479 6.41779 6.56479 6.96349C6.56479 7.38257 6.65395 7.72497 6.8305 7.99068C7.00883 8.2564 7.24067 8.46326 7.526 8.60593C7.81133 8.75038 8.16621 8.88056 8.59064 8.99826V11.2096C8.37843 11.149 8.20723 11.0616 8.07883 10.9492C7.95043 10.8351 7.85413 10.7085 7.79171 10.5712C7.72751 10.4338 7.6544 10.2341 7.5688 9.97374C7.53135 9.85426 7.4618 9.75974 7.36372 9.69376C7.26563 9.62778 7.14437 9.59389 7.0017 9.59389C6.82337 9.59389 6.67535 9.65452 6.55765 9.77757C6.43817 9.90062 6.37932 10.0362 6.37932 10.1895C6.37932 10.3964 6.4239 10.6068 6.51307 10.8208C6.60224 11.0348 6.73955 11.2399 6.92502 11.4396C7.11048 11.6376 7.34232 11.8034 7.61873 11.9372C7.89693 12.0709 8.2215 12.1565 8.59243 12.1975V13.0839C8.59243 13.2301 8.61561 13.3371 8.66198 13.4066C8.70834 13.4762 8.78859 13.5119 8.90273 13.5119C9.02578 13.5119 9.10603 13.4691 9.14348 13.3835C9.17914 13.2979 9.19876 13.1623 9.19876 12.9751V12.1886C9.65172 12.1512 10.0441 12.0317 10.374 11.832C10.7039 11.6322 10.9536 11.3737 11.123 11.058C11.2924 10.7424 11.378 10.4035 11.378 10.0415C11.378 9.75261 11.3245 9.48689 11.2193 9.24436C11.1087 9.00183 10.9571 8.79318 10.761 8.6202ZM8.59243 7.76242C8.3071 7.6572 8.09488 7.54128 7.954 7.41288C7.8149 7.28448 7.74535 7.09545 7.74535 6.844C7.74535 6.58185 7.82025 6.3839 7.96826 6.25372C8.11806 6.12354 8.32493 6.01832 8.59243 5.93986V7.76242ZM9.93884 10.8743C9.76407 11.0687 9.51619 11.1971 9.19698 11.2595V9.17659C9.52689 9.28181 9.77656 9.40843 9.94597 9.56001C10.1154 9.71159 10.201 9.92381 10.201 10.2002C10.1992 10.4552 10.1118 10.6817 9.93884 10.8743ZM8.87776 0.711145C4.45868 0.711145 0.875977 4.29206 0.875977 8.71115C0.875977 13.1302 4.45868 16.7111 8.87776 16.7111C13.2968 16.7111 16.8778 13.1284 16.8778 8.71115C16.8778 4.29385 13.2951 0.711145 8.87776 0.711145ZM8.87776 15.1115C5.34856 15.1115 2.4774 12.2403 2.4774 8.71115C2.4774 5.18194 5.34856 2.31079 8.87776 2.31079C12.407 2.31079 15.2781 5.18194 15.2781 8.71115C15.2781 12.2403 12.407 15.1115 8.87776 15.1115Z" fill="white" fill-opacity="0.4"/>
</g>
<defs>
<clipPath id="clip0_6947_7781">
<rect width="16" height="16" fill="white" transform="translate(0.876953 0.710938)"/>
</clipPath>
</defs>
</svg>


