<svg width="23" height="23" viewBox="0 0 23 23" fill="none" xmlns="http://www.w3.org/2000/svg">
<path d="M11.5 2.56242C9.73233 2.56242 8.00436 3.0866 6.5346 4.06866C5.06483 5.05073 3.91929 6.44658 3.24283 8.07969C2.56637 9.71281 2.38938 11.5098 2.73424 13.2435C3.07909 14.9773 3.93031 16.5698 5.18024 17.8197C6.43017 19.0696 8.02268 19.9208 9.75638 20.2657C11.4901 20.6105 13.2871 20.4336 14.9202 19.7571C16.5534 19.0806 17.9492 17.9351 18.9313 16.4653C19.9133 14.9956 20.4375 13.2676 20.4375 11.4999C20.4348 9.13038 19.4923 6.85864 17.8168 5.18312C16.1413 3.50759 13.8696 2.56511 11.5 2.56242ZM12.5313 15.6249H12.1875V16.3124C12.1875 16.4948 12.1151 16.6696 11.9861 16.7986C11.8572 16.9275 11.6823 16.9999 11.5 16.9999C11.3177 16.9999 11.1428 16.9275 11.0139 16.7986C10.8849 16.6696 10.8125 16.4948 10.8125 16.3124V15.6249H9.4375C9.25517 15.6249 9.0803 15.5525 8.95137 15.4236C8.82244 15.2946 8.75 15.1198 8.75 14.9374C8.75 14.7551 8.82244 14.5802 8.95137 14.4513C9.0803 14.3224 9.25517 14.2499 9.4375 14.2499H12.5313C12.8048 14.2499 13.0671 14.1413 13.2605 13.9479C13.4539 13.7545 13.5625 13.4922 13.5625 13.2187C13.5625 12.9452 13.4539 12.6829 13.2605 12.4895C13.0671 12.2961 12.8048 12.1874 12.5313 12.1874H10.4688C9.83058 12.1874 9.21854 11.9339 8.76728 11.4826C8.31602 11.0314 8.0625 10.4194 8.0625 9.78117C8.0625 9.143 8.31602 8.53096 8.76728 8.0797C9.21854 7.62844 9.83058 7.37492 10.4688 7.37492H10.8125V6.68742C10.8125 6.50509 10.8849 6.33022 11.0139 6.20129C11.1428 6.07236 11.3177 5.99992 11.5 5.99992C11.6823 5.99992 11.8572 6.07236 11.9861 6.20129C12.1151 6.33022 12.1875 6.50509 12.1875 6.68742V7.37492H13.5625C13.7448 7.37492 13.9197 7.44736 14.0486 7.57629C14.1776 7.70522 14.25 7.88009 14.25 8.06242C14.25 8.24476 14.1776 8.41963 14.0486 8.54856C13.9197 8.67749 13.7448 8.74992 13.5625 8.74992H10.4688C10.1952 8.74992 9.93295 8.85857 9.73955 9.05197C9.54615 9.24537 9.4375 9.50767 9.4375 9.78117C9.4375 10.0547 9.54615 10.317 9.73955 10.5104C9.93295 10.7038 10.1952 10.8124 10.4688 10.8124H12.5313C13.1694 10.8124 13.7815 11.0659 14.2327 11.5172C14.684 11.9685 14.9375 12.5805 14.9375 13.2187C14.9375 13.8569 14.684 14.4689 14.2327 14.9202C13.7815 15.3714 13.1694 15.6249 12.5313 15.6249Z" fill="#2D2D2D" fill-opacity="0.6"/>
</svg>




