<svg viewBox="0 0 387 262" fill="none" xmlns="http://www.w3.org/2000/svg">
<path fill-rule="evenodd" clip-rule="evenodd" d="M14.9167 64.6321C124.146 42.1833 196.913 27.5435 233.217 20.7127C336.875 1.20914 358.128 -1.49282 371.081 1.006C373.93 1.55559 380.128 3.59965 383.534 7.80373C386.41 11.3536 386.562 15.3601 386.455 18.1271C386.347 20.8941 385.631 27.0976 384.175 31.7554C367.55 84.9181 317.395 211.857 293.192 270.221C282.951 294.917 271.659 301.537 262.313 300.444C242.001 298.069 230.039 279.871 213.413 263.144C187.397 236.97 172.94 221.043 147.708 195.535C118.549 166.055 143.101 158.425 166.642 142.451C172.803 138.271 277.461 76.965 280.691 70.0802C281.095 69.2191 282.005 65.8838 280.376 63.6768C278.746 61.4698 275.656 61.4541 273.417 61.4877C270.243 61.5353 215.266 83.2303 108.484 126.573C92.8047 133.083 79.434 135.044 68.3721 132.457C56.1773 129.604 34.0191 117.964 17.7035 108.568C-2.30827 97.0445 -18.6058 89.7441 -14.6129 78.1962C-12.5331 72.1813 -2.68992 67.6599 14.9167 64.6321Z" fill="currentColor" fill-opacity="0.02"/>
</svg>
