<svg width="23" height="23" viewBox="0 0 23 23" fill="none" xmlns="http://www.w3.org/2000/svg">
<path fill-rule="evenodd" clip-rule="evenodd" d="M19.75 11.5C19.75 16.0564 16.0564 19.75 11.5 19.75C6.94365 19.75 3.25 16.0564 3.25 11.5C3.25 6.94365 6.94365 3.25 11.5 3.25C16.0564 3.25 19.75 6.94365 19.75 11.5ZM12.1909 6.54987C12.191 6.17018 11.8832 5.86234 11.5035 5.8623C11.1238 5.86227 10.816 6.17004 10.8159 6.54974L10.8154 11.5034C10.8154 11.6857 10.8878 11.8606 11.0168 11.9896L14.5145 15.4873C14.783 15.7558 15.2183 15.7558 15.4868 15.4873C15.7553 15.2188 15.7553 14.7835 15.4868 14.5151L12.1905 11.2187L12.1909 6.54987Z" fill="#2D2D2D" fill-opacity="0.6"/>
</svg>



