<svg width="17" height="17" viewBox="0 0 17 17" fill="none" xmlns="http://www.w3.org/2000/svg">
<g clip-path="url(#clip0_6947_7779)">
<path d="M12.0016 5.0249C12.3766 5.0249 12.7016 4.7249 12.7016 4.3249V1.1999C12.7016 0.799901 12.3766 0.499901 12.0016 0.499901C11.6266 0.499901 11.3016 0.799901 11.3016 1.1999V4.3249C11.3016 4.6999 11.6016 5.0249 12.0016 5.0249ZM10.6266 2.2499H7.12656V3.2999H10.6266V2.2499ZM14.7016 2.2499H13.4016V3.2749H14.7516C15.1516 3.2749 15.4766 3.5999 15.4766 3.9999V6.3999H2.25156V3.9999C2.25156 3.5999 2.57656 3.2749 2.97656 3.2749H4.32656V2.2499H3.05156C2.05156 2.2499 1.22656 3.0749 1.22656 4.0749V14.6749C1.22656 15.6749 2.02656 16.4999 3.02656 16.4999H14.7016C15.7016 16.4999 16.5266 15.6749 16.5266 14.6749V4.0749C16.5266 3.0499 15.7016 2.2499 14.7016 2.2499ZM15.4766 14.7249C15.4766 15.1249 15.1516 15.4499 14.7516 15.4499H3.00156C2.60156 15.4499 2.27656 15.1249 2.27656 14.7249V7.4499H15.5016V14.7249H15.4766ZM5.02656 10.5749C5.60156 10.5749 6.07656 10.0999 6.07656 9.5249C6.07656 8.9499 5.60156 8.4749 5.02656 8.4749C4.45156 8.4749 3.97656 8.9499 3.97656 9.5249C3.97656 10.1249 4.45156 10.5749 5.02656 10.5749ZM8.85156 10.5749C9.42656 10.5749 9.90156 10.0999 9.90156 9.5249C9.90156 8.9499 9.42656 8.4749 8.85156 8.4749C8.27656 8.4749 7.80156 8.9499 7.80156 9.5249C7.82656 10.1249 8.27656 10.5749 8.85156 10.5749ZM5.00156 14.4249C5.57656 14.4249 6.05156 13.9499 6.05156 13.3749C6.05156 12.7999 5.57656 12.3249 5.00156 12.3249C4.42656 12.3249 3.95156 12.7999 3.95156 13.3749C3.97656 13.9499 4.42656 14.4249 5.00156 14.4249ZM8.85156 14.4249C9.42656 14.4249 9.90156 13.9499 9.90156 13.3749C9.90156 12.7999 9.42656 12.3249 8.85156 12.3249C8.27656 12.3249 7.80156 12.7999 7.80156 13.3749C7.82656 13.9499 8.27656 14.4249 8.85156 14.4249ZM12.6766 10.5749C13.2516 10.5749 13.7266 10.0999 13.7266 9.5249C13.7266 8.9499 13.2516 8.4749 12.6766 8.4749C12.1016 8.4749 11.6266 8.9499 11.6266 9.5249C11.6516 10.1249 12.1016 10.5749 12.6766 10.5749ZM5.72656 5.0249C6.10156 5.0249 6.42656 4.7249 6.42656 4.3249V1.1999C6.42656 0.824901 6.10156 0.499901 5.72656 0.499901C5.35156 0.499901 5.02656 0.799901 5.02656 1.1999V4.3249C5.05156 4.6999 5.35156 5.0249 5.72656 5.0249Z" fill="white" fill-opacity="0.4"/>
</g>
<defs>
<clipPath id="clip0_6947_7779">
<rect width="16" height="16" fill="white" transform="translate(0.876953 0.5)"/>
</clipPath>
</defs>
</svg>

