<svg width="33" height="33" viewBox="0 0 33 33" fill="none" xmlns="http://www.w3.org/2000/svg">
<path d="M16.4434 19.701C20.3094 19.701 23.4434 16.567 23.4434 12.701C23.4434 8.83503 20.3094 5.70103 16.4434 5.70103C12.5774 5.70103 9.44336 8.83503 9.44336 12.701C9.44336 16.567 12.5774 19.701 16.4434 19.701Z" fill="url(#paint0_linear_2664_6473)"/>
<path d="M16.4434 1.70103C14.1784 1.70016 11.9684 2.39877 10.1154 3.70139C8.26245 5.004 6.85698 6.84705 6.09108 8.97863C5.32518 11.1102 5.23623 13.4263 5.83638 15.6103C6.43654 17.7944 7.69651 19.7398 9.44409 21.1807V30.701C9.44407 30.8715 9.48764 31.0391 9.57064 31.188C9.65365 31.3369 9.77334 31.4621 9.91835 31.5517C10.0634 31.6414 10.2289 31.6924 10.3992 31.7001C10.5695 31.7077 10.7389 31.6717 10.8914 31.5954L16.4432 28.8191L21.9969 31.5955C22.1494 31.6717 22.3188 31.7077 22.4891 31.7C22.6594 31.6924 22.8249 31.6413 22.9699 31.5517C23.1149 31.462 23.2345 31.3369 23.3175 31.188C23.4005 31.0391 23.4441 30.8715 23.4441 30.701V21.1795C25.1913 19.7384 26.4509 17.7929 27.0507 15.609C27.6505 13.425 27.5613 11.1091 26.7953 8.97773C26.0293 6.84637 24.6238 5.00355 22.7709 3.70111C20.9181 2.39867 18.7082 1.70016 16.4434 1.70103ZM16.4434 21.701C14.6633 21.701 12.9233 21.1732 11.4432 20.1843C9.96319 19.1953 8.80963 17.7897 8.12844 16.1452C7.44726 14.5006 7.26903 12.691 7.61629 10.9452C7.96356 9.19939 8.82073 7.59574 10.0794 6.33707C11.3381 5.07839 12.9417 4.22123 14.6875 3.87396C16.4334 3.52669 18.243 3.70492 19.8875 4.38611C21.532 5.0673 22.9377 6.22085 23.9266 7.7009C24.9155 9.18094 25.4434 10.921 25.4434 12.701C25.4407 15.0872 24.4916 17.3748 22.8044 19.062C21.1171 20.7493 18.8295 21.6983 16.4434 21.701Z" fill="url(#paint0_linear_2664_6473)" fill-opacity="1"/>
  <defs>
    <linearGradient id="paint0_linear_2664_6473" x1="30.4443" y1="26.1078" x2="8.16117" y2="-2.82798" gradientUnits="userSpaceOnUse">
      <stop stop-color="#7041F3"/>
      <stop offset="1" stop-color="#F5C84C"/>
    </linearGradient>
  </defs>
</svg>
