<svg width="12" height="13" viewBox="0 0 12 13" fill="none" xmlns="http://www.w3.org/2000/svg">
<rect y="0.728516" width="12" height="12" rx="6" fill="#181816"/>
<path d="M6.62217 10.377V9.97707C6.96565 9.9386 7.29394 9.86023 7.56046 9.74056C7.95441 9.56371 8.25941 9.3039 8.47897 8.96148C8.69579 8.62768 8.81004 8.23766 8.80762 7.83963C8.80762 7.4944 8.72467 7.18234 8.55981 6.90347C8.39531 6.62424 8.13232 6.39055 7.77049 6.2024C7.40867 6.01425 6.80997 5.82751 5.97441 5.64359C5.63694 5.57158 5.42266 5.49427 5.333 5.41061C5.24016 5.32977 5.19356 5.2394 5.19356 5.13845C5.19356 5.00042 5.25004 4.88322 5.36265 4.78685C5.47526 4.69048 5.64259 4.64212 5.86498 4.64212C6.13503 4.64212 6.34683 4.70707 6.50003 4.83627C6.65359 4.96583 6.7542 5.17304 6.80185 5.45756L8.60394 5.34954C8.52522 4.69366 8.28129 4.21534 7.86651 3.91493C7.55622 3.69007 7.13756 3.54922 6.62252 3.49274V3.07972H5.59246V3.48003C5.16321 3.5111 4.80844 3.58876 4.53133 3.71266C4.16138 3.87822 3.88498 4.1052 3.70036 4.39467C3.51609 4.68378 3.42466 4.99089 3.42466 5.31601C3.42466 5.81092 3.60469 6.21793 3.96511 6.53705C4.32235 6.85616 4.92069 7.11244 5.75908 7.30519C6.27129 7.42026 6.59746 7.5424 6.73831 7.67196C6.87881 7.80151 6.94941 7.94801 6.94941 8.11215C6.94941 8.28477 6.87563 8.43656 6.72807 8.56753C6.58052 8.69849 6.36977 8.7638 6.0969 8.7638C5.73119 8.7638 5.44984 8.63566 5.25252 8.37973C5.13144 8.22158 5.0513 7.99143 5.01177 7.68925L3.19238 7.80575C3.24569 8.44433 3.47337 8.97066 3.87862 9.38509C4.22033 9.73421 4.79079 9.93577 5.59211 9.99049V10.3777H6.62217V10.377Z" fill="currentColor"/>
</svg>
