<svg  viewBox="0 0 17 17" fill="none" xmlns="http://www.w3.org/2000/svg">
<g id="&#229;&#136;&#160;&#233;&#153;&#164;">
<path id="Union" fill-rule="evenodd" clip-rule="evenodd" d="M8.56343 3.37939C8.56327 3.37411 8.56319 3.36881 8.56319 3.36349C8.56319 3.21935 8.44668 3.1021 8.30366 3.1021H7.93267C7.78965 3.1021 7.67314 3.21935 7.67314 3.36349C7.67314 3.36881 7.67306 3.37411 7.6729 3.37939H8.56343ZM6.64648 3.37939C6.64632 3.37411 6.64624 3.36881 6.64624 3.36349C6.64624 2.65306 7.22336 2.0752 7.93267 2.0752H8.30366C9.01297 2.0752 9.59009 2.65306 9.59009 3.36349C9.59009 3.36881 9.59001 3.37411 9.58985 3.37939H13.3125C13.5961 3.37939 13.8259 3.60923 13.8259 3.89285C13.8259 4.17646 13.5961 4.4063 13.3125 4.4063H2.92361C2.64 4.4063 2.41016 4.17646 2.41016 3.89285C2.41016 3.60923 2.64 3.37939 2.92361 3.37939H6.64648ZM9.96816 11.5412C9.68455 11.5412 9.45471 11.3114 9.45471 11.0278V8.31842C9.45471 8.03481 9.68455 7.80497 9.96816 7.80497C10.2518 7.80497 10.4816 8.03481 10.4816 8.31842V11.0278C10.4816 11.3114 10.2516 11.5412 9.96816 11.5412ZM8.12832 11.5412C7.84471 11.5412 7.61487 11.3114 7.61487 11.0278V8.31842C7.61487 8.03481 7.84471 7.80497 8.12832 7.80497C8.41193 7.80497 8.64177 8.03481 8.64177 8.31842V11.0278C8.64177 11.3114 8.41193 11.5412 8.12832 11.5412ZM6.28867 11.5412C6.00506 11.5412 5.77522 11.3114 5.77522 11.0278V8.31842C5.77522 8.03481 6.00506 7.80497 6.28867 7.80497C6.57228 7.80497 6.80212 8.03481 6.80212 8.31842V11.0278C6.80212 11.3114 6.57228 11.5412 6.28867 11.5412ZM11.2246 14.0752H5.01223C4.16588 14.0752 3.47729 13.3867 3.47729 12.5403V6.13953C3.47729 5.66006 3.86733 5.27002 4.3468 5.27002H11.8902C12.3697 5.27002 12.7597 5.66006 12.7597 6.13953V12.5401C12.7596 13.3865 12.071 14.0752 11.2246 14.0752ZM4.50401 6.29711V12.5403C4.50401 12.8206 4.73198 13.0483 5.01205 13.0483H11.2246C11.5049 13.0483 11.7327 12.8204 11.7327 12.5403V6.29711H4.50401Z" fill="currentColor" />
</g>
</svg>
