<svg width="47" height="47" viewBox="0 0 47 47" fill="none" xmlns="http://www.w3.org/2000/svg">
<g clip-path="url(#clip0_645_5279)">
<g filter="url(#filter0_f_645_5279)">
<rect x="2" y="2" width="43" height="43" rx="21.5" stroke="#0977B7" stroke-opacity="0.58" stroke-width="2"/>
</g>
<g clip-path="url(#clip1_645_5279)">
<path d="M33.3143 29.8286C35.2857 29.8286 36.7428 29.1429 37 28.4571C37 27.6 35.2857 27 33.3143 27C31.2571 27 29.5428 27.6 29.5428 28.4571C29.8 29.1429 31.2571 29.8286 33.3143 29.8286ZM33.3143 35.4C33.0571 35.4 32.7143 35.4 32.4571 35.3143V37.2H33.3143C35.3714 37.2 37 36.6857 37 36V34.4571C36.1428 35.0571 34.8571 35.4 33.3143 35.4ZM33.3143 32.9143C33.0571 32.9143 32.7143 32.9143 32.4571 32.8286V34.7143C32.7143 34.7143 33.0571 34.8 33.3143 34.8C35.2857 34.8 36.7428 34.1143 37 33.4286V31.9714C36.1428 32.5714 34.8571 32.9143 33.3143 32.9143Z" fill="url(#paint0_linear_645_5279)"/>
<path d="M33.3143 30.4286C31.6857 30.4286 30.4 30 29.5428 29.4857V30.4286C31.2571 30.6 32.8 31.2 32.8857 32.3143H33.2286C35.2 32.3143 36.6571 31.6286 36.9143 30.9429V29.4857C36.1428 30 34.8571 30.4286 33.3143 30.4286Z" fill="url(#paint1_linear_645_5279)"/>
<path d="M28.6857 33.6857C30.6571 33.6857 32.1143 33 32.3714 32.3143C32.3714 31.5429 30.7429 30.8572 28.6857 30.8572C26.7143 30.9429 25 31.5429 25 32.3143C25.2571 33.0857 26.7143 33.6857 28.6857 33.6857Z" fill="url(#paint2_linear_645_5279)"/>
<path d="M28.6857 36.4286C30.6571 36.4286 32.1143 35.7429 32.3714 35.0571V33.5143C31.6 34.1143 30.3143 34.4571 28.6857 34.4571C27.0571 34.4571 25.8571 34.1143 25 33.5143V35.0571C25.2571 35.7429 26.7143 36.4286 28.6857 36.4286Z" fill="url(#paint3_linear_645_5279)"/>
<path d="M28.6857 37.2001C27.1429 37.2001 25.7714 36.8572 25 36.2572V37.8001C25 38.4858 26.7143 39.0001 28.6857 39.0001C30.6571 39.0001 32.3714 38.4858 32.3714 37.8001V36.2572C31.6 36.7715 30.3143 37.2001 28.6857 37.2001Z" fill="url(#paint4_linear_645_5279)"/>
</g>
<path d="M36.2845 15.8387C36.7746 15.3435 36.6208 14.5115 35.9861 14.2242L22.6241 8.17703C21.897 7.84798 21.0964 8.46131 21.2248 9.24897L21.7007 12.1682C21.7765 12.6334 21.5099 13.0883 21.0783 13.2776C13.052 16.7981 11.5288 23.811 11.3558 27.8213C11.3143 28.7822 12.5427 29.0774 13.1304 28.316C14.9199 25.9974 18.1098 22.8292 22.4598 22.2981C22.9603 22.237 23.4015 22.6016 23.4826 23.0992L23.9608 26.0325C24.0923 26.8392 25.0836 27.156 25.6586 26.575L36.2845 15.8387Z" fill="url(#paint5_linear_645_5279)"/>
</g>
<rect x="0.5" y="0.5" width="46" height="46" rx="23" stroke="url(#paint6_linear_645_5279)"/>
<defs>
<filter id="filter0_f_645_5279" x="-4.4" y="-4.4" width="55.8" height="55.8" filterUnits="userSpaceOnUse" color-interpolation-filters="sRGB">
<feFlood flood-opacity="0" result="BackgroundImageFix"/>
<feBlend mode="normal" in="SourceGraphic" in2="BackgroundImageFix" result="shape"/>
<feGaussianBlur stdDeviation="2.7" result="effect1_foregroundBlur_645_5279"/>
</filter>
<linearGradient id="paint0_linear_645_5279" x1="29.1285" y1="28.632" x2="36.1289" y2="29.0737" gradientUnits="userSpaceOnUse">
<stop stop-color="#076FC8"/>
<stop offset="1" stop-color="#0F8C85"/>
</linearGradient>
<linearGradient id="paint1_linear_645_5279" x1="29.1332" y1="29.9383" x2="35.7463" y2="31.4256" gradientUnits="userSpaceOnUse">
<stop stop-color="#076FC8"/>
<stop offset="1" stop-color="#0F8C85"/>
</linearGradient>
<linearGradient id="paint2_linear_645_5279" x1="24.5904" y1="31.3097" x2="31.2034" y2="32.797" gradientUnits="userSpaceOnUse">
<stop stop-color="#076FC8"/>
<stop offset="1" stop-color="#0F8C85"/>
</linearGradient>
<linearGradient id="paint3_linear_645_5279" x1="24.5904" y1="33.9806" x2="31.2219" y2="35.4282" gradientUnits="userSpaceOnUse">
<stop stop-color="#076FC8"/>
<stop offset="1" stop-color="#0F8C85"/>
</linearGradient>
<linearGradient id="paint4_linear_645_5279" x1="24.5904" y1="36.6961" x2="31.1833" y2="38.2252" gradientUnits="userSpaceOnUse">
<stop stop-color="#076FC8"/>
<stop offset="1" stop-color="#0F8C85"/>
</linearGradient>
<linearGradient id="paint5_linear_645_5279" x1="7.01672" y1="13.1744" x2="33.2665" y2="11.8642" gradientUnits="userSpaceOnUse">
<stop stop-color="#076FC8"/>
<stop offset="1" stop-color="#0F8C85"/>
</linearGradient>
<linearGradient id="paint6_linear_645_5279" x1="-1.50052" y1="8.2" x2="40.5981" y2="11.8331" gradientUnits="userSpaceOnUse">
<stop stop-color="#00549B"/>
<stop offset="1" stop-color="#0C5B57"/>
</linearGradient>
<clipPath id="clip0_645_5279">
<rect x="1" y="1" width="45" height="45" rx="22.5" fill="white"/>
</clipPath>
<clipPath id="clip1_645_5279">
<rect width="12" height="12" fill="white" transform="translate(25 27)"/>
</clipPath>
</defs>
</svg>
