<svg width="24" height="24" viewBox="0 0 24 24" fill="none" xmlns="http://www.w3.org/2000/svg">
<mask id="mask0_96_20203" style="mask-type:luminance" maskUnits="userSpaceOnUse" x="4" y="4" width="16" height="16">
<path d="M20 4H4V20H20V4Z" fill="white"/>
</mask>
<g mask="url(#mask0_96_20203)">
<path opacity="0.6" fill-rule="evenodd" clip-rule="evenodd" d="M13.7283 7.76049C13.9228 7.83172 14.1236 7.92176 14.3253 8.03537C16.4203 9.23876 19.1451 12.4183 19.121 15.7193C19.0725 20.2237 12.5087 20.014 12.0001 19.9919C11.4794 20.014 4.9156 20.2237 4.87927 15.7193C4.84294 12.4073 7.56775 9.22772 9.67493 8.03537C9.95519 7.87461 10.2338 7.76013 10.4961 7.67912C10.405 7.42814 10.2109 6.98621 9.82957 6.43988C9.5507 6.03506 9.24483 5.72919 9.00194 5.51328C8.72306 5.2704 8.73206 4.8206 9.01993 4.59569C9.26283 4.41577 9.58668 4.23585 9.98251 4.19087C10.6332 4.11279 11.0098 4.27268 11.3598 4.42127C11.6146 4.52947 11.8554 4.63168 12.1775 4.63168C12.527 4.63168 12.7592 4.46231 12.9843 4.29805C13.2458 4.1072 13.4979 3.92325 13.9138 4.01995C14.8583 4.24485 14.4838 5.55444 14.4838 5.55444C14.4838 5.55444 14.8395 5.42114 15.2362 5.31537C15.3608 5.28214 15.4778 5.26425 15.587 5.24754C15.5961 5.24616 15.605 5.24478 15.614 5.2434C15.8839 5.20742 16.0098 5.56726 15.7759 5.7022C15.4701 5.88212 15.1192 6.12502 14.8044 6.40389C14.2298 6.91002 13.8686 7.50455 13.7283 7.76049Z" fill="currentColor" fill-opacity="0.4"/>
<path fill-rule="evenodd" clip-rule="evenodd" d="M11.9634 18.4103C14.2926 18.4103 16.1806 16.5222 16.1806 14.193C16.1806 11.8639 14.2926 9.97577 11.9634 9.97577C9.63424 9.97577 7.74609 11.8639 7.74609 14.193C7.74609 16.5222 9.63424 18.4103 11.9634 18.4103ZM12.6428 13.6726C13.1685 13.7757 13.5602 13.9613 13.7973 14.2086C14.0343 14.456 14.158 14.8065 14.158 15.2497C14.158 15.6208 14.0755 15.9403 13.89 16.2186C13.7148 16.4969 13.4571 16.703 13.1273 16.8577C12.9211 16.9505 12.684 17.0225 12.4263 17.0535V17.3318C12.4263 17.5277 12.2614 17.6925 12.0656 17.6925C11.8697 17.6925 11.7048 17.5277 11.7048 17.3318V17.0535C11.3853 17.0329 11.0967 16.9607 10.8493 16.8473C10.5298 16.703 10.2824 16.4969 10.1072 16.2289C9.93194 15.9609 9.84949 15.6517 9.84949 15.2909H11.0967C11.0967 15.5177 11.1791 15.6826 11.3235 15.8063C11.4265 15.8785 11.5502 15.93 11.7048 15.9609C11.7873 15.9712 11.8698 15.9815 11.9728 15.9815C12.1378 15.9815 12.2923 15.9712 12.4161 15.93C12.5088 15.8991 12.6016 15.8681 12.6738 15.8166C12.849 15.6929 12.9314 15.5486 12.9314 15.3528C12.9314 15.0436 12.7562 14.8477 12.4058 14.7653C12.3954 14.7653 12.3877 14.7627 12.38 14.7601C12.3722 14.7575 12.3645 14.7549 12.3542 14.7549L11.6842 14.6209L11.4781 14.5797C10.9627 14.4766 10.571 14.2808 10.3133 13.9922C10.0556 13.7036 9.92164 13.3325 9.92164 12.8789C9.92164 12.5389 10.0041 12.2296 10.1896 11.9616C10.3752 11.6936 10.6225 11.4875 10.9421 11.3329C11.1688 11.2298 11.4162 11.1576 11.6842 11.1267V10.8381C11.6842 10.6423 11.8491 10.4773 12.045 10.4773C12.2408 10.4773 12.4058 10.6423 12.4058 10.8381V11.1267C12.6738 11.1576 12.9108 11.2195 13.117 11.3226C13.4262 11.4669 13.653 11.673 13.8178 11.941C13.9828 12.1987 14.0652 12.5182 14.0652 12.8789H12.849C12.849 12.6522 12.7768 12.4873 12.6325 12.3636C12.5603 12.3121 12.4882 12.2709 12.4058 12.2399C12.2923 12.1987 12.1686 12.1781 12.0243 12.1781C11.9007 12.1781 11.7976 12.1987 11.6945 12.2193C11.5811 12.2502 11.4781 12.2914 11.3956 12.3533C11.241 12.4667 11.1585 12.6316 11.1585 12.8377C11.1585 13.0129 11.2101 13.1573 11.3028 13.2604C11.3853 13.3531 11.5193 13.4149 11.6945 13.4665C11.71 13.4717 11.7229 13.4742 11.7357 13.4768C11.7486 13.4794 11.7615 13.482 11.777 13.4871L12.4161 13.6211L12.6428 13.6726Z" fill="currentColor"/>
<path fill-rule="evenodd" clip-rule="evenodd" d="M5.71429 8.89311C6.38493 8.89311 6.92857 8.34947 6.92857 7.67882C6.92857 7.0082 6.38493 6.46454 5.71429 6.46454C5.04366 6.46454 4.5 7.0082 4.5 7.67882C4.5 8.34947 5.04366 8.89311 5.71429 8.89311ZM5.90992 7.52898C6.06128 7.55867 6.17405 7.61209 6.24233 7.68331C6.31058 7.75454 6.34619 7.85545 6.34619 7.98306C6.34619 8.08992 6.32244 8.18192 6.26902 8.26206C6.21858 8.34217 6.14438 8.40153 6.04941 8.44606C5.99005 8.47278 5.92178 8.49353 5.84758 8.50244V8.58258C5.84758 8.63897 5.80011 8.68644 5.74372 8.68644C5.68733 8.68644 5.63985 8.63897 5.63985 8.58258V8.50244C5.54784 8.4965 5.46474 8.47572 5.39351 8.44308C5.30151 8.40153 5.23028 8.34217 5.17983 8.26503C5.12937 8.18786 5.10563 8.09881 5.10563 7.99495H5.46474C5.46474 8.06023 5.48849 8.10772 5.53003 8.14334C5.55971 8.16411 5.59533 8.17895 5.63985 8.18786C5.66358 8.19081 5.68733 8.19378 5.71701 8.19378C5.7645 8.19378 5.809 8.19081 5.84464 8.17895C5.87133 8.17006 5.89805 8.16114 5.91883 8.14631C5.96928 8.1107 5.99302 8.06914 5.99302 8.01275C5.99302 7.92372 5.94256 7.86734 5.84166 7.84359C5.83869 7.84359 5.83646 7.84285 5.83425 7.84209C5.83201 7.84135 5.82978 7.84062 5.82683 7.84062L5.63391 7.80203L5.57455 7.79017C5.42616 7.76048 5.31338 7.70409 5.23918 7.621C5.16499 7.5379 5.12641 7.43106 5.12641 7.30046C5.12641 7.20254 5.15015 7.11348 5.20357 7.03633C5.25699 6.95916 5.32822 6.89981 5.42022 6.85529C5.48552 6.82561 5.55675 6.80483 5.63391 6.79593V6.71283C5.63391 6.65644 5.68139 6.60896 5.73778 6.60896C5.79417 6.60896 5.84166 6.65644 5.84166 6.71283V6.79593C5.91883 6.80483 5.98708 6.82264 6.04644 6.85232C6.13547 6.89387 6.20077 6.95323 6.24825 7.03039C6.29574 7.10459 6.31947 7.19659 6.31947 7.30046H5.96928C5.96928 7.23518 5.9485 7.18768 5.90694 7.15207C5.88617 7.13723 5.86539 7.12537 5.84166 7.11646C5.809 7.10459 5.77339 7.09865 5.73184 7.09865C5.69623 7.09865 5.66656 7.10459 5.63688 7.11051C5.60423 7.11943 5.57455 7.13129 5.55081 7.1491C5.50629 7.18176 5.48255 7.22923 5.48255 7.28859C5.48255 7.33904 5.49739 7.38059 5.5241 7.41028C5.54784 7.43698 5.58642 7.45479 5.63688 7.46962C5.64133 7.47112 5.64504 7.47186 5.64875 7.47259C5.65246 7.47335 5.65617 7.47409 5.66062 7.47556L5.84464 7.51415L5.90992 7.52898Z" fill="currentColor"/>
<path fill-rule="evenodd" clip-rule="evenodd" d="M18.2856 12.5357C18.9562 12.5357 19.4999 11.992 19.4999 11.3214C19.4999 10.6508 18.9562 10.1071 18.2856 10.1071C17.6149 10.1071 17.0713 10.6508 17.0713 11.3214C17.0713 11.992 17.6149 12.5357 18.2856 12.5357ZM18.4812 11.1716C18.6326 11.2013 18.7453 11.2547 18.8136 11.3259C18.8819 11.3971 18.9175 11.498 18.9175 11.6256C18.9175 11.7325 18.8937 11.8245 18.8403 11.9046C18.7899 11.9847 18.7157 12.0441 18.6207 12.0886C18.5613 12.1154 18.4931 12.1361 18.4189 12.145V12.2252C18.4189 12.2815 18.3714 12.329 18.315 12.329C18.2586 12.329 18.2111 12.2815 18.2111 12.2252V12.145C18.1191 12.1391 18.036 12.1183 17.9648 12.0857C17.8728 12.0441 17.8016 11.9847 17.7511 11.9076C17.7007 11.8304 17.6769 11.7414 17.6769 11.6375H18.036C18.036 11.7028 18.0598 11.7503 18.1013 11.7859C18.131 11.8067 18.1666 11.8215 18.2111 11.8304C18.2349 11.8334 18.2586 11.8364 18.2883 11.8364C18.3358 11.8364 18.3803 11.8334 18.4159 11.8215C18.4426 11.8126 18.4693 11.8037 18.4901 11.7889C18.5406 11.7533 18.5643 11.7117 18.5643 11.6553C18.5643 11.5663 18.5138 11.5099 18.413 11.4862C18.41 11.4862 18.4077 11.4854 18.4055 11.4847C18.4033 11.4839 18.4011 11.4832 18.3981 11.4832L18.2052 11.4446L18.1458 11.4327C17.9974 11.4031 17.8847 11.3467 17.8105 11.2636C17.7363 11.1805 17.6977 11.0736 17.6977 10.943C17.6977 10.8451 17.7214 10.7561 17.7749 10.6789C17.8283 10.6017 17.8995 10.5424 17.9915 10.4979C18.0568 10.4682 18.128 10.4474 18.2052 10.4385V10.3554C18.2052 10.299 18.2527 10.2515 18.3091 10.2515C18.3655 10.2515 18.413 10.299 18.413 10.3554V10.4385C18.4901 10.4474 18.5584 10.4652 18.6177 10.4949C18.7068 10.5364 18.7721 10.5958 18.8195 10.673C18.867 10.7472 18.8908 10.8392 18.8908 10.943H18.5406C18.5406 10.8778 18.5198 10.8303 18.4782 10.7946C18.4575 10.7798 18.4367 10.7679 18.413 10.759C18.3803 10.7472 18.3447 10.7412 18.3031 10.7412C18.2675 10.7412 18.2378 10.7472 18.2082 10.7531C18.1755 10.762 18.1458 10.7739 18.1221 10.7917C18.0776 10.8243 18.0538 10.8718 18.0538 10.9312C18.0538 10.9816 18.0687 11.0232 18.0954 11.0529C18.1191 11.0796 18.1577 11.0974 18.2082 11.1122C18.2126 11.1137 18.2163 11.1144 18.22 11.1152C18.2237 11.1159 18.2275 11.1167 18.2319 11.1181L18.4159 11.1567L18.4812 11.1716Z" fill="currentColor"/>
<path d="M9.96631 7.76669C9.96631 7.48138 10.1976 7.25009 10.4829 7.25009H13.7915C14.0768 7.25009 14.3081 7.48138 14.3081 7.76669C14.3081 8.052 14.0768 8.28329 13.7915 8.28329H10.4829C10.1976 8.28329 9.96631 8.052 9.96631 7.76669Z" fill="currentColor"/>
</g>
</svg>
