<svg width="24" height="24" viewBox="0 0 24 24" fill="none" xmlns="http://www.w3.org/2000/svg">
<mask id="mask0_5_283186" style="mask-type:luminance" maskUnits="userSpaceOnUse" x="2" y="2" width="20" height="20">
<path d="M22 2H2V22H22V2Z" fill="white"/>
</mask>
<g mask="url(#mask0_5_283186)">
<path opacity="0.6" d="M16.496 3.93048L17.3058 5.88802C17.4578 6.2552 17.7495 6.54805 18.1178 6.7001L20.0741 7.51218C20.8399 7.8298 21.2026 8.7072 20.885 9.4731L20.073 11.4295C19.9205 11.7972 19.9201 12.2104 20.0718 12.5784L20.8816 14.5359C21.1981 15.3018 20.8343 16.1792 20.0685 16.4957L18.111 17.3055C17.9289 17.3808 17.7635 17.4913 17.6241 17.6307C17.4848 17.77 17.3743 17.9355 17.299 18.1176L16.487 20.074C16.1694 20.8399 15.292 21.2026 14.5262 20.885L12.5699 20.0729C12.2022 19.9205 11.7891 19.9201 11.4211 20.0718L9.46369 20.8816C8.69784 21.1981 7.82049 20.8343 7.50401 20.0684L6.69424 18.112C6.61893 17.9299 6.50845 17.7644 6.36911 17.6251C6.22977 17.4857 6.06431 17.3752 5.88221 17.2999L3.92592 16.4878C3.16007 16.1702 2.79741 15.2928 3.11502 14.5269L3.92704 12.5705C4.07946 12.2028 4.07986 11.7896 3.92817 11.4216L3.1184 9.46409C2.80192 8.69819 3.1657 7.82079 3.93155 7.50429L5.88897 6.69447C6.25613 6.54242 6.54895 6.2507 6.70099 5.88239L7.51302 3.92597C7.83062 3.16008 8.70797 2.7974 9.47382 3.11502L11.4301 3.9271C11.7978 4.07952 12.2109 4.07993 12.5789 3.92823L14.5363 3.1184C15.3022 2.80078 16.1795 3.16458 16.496 3.93048Z" fill="currentColor" fill-opacity="0.4"/>
<path d="M8 11.5L11 14.5L16.5 9" stroke="currentColor" stroke-width="2" stroke-linecap="round" stroke-linejoin="round"/>
</g>
</svg>
