<svg width="24" height="24" viewBox="0 0 24 24" fill="none" xmlns="http://www.w3.org/2000/svg">
<mask id="mask0_5_283198" style="mask-type:luminance" maskUnits="userSpaceOnUse" x="2" y="2" width="20" height="20">
<path d="M22 2H2V22H22V2Z" fill="white"/>
</mask>
<g mask="url(#mask0_5_283198)">
<path opacity="0.6" d="M18.7846 4.83984H5.21538C3.99186 4.83984 3 5.8317 3 7.05522V16.6617C3 17.8852 3.99186 18.877 5.21538 18.877H18.7846C20.0081 18.877 21 17.8852 21 16.6617V7.05522C21 5.8317 20.0081 4.83984 18.7846 4.83984Z" fill="currentColor" fill-opacity="0.4"/>
<rect x="5" y="15" width="14" height="2" rx="1" fill="currentColor"/>
<path d="M17.0588 9.9567C17.0883 9.93773 17.1136 9.91329 17.1332 9.8848L18.7758 7.50574C18.8027 7.46679 18.8181 7.42154 18.8204 7.3748C18.8227 7.32807 18.8119 7.28161 18.789 7.24036C18.7661 7.19912 18.7321 7.16463 18.6905 7.14058C18.649 7.11653 18.6014 7.10382 18.553 7.1038H17.7118V6.5865C17.7118 6.3121 17.8247 6.04895 18.0257 5.85492C18.2266 5.6609 18.4992 5.5519 18.7833 5.5519H21.1964C21.4095 5.5519 21.6139 5.47015 21.7646 5.32463C21.9153 5.17911 22 4.98174 22 4.77595C22 4.57015 21.9153 4.37279 21.7646 4.22727C21.6139 4.08175 21.4095 4 21.1964 4H18.2497C17.6814 4 17.1363 4.218 16.7344 4.60605C16.3325 4.9941 16.1067 5.52041 16.1067 6.0692V7.1038H15.2677C15.2193 7.10382 15.1717 7.11653 15.1302 7.14058C15.0886 7.16463 15.0546 7.19912 15.0317 7.24036C15.0088 7.28161 14.998 7.32807 15.0003 7.3748C15.0026 7.42154 15.018 7.46679 15.0449 7.50574L16.6875 9.8848C16.7269 9.94184 16.7881 9.98147 16.8577 9.99495C16.9273 10.0084 16.9996 9.99467 17.0588 9.9567Z" fill="currentColor"/>
</g>
</svg>

