<svg width="48" height="49" viewBox="0 0 48 49" fill="none" xmlns="http://www.w3.org/2000/svg">
<g filter="url(#filter0_d_509_4289)">
<path d="M4 20.3589C4 10.9308 4 6.21675 6.92893 3.28782C9.85786 0.358887 14.5719 0.358887 24 0.358887V0.358887C33.4281 0.358887 38.1421 0.358887 41.0711 3.28782C44 6.21675 44 10.9308 44 20.3589V20.3589C44 29.787 44 34.501 41.0711 37.43C38.1421 40.3589 33.4281 40.3589 24 40.3589V40.3589C14.5719 40.3589 9.85786 40.3589 6.92893 37.43C4 34.501 4 29.787 4 20.3589V20.3589Z" fill="#3B3466"/>
<path d="M21.826 18.3154C24.2993 18.3154 26.3043 16.3104 26.3043 13.8371C26.3043 11.3639 24.2993 9.35889 21.826 9.35889C19.3528 9.35889 17.3478 11.3639 17.3478 13.8371C17.3478 16.3104 19.3528 18.3154 21.826 18.3154Z" stroke="#FF4906" stroke-width="2"/>
<circle cx="30.0868" cy="14.7067" r="3.6087" stroke="#FF4906" stroke-width="2"/>
<rect x="21.826" y="21.6632" width="11.3043" height="8.69565" rx="2.5" stroke="#FF4906" stroke-width="2"/>
<path d="M21.0012 24.4077C21.8398 24.9611 21.8398 26.1915 21.0012 26.7448L17.5622 29.0139L17.0115 28.1793L17.5622 29.0139C16.6314 29.6281 15.3912 28.9606 15.3912 27.8454L15.3912 23.3072C15.3912 22.192 16.6314 21.5245 17.5622 22.1386M21.0012 24.4077L17.5622 22.1386M21.0012 24.4077L17.5622 22.1386M21.0012 24.4077L17.5622 22.1386" stroke="#FF4906" stroke-width="2"/>
</g>
<defs>
<filter id="filter0_d_509_4289" x="0" y="0.358887" width="48" height="48" filterUnits="userSpaceOnUse" color-interpolation-filters="sRGB">
<feFlood flood-opacity="0" result="BackgroundImageFix"/>
<feColorMatrix in="SourceAlpha" type="matrix" values="0 0 0 0 0 0 0 0 0 0 0 0 0 0 0 0 0 0 127 0" result="hardAlpha"/>
<feMorphology radius="2" operator="erode" in="SourceAlpha" result="effect1_dropShadow_509_4289"/>
<feOffset dy="4"/>
<feGaussianBlur stdDeviation="3"/>
<feComposite in2="hardAlpha" operator="out"/>
<feColorMatrix type="matrix" values="0 0 0 0 0 0 0 0 0 0 0 0 0 0 0 0 0 0 0.06 0"/>
<feBlend mode="normal" in2="BackgroundImageFix" result="effect1_dropShadow_509_4289"/>
<feBlend mode="normal" in="SourceGraphic" in2="effect1_dropShadow_509_4289" result="shape"/>
</filter>
</defs>
</svg>
