<svg width="48" height="49" viewBox="0 0 48 49" fill="none" xmlns="http://www.w3.org/2000/svg">
<g filter="url(#filter0_d_509_4294)">
<path d="M4 20.3589C4 10.9308 4 6.21675 6.92893 3.28782C9.85786 0.358887 14.5719 0.358887 24 0.358887V0.358887C33.4281 0.358887 38.1421 0.358887 41.0711 3.28782C44 6.21675 44 10.9308 44 20.3589V20.3589C44 29.787 44 34.501 41.0711 37.43C38.1421 40.3589 33.4281 40.3589 24 40.3589V40.3589C14.5719 40.3589 9.85786 40.3589 6.92893 37.43C4 34.501 4 29.787 4 20.3589V20.3589Z" fill="#3B3466"/>
<path d="M13.7208 23.9105C12.2099 21.2437 12.3661 17.9521 14.0672 15.4018C14.675 14.4873 15.5128 13.5189 16.6602 12.6697C19.9347 10.2444 23.0558 10.5596 24.3622 10.5539C24.385 10.5539 24.4077 10.5568 24.4304 10.5596C29.4941 10.5539 33.6945 13.3883 34.9327 17.1172C35.1486 17.7675 35.2622 18.4065 35.3019 19.0228C35.3956 20.4684 35.0804 21.9083 34.4272 23.2005C34.2568 23.5384 34.058 23.8991 33.8223 24.2712C33.1577 25.322 32.1552 26.5715 29.4941 28.5425C28.0883 29.5848 26.1344 30.8912 23.6267 32.172C23.3796 32.297 23.0842 32.1209 23.0814 31.8426L23.0558 30.2011C23.0473 29.6075 22.6526 29.0878 22.0817 28.9202L18.0063 27.7274C17.9438 27.7104 17.8842 27.6877 17.8274 27.6621C17.0492 27.3071 15.1152 26.2875 13.7861 24.0212C13.7634 23.9843 13.7435 23.9474 13.7208 23.9105Z" fill="#21BA52"/>
<path d="M16.5919 17.3627C16.5919 17.362 16.5926 17.3613 16.5933 17.3613H17.3871C17.4865 17.3613 17.5689 17.4465 17.5689 17.5516V21.3941C17.5689 21.4992 17.6513 21.5844 17.7507 21.5844H19.8977C19.9971 21.5844 20.0794 21.6696 20.0794 21.7747V22.3768C20.0794 22.4819 19.9971 22.5671 19.8977 22.5671H16.5919C16.4925 22.5671 16.4102 22.4819 16.4102 22.3768V17.5545C16.4102 17.4499 16.4917 17.365 16.5905 17.3642C16.5913 17.3642 16.5919 17.3635 16.5919 17.3627Z" fill="white"/>
<path d="M20.9113 17.3618H21.7064C21.8058 17.3618 21.8882 17.447 21.8882 17.5521V22.3744C21.8882 22.4795 21.8058 22.5647 21.7064 22.5647H20.9113C20.8119 22.5647 20.7295 22.4795 20.7295 22.3744V17.5521C20.7295 17.447 20.8119 17.3618 20.9113 17.3618Z" fill="white"/>
<path d="M27.3666 17.5521V22.3744C27.3666 22.4795 27.2843 22.5647 27.1849 22.5647H26.5004C26.4464 22.5647 26.3953 22.5392 26.3584 22.4966L23.916 19.4066V22.3744C23.916 22.4795 23.8336 22.5647 23.7342 22.5647H22.9532C22.8538 22.5647 22.7715 22.4795 22.7715 22.3744V17.5521C22.7715 17.447 22.8538 17.3618 22.9532 17.3618H23.6434C23.6973 17.3618 23.7485 17.3874 23.7854 17.43L26.2192 20.5199V17.5521C26.2192 17.447 26.3016 17.3618 26.401 17.3618H27.182C27.2814 17.3618 27.3638 17.447 27.3638 17.5521H27.3666Z" fill="white"/>
<path d="M32.1506 21.8462C32.1515 21.8481 32.152 21.8501 32.152 21.8522V22.3119C32.152 22.4511 32.0441 22.5619 31.9106 22.5619H28.5168C28.3833 22.5619 28.2754 22.4483 28.2754 22.3119V17.6117C28.2754 17.4726 28.3833 17.3618 28.5168 17.3618H31.8169C31.9503 17.3618 32.0583 17.4754 32.0583 17.6117V18.0747C32.0583 18.2138 31.9503 18.3246 31.8169 18.3246H29.9908C29.6786 18.3246 29.4256 18.5776 29.4256 18.8897C29.4256 19.2019 29.6786 19.4549 29.9908 19.4549H31.5073C31.6408 19.4549 31.7487 19.5685 31.7487 19.7048V20.1393C31.7487 20.2785 31.6408 20.3893 31.5073 20.3893H30.0277C29.6952 20.3893 29.4256 20.6588 29.4256 20.9913C29.4256 21.3239 29.6952 21.5934 30.0277 21.5934H31.9078C32.0402 21.5934 32.1475 21.7053 32.1491 21.8402C32.1492 21.8422 32.1496 21.8443 32.1506 21.8462Z" fill="white"/>
</g>
<defs>
<filter id="filter0_d_509_4294" x="0" y="0.358887" width="48" height="48" filterUnits="userSpaceOnUse" color-interpolation-filters="sRGB">
<feFlood flood-opacity="0" result="BackgroundImageFix"/>
<feColorMatrix in="SourceAlpha" type="matrix" values="0 0 0 0 0 0 0 0 0 0 0 0 0 0 0 0 0 0 127 0" result="hardAlpha"/>
<feMorphology radius="2" operator="erode" in="SourceAlpha" result="effect1_dropShadow_509_4294"/>
<feOffset dy="4"/>
<feGaussianBlur stdDeviation="3"/>
<feComposite in2="hardAlpha" operator="out"/>
<feColorMatrix type="matrix" values="0 0 0 0 0 0 0 0 0 0 0 0 0 0 0 0 0 0 0.06 0"/>
<feBlend mode="normal" in2="BackgroundImageFix" result="effect1_dropShadow_509_4294"/>
<feBlend mode="normal" in="SourceGraphic" in2="effect1_dropShadow_509_4294" result="shape"/>
</filter>
</defs>
</svg>
