<svg width="48" height="49" viewBox="0 0 48 49" fill="none" xmlns="http://www.w3.org/2000/svg">
<g filter="url(#filter0_d_509_4291)">
<path d="M4 20.3589C4 10.9308 4 6.21675 6.92893 3.28782C9.85786 0.358887 14.5719 0.358887 24 0.358887V0.358887C33.4281 0.358887 38.1421 0.358887 41.0711 3.28782C44 6.21675 44 10.9308 44 20.3589V20.3589C44 29.787 44 34.501 41.0711 37.43C38.1421 40.3589 33.4281 40.3589 24 40.3589V40.3589C14.5719 40.3589 9.85786 40.3589 6.92893 37.43C4 34.501 4 29.787 4 20.3589V20.3589Z" fill="#3B3466"/>
<path d="M24.0521 28.0913C19.784 28.0913 17.8339 25.9171 17.8339 24.3224C17.8333 23.9419 17.9895 23.5781 18.2656 23.3164C18.5417 23.0546 18.9134 22.9182 19.2933 22.9392C21.1207 22.9392 20.6427 25.6802 24.0521 25.6802C25.7948 25.6802 26.8185 24.6312 26.8185 23.6456C26.8185 23.0534 26.4801 22.3766 25.3295 22.1058L21.5225 21.1456C18.4642 20.3673 17.9312 18.6668 17.9312 17.089C17.9312 13.815 20.9261 12.6306 23.7771 12.6306C26.404 12.6306 29.5257 14.0815 29.5257 16.0442C29.5257 16.8902 28.8193 17.3428 27.9987 17.3428C26.4378 17.3428 26.7001 15.1517 23.5614 15.1517C22.0005 15.1517 21.1799 15.8835 21.1799 16.9071C21.1799 17.9308 22.3939 18.2777 23.4599 18.5103L26.2686 19.1448C29.3481 19.8385 30.1687 21.6448 30.1687 23.3749C30.1687 26.0355 28.1087 28.0913 24.0478 28.0913H24.0521ZM35.8369 22.4612C35.9589 21.7628 36.0197 21.0551 36.0188 20.3461C36.0338 16.7849 34.469 13.4004 31.7463 11.1048C29.0237 8.80926 25.4234 7.83898 21.9159 8.45552C20.8378 7.83482 19.6151 7.50944 18.3711 7.51222C15.8177 7.52782 13.4641 8.89632 12.1874 11.1077C10.9107 13.3191 10.9024 16.0417 12.1657 18.2607C11.4608 22.1339 12.6955 26.1069 15.4717 28.8982C18.2478 31.6895 22.214 32.9459 26.0909 32.2621C27.1677 32.8823 28.3889 33.2077 29.6315 33.2054C32.1836 33.189 34.5358 31.8211 35.8122 29.611C37.0887 27.401 37.0981 24.68 35.8369 22.4612Z" fill="#0078D7"/>
</g>
<defs>
<filter id="filter0_d_509_4291" x="0" y="0.358887" width="48" height="48" filterUnits="userSpaceOnUse" color-interpolation-filters="sRGB">
<feFlood flood-opacity="0" result="BackgroundImageFix"/>
<feColorMatrix in="SourceAlpha" type="matrix" values="0 0 0 0 0 0 0 0 0 0 0 0 0 0 0 0 0 0 127 0" result="hardAlpha"/>
<feMorphology radius="2" operator="erode" in="SourceAlpha" result="effect1_dropShadow_509_4291"/>
<feOffset dy="4"/>
<feGaussianBlur stdDeviation="3"/>
<feComposite in2="hardAlpha" operator="out"/>
<feColorMatrix type="matrix" values="0 0 0 0 0 0 0 0 0 0 0 0 0 0 0 0 0 0 0.06 0"/>
<feBlend mode="normal" in2="BackgroundImageFix" result="effect1_dropShadow_509_4291"/>
<feBlend mode="normal" in="SourceGraphic" in2="effect1_dropShadow_509_4291" result="shape"/>
</filter>
</defs>
</svg>
