<svg width="48" height="49" viewBox="0 0 48 49" fill="none" xmlns="http://www.w3.org/2000/svg">
<g filter="url(#filter0_d_509_4286)">
<path d="M4 20.3589C4 10.9308 4 6.21675 6.92893 3.28782C9.85786 0.358887 14.5719 0.358887 24 0.358887V0.358887C33.4281 0.358887 38.1421 0.358887 41.0711 3.28782C44 6.21675 44 10.9308 44 20.3589V20.3589C44 29.787 44 34.501 41.0711 37.43C38.1421 40.3589 33.4281 40.3589 24 40.3589V40.3589C14.5719 40.3589 9.85786 40.3589 6.92893 37.43C4 34.501 4 29.787 4 20.3589V20.3589Z" fill="#3B3466"/>
<path fill-rule="evenodd" clip-rule="evenodd" d="M13.0534 20.1478C18.8838 17.6076 22.7717 15.9329 24.717 15.1238C30.2712 12.8136 31.4253 12.4123 32.1776 12.3991C32.343 12.3962 32.7129 12.4372 32.9526 12.6316C33.1549 12.7958 33.2106 13.0176 33.2372 13.1732C33.2639 13.3289 33.297 13.6835 33.2707 13.9606C32.9697 17.123 31.6673 24.7975 31.0047 28.3395C30.7244 29.8383 30.1724 30.3408 29.6379 30.39C28.4765 30.4969 27.5946 29.6224 26.4696 28.885C24.7094 27.7312 23.7149 27.0129 22.0063 25.8869C20.0317 24.5857 21.3118 23.8705 22.4371 22.7017C22.7316 22.3958 27.8489 17.7412 27.948 17.3189C27.9603 17.2661 27.9718 17.0693 27.8549 16.9653C27.738 16.8614 27.5654 16.8969 27.4408 16.9252C27.2643 16.9653 24.4522 18.8239 19.0047 22.5012C18.2065 23.0493 17.4835 23.3163 16.8358 23.3023C16.1217 23.2869 14.748 22.8985 13.7268 22.5666C12.4743 22.1595 11.4789 21.9442 11.5656 21.2528C11.6107 20.8926 12.1067 20.5243 13.0534 20.1478Z" fill="#2AABEE"/>
</g>
<defs>
<filter id="filter0_d_509_4286" x="0" y="0.358887" width="48" height="48" filterUnits="userSpaceOnUse" color-interpolation-filters="sRGB">
<feFlood flood-opacity="0" result="BackgroundImageFix"/>
<feColorMatrix in="SourceAlpha" type="matrix" values="0 0 0 0 0 0 0 0 0 0 0 0 0 0 0 0 0 0 127 0" result="hardAlpha"/>
<feMorphology radius="2" operator="erode" in="SourceAlpha" result="effect1_dropShadow_509_4286"/>
<feOffset dy="4"/>
<feGaussianBlur stdDeviation="3"/>
<feComposite in2="hardAlpha" operator="out"/>
<feColorMatrix type="matrix" values="0 0 0 0 0 0 0 0 0 0 0 0 0 0 0 0 0 0 0.06 0"/>
<feBlend mode="normal" in2="BackgroundImageFix" result="effect1_dropShadow_509_4286"/>
<feBlend mode="normal" in="SourceGraphic" in2="effect1_dropShadow_509_4286" result="shape"/>
</filter>
</defs>
</svg>
