<svg width="48" height="49" viewBox="0 0 48 49" fill="none" xmlns="http://www.w3.org/2000/svg">
<g filter="url(#filter0_d_509_4288)">
<path d="M4 20.3589C4 10.9308 4 6.21675 6.92893 3.28782C9.85786 0.358887 14.5719 0.358887 24 0.358887V0.358887C33.4281 0.358887 38.1421 0.358887 41.0711 3.28782C44 6.21675 44 10.9308 44 20.3589V20.3589C44 29.787 44 34.501 41.0711 37.43C38.1421 40.3589 33.4281 40.3589 24 40.3589V40.3589C14.5719 40.3589 9.85786 40.3589 6.92893 37.43C4 34.501 4 29.787 4 20.3589V20.3589Z" fill="#3B3466" shape-rendering="crispEdges"/>
<path d="M12.0585 8.86902L21.3256 21.2976L12 31.3996H14.1L22.2622 22.5525L28.8585 31.3996H36L26.2134 18.2739L34.8915 8.86902H32.7951L25.2768 17.0153L19.2037 8.86902H12.0585ZM15.1463 10.4175H18.428L32.9159 29.8474H29.6341L15.1463 10.4175Z" fill="#BDB8E1"/>
</g>
<defs>
<filter id="filter0_d_509_4288" x="0" y="0.358887" width="48" height="48" filterUnits="userSpaceOnUse" color-interpolation-filters="sRGB">
<feFlood flood-opacity="0" result="BackgroundImageFix"/>
<feColorMatrix in="SourceAlpha" type="matrix" values="0 0 0 0 0 0 0 0 0 0 0 0 0 0 0 0 0 0 127 0" result="hardAlpha"/>
<feMorphology radius="2" operator="erode" in="SourceAlpha" result="effect1_dropShadow_509_4288"/>
<feOffset dy="4"/>
<feGaussianBlur stdDeviation="3"/>
<feComposite in2="hardAlpha" operator="out"/>
<feColorMatrix type="matrix" values="0 0 0 0 0 0 0 0 0 0 0 0 0 0 0 0 0 0 0.06 0"/>
<feBlend mode="normal" in2="BackgroundImageFix" result="effect1_dropShadow_509_4288"/>
<feBlend mode="normal" in="SourceGraphic" in2="effect1_dropShadow_509_4288" result="shape"/>
</filter>
</defs>
</svg>
