<svg width="48" height="49" viewBox="0 0 48 49" fill="none" xmlns="http://www.w3.org/2000/svg">
<g filter="url(#filter0_d_509_4292)">
<path d="M4 20.3589C4 10.9308 4 6.21675 6.92893 3.28782C9.85786 0.358887 14.5719 0.358887 24 0.358887V0.358887C33.4281 0.358887 38.1421 0.358887 41.0711 3.28782C44 6.21675 44 10.9308 44 20.3589V20.3589C44 29.787 44 34.501 41.0711 37.43C38.1421 40.3589 33.4281 40.3589 24 40.3589V40.3589C14.5719 40.3589 9.85786 40.3589 6.92893 37.43C4 34.501 4 29.787 4 20.3589V20.3589Z" fill="#3B3466"/>
<path d="M35.9851 14.3489C35.6968 13.278 34.8525 12.4337 33.7816 12.1454C31.8253 11.61 23.9999 11.61 23.9999 11.61C23.9999 11.61 16.1745 11.61 14.2182 12.1248C13.1679 12.4131 12.303 13.278 12.0147 14.3489C11.4999 16.3052 11.4999 20.3621 11.4999 20.3621C11.4999 20.3621 11.4999 24.4395 12.0147 26.3753C12.303 27.4461 13.1473 28.2904 14.2182 28.5787C16.1951 29.1141 23.9999 29.1141 23.9999 29.1141C23.9999 29.1141 31.8253 29.1141 33.7816 28.5993C34.8525 28.311 35.6968 27.4667 35.9851 26.3958C36.4999 24.4395 36.4999 20.3827 36.4999 20.3827C36.4999 20.3827 36.5205 16.3052 35.9851 14.3489Z" fill="#FF0000"/>
<path d="M21.5082 24.11L28.0156 20.3621L21.5082 16.6141V24.11Z" fill="white"/>
</g>
<defs>
<filter id="filter0_d_509_4292" x="0" y="0.358887" width="48" height="48" filterUnits="userSpaceOnUse" color-interpolation-filters="sRGB">
<feFlood flood-opacity="0" result="BackgroundImageFix"/>
<feColorMatrix in="SourceAlpha" type="matrix" values="0 0 0 0 0 0 0 0 0 0 0 0 0 0 0 0 0 0 127 0" result="hardAlpha"/>
<feMorphology radius="2" operator="erode" in="SourceAlpha" result="effect1_dropShadow_509_4292"/>
<feOffset dy="4"/>
<feGaussianBlur stdDeviation="3"/>
<feComposite in2="hardAlpha" operator="out"/>
<feColorMatrix type="matrix" values="0 0 0 0 0 0 0 0 0 0 0 0 0 0 0 0 0 0 0.06 0"/>
<feBlend mode="normal" in2="BackgroundImageFix" result="effect1_dropShadow_509_4292"/>
<feBlend mode="normal" in="SourceGraphic" in2="effect1_dropShadow_509_4292" result="shape"/>
</filter>
</defs>
</svg>
