<svg width="30" height="30" viewBox="0 0 30 30" fill="none" xmlns="http://www.w3.org/2000/svg">
<path d="M25.0861 19.6176C25.0771 19.5927 25.0632 19.5699 25.0452 19.5504C25.0272 19.5309 25.0055 19.5151 24.9813 19.5039C24.9572 19.4928 24.931 19.4865 24.9043 19.4854C24.8777 19.4843 24.8511 19.4885 24.8261 19.4976L23.2809 20.0538V6.60036C23.2809 5.66038 22.5133 4.90039 21.564 4.90039H8.4351C7.48578 4.90039 6.71824 5.66038 6.71824 6.60036V20.0538L5.17054 19.4964C5.14012 19.4855 5.10752 19.4821 5.07548 19.4864C5.04344 19.4907 5.01291 19.5025 4.98644 19.5208C4.95997 19.5392 4.93834 19.5636 4.92337 19.592C4.90839 19.6203 4.90051 19.6518 4.90039 19.6838V21.1738C4.90039 21.2576 4.95341 21.3326 5.0342 21.3613L14.7218 24.8525C14.9005 24.9164 15.0961 24.9164 15.2748 24.8525L24.9649 21.3651C25.0042 21.3507 25.038 21.3249 25.062 21.2909C25.0859 21.2569 25.0987 21.2165 25.0987 21.1751V19.6851C25.0985 19.6612 25.0943 19.6376 25.0861 19.6151V19.6176ZM14.9996 23.0375L8.53609 20.7088V6.70036H21.463V20.7088L14.9996 23.0375Z" fill="currentColor"/>
<path d="M14.2406 16.4802C13.5366 16.4802 13.0178 16.3115 12.6841 15.9742C12.3504 15.6332 12.1836 15.1162 12.1836 14.4232C12.1836 14.3022 12.2294 14.1958 12.3211 14.1042C12.4164 14.0088 12.5246 13.9612 12.6456 13.9612C12.7666 13.9612 12.8729 14.0088 12.9646 14.1042C13.0599 14.1958 13.1076 14.3022 13.1076 14.4232C13.1076 14.8668 13.1883 15.1675 13.3496 15.3252C13.5109 15.4792 13.8079 15.5562 14.2406 15.5562H15.7586C16.1949 15.5562 16.4919 15.4792 16.6496 15.3252C16.8109 15.1675 16.8916 14.8668 16.8916 14.4232C16.8916 13.9758 16.8109 13.6752 16.6496 13.5212C16.4919 13.3672 16.1949 13.2902 15.7586 13.2902H14.4056C13.7419 13.2902 13.2469 13.1362 12.9206 12.8282C12.5979 12.5202 12.4366 12.0362 12.4366 11.3762C12.4366 10.7088 12.5979 10.2157 12.9206 9.89666C13.2433 9.57766 13.7346 9.41816 14.3946 9.41816H15.7256C16.3856 9.41816 16.8769 9.57766 17.1996 9.89666C17.5223 10.2157 17.6836 10.7052 17.6836 11.3652C17.6836 11.4862 17.6359 11.5943 17.5406 11.6897C17.4489 11.7813 17.3426 11.8272 17.2216 11.8272C17.1006 11.8272 16.9924 11.7813 16.8971 11.6897C16.8054 11.5943 16.7596 11.4862 16.7596 11.3652C16.7596 10.9618 16.6881 10.6905 16.5451 10.5512C16.4058 10.4118 16.1326 10.3422 15.7256 10.3422H14.3946C13.9876 10.3422 13.7126 10.4137 13.5696 10.5567C13.4303 10.696 13.3606 10.9692 13.3606 11.3762C13.3606 11.7758 13.4321 12.0417 13.5751 12.1737C13.7181 12.302 13.9949 12.3662 14.4056 12.3662H15.7586C16.4516 12.3662 16.9668 12.5367 17.3041 12.8777C17.6451 13.215 17.8156 13.7302 17.8156 14.4232C17.8156 15.1162 17.6451 15.6332 17.3041 15.9742C16.9668 16.3115 16.4516 16.4802 15.7586 16.4802H14.2406ZM14.9996 17.4702C14.7429 17.4702 14.6146 17.3418 14.6146 17.0852V13.0592L14.6806 12.5752V8.67016C14.6806 8.41349 14.8089 8.28516 15.0656 8.28516C15.3223 8.28516 15.4506 8.41349 15.4506 8.67016V12.6192L15.3846 13.0372V17.0852C15.3846 17.3418 15.2563 17.4702 14.9996 17.4702Z" fill="currentColor"/>
<path d="M11.4473 19.6226C11.4473 19.5293 11.4656 19.4369 11.5013 19.3507C11.5371 19.2645 11.5894 19.1862 11.6554 19.1202C11.7213 19.0542 11.7997 19.0019 11.8859 18.9662C11.9721 18.9305 12.0645 18.9121 12.1578 18.9121H17.8417C18.0301 18.9121 18.2108 18.987 18.3441 19.1202C18.4773 19.2535 18.5522 19.4342 18.5522 19.6226C18.5522 19.811 18.4773 19.9918 18.3441 20.125C18.2108 20.2582 18.0301 20.3331 17.8417 20.3331H12.1578C11.9693 20.3331 11.7886 20.2582 11.6554 20.125C11.5221 19.9918 11.4473 19.811 11.4473 19.6226Z" fill="currentColor"/>
</svg>
