<svg xmlns="http://www.w3.org/2000/svg" width="28" height="28" viewBox="0 0 28 28" fill="none">
  <path d="M24 13.9241C24 14.4354 23.8392 14.9091 23.0908 14.9091H21.2726V21.2728V23.091C21.2726 23.8278 20.8261 24 20.3636 24H15.8181C15.8181 24 15.8181 18.2862 15.8181 17.6369C15.8181 17.3443 15.2961 16.7277 14.909 16.7277H13.0908C12.726 16.7277 12.1817 17.3079 12.1817 17.6369V24C12.1817 24 8.60484 24 7.63631 24C7.11829 24 6.72723 23.6129 6.72723 23.091V14.9091H4.90908C4.35064 14.9091 4 14.7342 4 13.8793V13.6986L13.4167 4.16244C13.5268 4.05457 13.683 4 13.8801 4C14.1025 4 14.2721 4.05549 14.3835 4.16422C19.1203 8.80246 24 13.7412 24 13.7412V13.9241Z" fill="#405777"/>
</svg>