<svg xmlns="http://www.w3.org/2000/svg" width="20" height="20" viewBox="0 0 20 20" fill="none">
  <g clip-path="url(#clip0_1624_220)">
    <path d="M17.4346 4.19551C20.6228 7.68941 21.3144 11.1814 21.3183 11.4242C21.3222 11.6669 21.2293 11.9012 21.0601 12.0753L19.6373 13.5435V18.7768C19.637 19.0198 19.5402 19.2527 19.3681 19.4243C19.1961 19.5959 18.9629 19.6921 18.7199 19.6919H3.12592C2.88295 19.6921 2.64978 19.5959 2.47774 19.4243C2.3057 19.2527 2.20889 19.0198 2.20861 18.7768V10.5441C2.20889 10.3011 2.3057 10.0682 2.47774 9.8966C2.64978 9.72502 2.88295 9.62883 3.12592 9.6292H13.8984L7.61252 3.5754C7.4375 3.40716 7.33671 3.17612 7.33244 2.93339C7.32818 2.69065 7.42079 2.45622 7.5898 2.28193L9.18147 0.636776C9.53387 0.273452 14.2464 0.701599 17.4346 4.19551ZM6.80218 6.08249C6.89331 6.0844 6.97995 6.12243 7.04304 6.18822L8.77629 7.99453C8.90237 8.13218 8.8955 8.3453 8.76084 8.47456C8.62617 8.60381 8.41295 8.60193 8.28058 8.47032L6.54733 6.664C6.41696 6.52722 6.42133 6.31088 6.55712 6.17948C6.6229 6.11498 6.71105 6.08059 6.80218 6.08249ZM3.12592 1.22648C3.21314 1.22648 3.29281 1.27595 3.33148 1.35413L4.01597 2.73709C4.04955 2.80459 4.11407 2.85135 4.18867 2.86225L5.72056 3.08458C5.80694 3.09674 5.87885 3.15707 5.90584 3.24003C5.93282 3.32299 5.91016 3.41407 5.84746 3.47472L4.73997 4.5511C4.68589 4.60368 4.66118 4.67952 4.67389 4.75386L4.93538 6.27421C4.94571 6.33403 4.93179 6.3955 4.89669 6.44503C4.86159 6.49456 4.80822 6.52807 4.74836 6.53815C4.69855 6.54658 4.64735 6.53847 4.60258 6.51508L3.23255 5.79878C3.16564 5.76383 3.08586 5.76383 3.01895 5.79878L1.64997 6.51648C1.5375 6.57504 1.39885 6.53138 1.34023 6.41894C1.31687 6.37454 1.30876 6.32368 1.31716 6.27421L1.57865 4.75386C1.59145 4.67958 1.56688 4.60375 1.51293 4.5511L0.406837 3.47472C0.344394 3.41391 0.321957 3.32289 0.348984 3.24003C0.376011 3.15717 0.4478 3.09688 0.534087 3.08458L2.06283 2.86225C2.1375 2.85152 2.20209 2.80471 2.23553 2.73709L2.92037 1.35413C2.95904 1.27595 3.0387 1.22648 3.12592 1.22648Z" fill="url(#paint0_linear_1624_220)"/>
  </g>
  <defs>
    <linearGradient id="paint0_linear_1624_220" x1="-0.828128" y1="3.59654" x2="18.771" y2="5.44858" gradientUnits="userSpaceOnUse">
      <stop stop-color="#076FC8"/>
      <stop offset="1" stop-color="#0F8C85"/>
    </linearGradient>
    <clipPath id="clip0_1624_220">
      <rect width="20" height="20" fill="white"/>
    </clipPath>
  </defs>
</svg>