<svg viewBox="0 0 28 28" fill="none" xmlns="http://www.w3.org/2000/svg">
<path d="M23 19V14C23 12.1599 22.4478 10.4488 21.5 9.02331C20.4642 7.55191 19.7578 6.82798 18 5.93552C16.795 5.33671 15.4368 5 14 5C9.02944 5 5 9.02944 5 14V19" stroke="currentColor" stroke-linecap="round"/>
<path d="M24 17.5V19.5" stroke="currentColor" stroke-linecap="round"/>
<path d="M4 17.5V19.5" stroke="currentColor" stroke-linecap="round"/>
<path d="M5.71587 21.3501L5.29136 21.5932L5.71587 21.3501C5.62439 21.1903 5.56496 20.987 5.53311 20.6433C5.5005 20.2914 5.5 19.8402 5.5 19.1933V17.6276C5.5 16.9745 5.50047 16.5178 5.53254 16.1624C5.56394 15.8142 5.62261 15.6103 5.71167 15.4529C5.81835 15.2643 5.96051 15.1021 6.12821 14.9758C6.26531 14.8725 6.44795 14.7947 6.77283 14.7304C7.10657 14.6643 7.54018 14.621 8.16601 14.5593C8.54243 14.5221 8.78583 14.4988 8.96995 14.5C9.14585 14.5012 9.20591 14.5261 9.23474 14.5427C9.30205 14.5815 9.36164 14.6372 9.40748 14.707C9.43084 14.7425 9.46219 14.8118 9.48051 14.9999C9.49944 15.1944 9.5 15.4524 9.5 15.8446V21.0104C9.5 21.4704 9.49932 21.7751 9.47484 22.0023C9.45103 22.2233 9.4105 22.2988 9.38178 22.3355C9.33904 22.3902 9.28736 22.4343 9.23042 22.4664C9.19843 22.4844 9.13019 22.5112 8.9237 22.495C8.70868 22.478 8.42461 22.4228 7.98901 22.3369C7.37727 22.2163 6.95454 22.1323 6.63146 22.0344C6.31806 21.9394 6.14301 21.8435 6.013 21.7237C5.89669 21.6165 5.79632 21.4906 5.71587 21.3501Z" stroke="currentColor"/>
<path d="M18.5 15.8446C18.5 15.4524 18.5006 15.1944 18.5195 14.9999C18.5378 14.8118 18.5692 14.7425 18.5925 14.707C18.6384 14.6372 18.6979 14.5815 18.7653 14.5427C18.7941 14.5261 18.8542 14.5012 19.03 14.5C19.2142 14.4988 19.4576 14.5221 19.834 14.5593C20.4598 14.621 20.8934 14.6643 21.2272 14.7304C21.552 14.7947 21.7347 14.8725 21.8718 14.9758C22.0395 15.1021 22.1817 15.2643 22.2883 15.4529C22.3774 15.6103 22.4361 15.8142 22.4675 16.1624C22.4995 16.5178 22.5 16.9745 22.5 17.6276V19.1933C22.5 19.8402 22.4995 20.2914 22.4669 20.6433C22.435 20.987 22.3756 21.1903 22.2841 21.3501C22.2037 21.4906 22.1033 21.6165 21.987 21.7237C21.857 21.8435 21.6819 21.9394 21.3685 22.0344C21.0455 22.1323 20.6227 22.2163 20.011 22.3369C19.5754 22.4228 19.2913 22.478 19.0763 22.495C18.8698 22.5112 18.8016 22.4844 18.7696 22.4664C18.7126 22.4343 18.661 22.3902 18.6182 22.3355C18.5895 22.2988 18.549 22.2233 18.5252 22.0023C18.5007 21.7751 18.5 21.4704 18.5 21.0104V15.8446Z" stroke="currentColor"/>
</svg>