<svg width="30" height="30" viewBox="0 0 30 30" fill="none" xmlns="http://www.w3.org/2000/svg">
<path d="M9.53548 16.9072V18.9071L12.8248 15.5748L9.53548 12.2402V14.2401L10.1938 14.9074H5.63086V16.2421H10.1938L9.53548 16.9072Z" fill="currentColor"/>
<path d="M22.9653 6.07031H7.03462C5.31984 6.07031 3.9082 7.48195 3.9082 9.2465V21.9512C3.9082 23.666 5.31984 25.0776 7.03462 25.0776H22.9676C24.6823 25.0776 26.094 23.666 26.094 21.9512V9.2465C26.0917 7.48195 24.6801 6.07031 22.9653 6.07031ZM24.6801 10.4568V11.4137H18.2779C16.0089 11.4137 14.1946 13.228 14.1946 15.4971C14.1946 17.7661 16.0089 19.5804 18.2779 19.5804H24.6823V21.8992C24.6823 22.8561 23.9268 23.614 22.9676 23.614H7.03462C6.07769 23.614 5.31984 22.8584 5.31984 21.8992V9.2465C5.31984 8.28957 6.07543 7.48195 7.03462 7.48195H22.9676C23.9245 7.48195 24.6823 8.23754 24.6823 9.19673V10.4568H24.6801ZM24.6801 12.8254V18.1688H18.2779C16.8165 18.1688 15.6062 16.9585 15.6062 15.4971C15.6062 14.0357 16.8165 12.8254 18.2779 12.8254H24.6801Z" fill="currentColor"/>
<path d="M17.4395 15.5766C17.4395 16.3322 18.0435 16.8865 18.8013 16.8865C19.5569 16.8865 20.1632 16.2825 20.1632 15.5766C20.1632 14.821 19.5592 14.2668 18.8013 14.2668C18.0457 14.2148 17.4395 14.8188 17.4395 15.5766Z" fill="currentColor"/>
</svg>
