<svg width="12" height="13" viewBox="0 0 12 13" fill="none" xmlns="http://www.w3.org/2000/svg">
<path d="M10.375 1.74976H9.0625V1.31226C9.0625 1.19622 9.01641 1.08494 8.93436 1.0029C8.85231 0.920849 8.74103 0.874756 8.625 0.874756C8.50897 0.874756 8.39769 0.920849 8.31564 1.0029C8.23359 1.08494 8.1875 1.19622 8.1875 1.31226V1.74976H3.8125V1.31226C3.8125 1.19622 3.76641 1.08494 3.68436 1.0029C3.60231 0.920849 3.49103 0.874756 3.375 0.874756C3.25897 0.874756 3.14769 0.920849 3.06564 1.0029C2.98359 1.08494 2.9375 1.19622 2.9375 1.31226V1.74976H1.625C1.39301 1.74999 1.17058 1.84225 1.00653 2.00629C0.84249 2.17034 0.750229 2.39276 0.75 2.62476V11.3748C0.750229 11.6067 0.84249 11.8292 1.00653 11.9932C1.17058 12.1573 1.39301 12.2495 1.625 12.2498H10.375C10.607 12.2495 10.8294 12.1573 10.9935 11.9932C11.1575 11.8292 11.2498 11.6067 11.25 11.3748V2.62476C11.2498 2.39276 11.1575 2.17034 10.9935 2.00629C10.8294 1.84225 10.607 1.74998 10.375 1.74976ZM4.68782 10.281C4.51552 10.2815 4.34484 10.2478 4.18564 10.1819C4.02644 10.116 3.88187 10.0192 3.7603 9.89713C3.6782 9.81513 3.63204 9.70387 3.63197 9.58784C3.63191 9.47181 3.67794 9.3605 3.75994 9.27841C3.84193 9.19631 3.95319 9.15015 4.06922 9.15009C4.18525 9.15002 4.29656 9.19605 4.37865 9.27805C4.42955 9.32888 4.4922 9.36638 4.56105 9.38723C4.6299 9.40807 4.70282 9.41162 4.77337 9.39755C4.84392 9.38349 4.90991 9.35224 4.9655 9.30659C5.02109 9.26093 5.06456 9.20227 5.09207 9.1358C5.11958 9.06933 5.13027 8.99711 5.1232 8.92552C5.11614 8.85393 5.09153 8.78519 5.05155 8.72539C5.01158 8.66558 4.95747 8.61655 4.89403 8.58265C4.83058 8.54874 4.75976 8.53101 4.68782 8.53101H4.68755C4.67394 8.53101 4.66032 8.5302 4.64673 8.52892C4.64237 8.52852 4.63813 8.52785 4.63383 8.52734C4.62472 8.5262 4.61564 8.52488 4.60659 8.52318C4.60155 8.52222 4.59655 8.52115 4.59156 8.52003C4.58333 8.51819 4.57514 8.51605 4.56699 8.51372C4.56203 8.51229 4.55706 8.5109 4.55217 8.5093C4.54395 8.50662 4.5358 8.50354 4.52771 8.50035C4.52331 8.49862 4.51885 8.49704 4.51452 8.49517C4.5051 8.4911 4.49583 8.48651 4.48659 8.48173C4.48392 8.48033 4.48112 8.47915 4.47847 8.47771C4.46694 8.47139 4.45561 8.46451 4.44451 8.45707C4.44077 8.45456 4.4373 8.45174 4.43364 8.44912C4.42723 8.44455 4.42074 8.44013 4.41452 8.43514C4.41372 8.4345 4.41302 8.43377 4.41222 8.43312C4.40563 8.42775 4.39943 8.42195 4.39316 8.41621C4.38859 8.41205 4.38378 8.40805 4.37943 8.40373C4.37521 8.39954 4.37139 8.39498 4.36733 8.39062C4.31439 8.33349 4.27758 8.26333 4.26066 8.1873C4.26036 8.18591 4.25988 8.18457 4.25959 8.18318C4.25807 8.17581 4.25716 8.16822 4.25601 8.16072C4.25497 8.15392 4.25363 8.14718 4.25291 8.14035C4.2523 8.13472 4.25222 8.12897 4.25182 8.12328C4.2512 8.11432 4.25054 8.10538 4.25048 8.09639C4.25045 8.09542 4.25032 8.09448 4.25032 8.09351C4.25032 8.08897 4.25085 8.08456 4.25102 8.08005C4.25128 8.07098 4.25155 8.06193 4.25238 8.05288C4.25294 8.04676 4.2539 8.04079 4.25473 8.03476C4.25582 8.02662 4.25689 8.01848 4.25844 8.01039C4.2597 8.00389 4.26132 7.99756 4.26285 7.99115C4.26463 7.9837 4.2664 7.97625 4.26859 7.96886C4.27056 7.96223 4.27289 7.95579 4.27516 7.9493C4.27759 7.94237 4.27996 7.93543 4.28274 7.92858C4.28546 7.92189 4.28856 7.91542 4.29161 7.9089C4.2946 7.90251 4.29748 7.89612 4.30079 7.88983C4.30437 7.88302 4.30838 7.87647 4.3123 7.86987C4.31569 7.8642 4.31895 7.85847 4.32261 7.8529C4.32726 7.84589 4.3323 7.83921 4.33732 7.83249C4.34036 7.82841 4.34298 7.82417 4.34619 7.82018L4.65255 7.43726H4.03157C3.91554 7.43726 3.80426 7.39116 3.72221 7.30912C3.64016 7.22707 3.59407 7.11579 3.59407 6.99976C3.59407 6.88372 3.64016 6.77244 3.72221 6.6904C3.80426 6.60835 3.91554 6.56226 4.03157 6.56226H5.56282C5.64523 6.56226 5.72597 6.58553 5.79573 6.62941C5.8655 6.67328 5.92145 6.73597 5.95715 6.81025C5.99285 6.88452 6.00685 6.96738 5.99752 7.04926C5.9882 7.13114 5.95594 7.20873 5.90446 7.27308L5.41943 7.87937C5.65299 8.03614 5.83 8.26381 5.92434 8.52882C6.01867 8.79383 6.02535 9.08214 5.94338 9.35123C5.8614 9.62032 5.69512 9.85595 5.46906 10.0234C5.243 10.1908 4.96912 10.2811 4.68782 10.281ZM8.18782 9.84351C8.18782 9.95954 8.14173 10.0708 8.05968 10.1529C7.97763 10.2349 7.86635 10.281 7.75032 10.281C7.63429 10.281 7.52301 10.2349 7.44096 10.1529C7.35891 10.0708 7.31282 9.95954 7.31282 9.84351V7.87476L7.13781 8.00603C7.04498 8.07564 6.92829 8.10553 6.81343 8.08912C6.69856 8.0727 6.59492 8.01133 6.5253 7.9185C6.45568 7.82566 6.4258 7.70898 6.44221 7.59411C6.45863 7.47924 6.52 7.3756 6.61283 7.30598L7.48783 6.64973C7.55283 6.60099 7.63012 6.57132 7.71104 6.56402C7.79196 6.55673 7.87331 6.57212 7.94598 6.60846C8.01865 6.64479 8.07976 6.70065 8.12248 6.76976C8.16519 6.83887 8.18782 6.91851 8.18782 6.99976V9.84351ZM10.375 4.37476H1.625V2.62476H2.9375V3.06226C2.9375 3.17829 2.98359 3.28957 3.06564 3.37161C3.14769 3.45366 3.25897 3.49976 3.375 3.49976C3.49103 3.49976 3.60231 3.45366 3.68436 3.37161C3.76641 3.28957 3.8125 3.17829 3.8125 3.06226V2.62476H8.1875V3.06226C8.1875 3.17829 8.23359 3.28957 8.31564 3.37161C8.39769 3.45366 8.50897 3.49976 8.625 3.49976C8.74103 3.49976 8.85231 3.45366 8.93436 3.37161C9.01641 3.28957 9.0625 3.17829 9.0625 3.06226V2.62476H10.375V4.37476Z" fill="currentColor"/>
</svg>
