<svg width="24" height="24" viewBox="0 0 24 24" fill="none" xmlns="http://www.w3.org/2000/svg">
<path d="M3.00023 15.3384L2.50023 15.3384L3.00023 15.3384ZM3 7.17658L3.5 7.17657L3 7.17658ZM12.2501 18.015C12.5263 18.015 12.7501 17.7911 12.7501 17.515C12.7502 17.2389 12.5263 17.015 12.2502 17.015L12.2501 18.015ZM5.17671 17.5149L5.17672 17.0149H5.17672L5.17671 17.5149ZM20.4117 7.17645L19.9117 7.17646V7.17646L20.4117 7.17645ZM3.54371 8.30877C3.26757 8.30877 3.04371 8.53263 3.04371 8.80877C3.04371 9.08492 3.26757 9.30877 3.54371 9.30877V8.30877ZM19.8676 9.30877C20.1438 9.30877 20.3676 9.08492 20.3676 8.80877C20.3676 8.53263 20.1438 8.30877 19.8676 8.30877V9.30877ZM16.0587 13.5927L15.8351 13.1454C15.6657 13.2301 15.5587 13.4033 15.5587 13.5927H16.0587ZM18.7793 19.4874L18.5124 19.9101C18.6755 20.0131 18.8832 20.0131 19.0463 19.9101L18.7793 19.4874ZM21.5 13.5927H22C22 13.4033 21.893 13.2301 21.7236 13.1454L21.5 13.5927ZM17.3193 12.9624L17.5429 13.4096L17.3193 12.9624ZM20.2394 12.9624L20.0158 13.4096H20.0158L20.2394 12.9624ZM5.17652 5.5H18.2347V4.5H5.17652V5.5ZM3.50023 15.3384L3.5 7.17657L2.5 7.17659L2.50023 15.3384L3.50023 15.3384ZM12.2502 17.015L5.17672 17.0149L5.1767 18.0149L12.2501 18.015L12.2502 17.015ZM19.9117 7.17646L19.9117 8.80892L20.9117 8.8089L20.9117 7.17644L19.9117 7.17646ZM5.17652 4.5C3.69829 4.5 2.49996 5.69836 2.5 7.17659L3.5 7.17657C3.49997 6.25063 4.25058 5.5 5.17652 5.5V4.5ZM18.2347 5.5C19.161 5.5 19.9117 6.25049 19.9117 7.17646L20.9117 7.17645C20.9117 5.69788 19.7129 4.5 18.2347 4.5V5.5ZM2.50023 15.3384C2.50028 16.8166 3.69855 18.0148 5.17671 18.0149L5.17672 17.0149C4.25084 17.0148 3.50026 16.2643 3.50023 15.3384L2.50023 15.3384ZM3.54371 9.30877H19.8676V8.30877H3.54371V9.30877ZM17.0957 12.5151L15.8351 13.1454L16.2823 14.0399L17.5429 13.4096L17.0957 12.5151ZM15.5587 13.5927V16.6262H16.5587V13.5927H15.5587ZM15.5587 16.6262C15.5587 17.2333 15.912 17.7926 16.4033 18.2981C16.9049 18.8141 17.6235 19.3488 18.5124 19.9101L19.0463 19.0646C18.1828 18.5193 17.5411 18.0338 17.1204 17.601C16.6895 17.1578 16.5587 16.8398 16.5587 16.6262H15.5587ZM19.0463 19.9101C19.9156 19.3612 20.6403 18.8817 21.1445 18.3939C21.6623 17.893 22 17.3331 22 16.6262H21C21 16.9667 20.8535 17.2841 20.4492 17.6752C20.0312 18.0795 19.3955 18.5069 18.5124 19.0646L19.0463 19.9101ZM22 16.6262C22 16.6241 22 16.6221 22 16.62C22 16.618 22 16.6159 22 16.6139C22 16.6118 22 16.6097 22 16.6077C22 16.6056 22 16.6035 22 16.6015C22 16.5994 22 16.5973 22 16.5952C22 16.5931 22 16.5911 22 16.589C22 16.5869 22 16.5848 22 16.5827C22 16.5806 22 16.5785 22 16.5764C22 16.5743 22 16.5722 22 16.5701C22 16.568 22 16.5659 22 16.5638C22 16.5616 22 16.5595 22 16.5574C22 16.5553 22 16.5531 22 16.551C22 16.5489 22 16.5468 22 16.5446C22 16.5425 22 16.5403 22 16.5382C22 16.5361 22 16.5339 22 16.5318C22 16.5296 22 16.5275 22 16.5253C22 16.5232 22 16.521 22 16.5188C22 16.5167 22 16.5145 22 16.5124C22 16.5102 22 16.508 22 16.5058C22 16.5037 22 16.5015 22 16.4993C22 16.4971 22 16.4949 22 16.4928C22 16.4906 22 16.4884 22 16.4862C22 16.484 22 16.4818 22 16.4796C22 16.4774 22 16.4752 22 16.473C22 16.4708 22 16.4686 22 16.4664C22 16.4642 22 16.4619 22 16.4597C22 16.4575 22 16.4553 22 16.4531C22 16.4508 22 16.4486 22 16.4464C22 16.4442 22 16.4419 22 16.4397C22 16.4375 22 16.4352 22 16.433C22 16.4307 22 16.4285 22 16.4262C22 16.424 22 16.4217 22 16.4195C22 16.4172 22 16.415 22 16.4127C22 16.4105 22 16.4082 22 16.4059C22 16.4037 22 16.4014 22 16.3991C22 16.3969 22 16.3946 22 16.3923C22 16.3901 22 16.3878 22 16.3855C22 16.3832 22 16.3809 22 16.3786C22 16.3764 22 16.3741 22 16.3718C22 16.3695 22 16.3672 22 16.3649C22 16.3626 22 16.3603 22 16.358C22 16.3557 22 16.3534 22 16.3511C22 16.3488 22 16.3465 22 16.3441C22 16.3418 22 16.3395 22 16.3372C22 16.3349 22 16.3326 22 16.3302C22 16.3279 22 16.3256 22 16.3232C22 16.3209 22 16.3186 22 16.3163C22 16.3139 22 16.3116 22 16.3092C22 16.3069 22 16.3046 22 16.3022C22 16.2999 22 16.2975 22 16.2952C22 16.2928 22 16.2905 22 16.2881C22 16.2858 22 16.2834 22 16.2811C22 16.2787 22 16.2763 22 16.274C22 16.2716 22 16.2692 22 16.2669C22 16.2645 22 16.2621 22 16.2598C22 16.2574 22 16.255 22 16.2526C22 16.2502 22 16.2479 22 16.2455C22 16.2431 22 16.2407 22 16.2383C22 16.2359 22 16.2335 22 16.2312C22 16.2288 22 16.2264 22 16.224C22 16.2216 22 16.2192 22 16.2168C22 16.2144 22 16.212 22 16.2096C22 16.2072 22 16.2047 22 16.2023C22 16.1999 22 16.1975 22 16.1951C22 16.1927 22 16.1903 22 16.1878C22 16.1854 22 16.183 22 16.1806C22 16.1782 22 16.1757 22 16.1733C22 16.1709 22 16.1684 22 16.166C22 16.1636 22 16.1611 22 16.1587C22 16.1563 22 16.1538 22 16.1514C22 16.149 22 16.1465 22 16.1441C22 16.1416 22 16.1392 22 16.1367C22 16.1343 22 16.1318 22 16.1294C22 16.1269 22 16.1245 22 16.122C22 16.1196 22 16.1171 22 16.1146C22 16.1122 22 16.1097 22 16.1073C22 16.1048 22 16.1023 22 16.0999C22 16.0974 22 16.0949 22 16.0924C22 16.09 22 16.0875 22 16.085C22 16.0826 22 16.0801 22 16.0776C22 16.0751 22 16.0726 22 16.0702C22 16.0677 22 16.0652 22 16.0627C22 16.0602 22 16.0577 22 16.0552C22 16.0527 22 16.0503 22 16.0478C22 16.0453 22 16.0428 22 16.0403C22 16.0378 22 16.0353 22 16.0328C22 16.0303 22 16.0278 22 16.0253C22 16.0228 22 16.0203 22 16.0178C22 16.0152 22 16.0127 22 16.0102C22 16.0077 22 16.0052 22 16.0027C22 16.0002 22 15.9977 22 15.9951C22 15.9926 22 15.9901 22 15.9876C22 15.9851 22 15.9825 22 15.98C22 15.9775 22 15.975 22 15.9724C22 15.9699 22 15.9674 22 15.9649C22 15.9623 22 15.9598 22 15.9573C22 15.9547 22 15.9522 22 15.9497C22 15.9471 22 15.9446 22 15.9421C22 15.9395 22 15.937 22 15.9344C22 15.9319 22 15.9294 22 15.9268C22 15.9243 22 15.9217 22 15.9192C22 15.9166 22 15.9141 22 15.9115C22 15.909 22 15.9064 22 15.9039C22 15.9013 22 15.8988 22 15.8962C22 15.8937 22 15.8911 22 15.8885C22 15.886 22 15.8834 22 15.8809C22 15.8783 22 15.8758 22 15.8732C22 15.8706 22 15.8681 22 15.8655C22 15.8629 22 15.8604 22 15.8578C22 15.8552 22 15.8527 22 15.8501C22 15.8475 22 15.845 22 15.8424C22 15.8398 22 15.8372 22 15.8347C22 15.8321 22 15.8295 22 15.8269C22 15.8244 22 15.8218 22 15.8192C22 15.8166 22 15.814 22 15.8115C22 15.8089 22 15.8063 22 15.8037C22 15.8011 22 15.7985 22 15.796C22 15.7934 22 15.7908 22 15.7882C22 15.7856 22 15.783 22 15.7804C22 15.7778 22 15.7753 22 15.7727C22 15.7701 22 15.7675 22 15.7649C22 15.7623 22 15.7597 22 15.7571C22 15.7545 22 15.7519 22 15.7493C22 15.7467 22 15.7441 22 15.7415C22 15.7389 22 15.7363 22 15.7337C22 15.7311 22 15.7285 22 15.7259C22 15.7233 22 15.7207 22 15.7181C22 15.7155 22 15.7129 22 15.7103C22 15.7077 22 15.7051 22 15.7025C22 15.6999 22 15.6973 22 15.6947C22 15.692 22 15.6894 22 15.6868C22 15.6842 22 15.6816 22 15.679C22 15.6764 22 15.6738 22 15.6712C22 15.6685 22 15.6659 22 15.6633C22 15.6607 22 15.6581 22 15.6555C22 15.6529 22 15.6502 22 15.6476C22 15.645 22 15.6424 22 15.6398C22 15.6372 22 15.6345 22 15.6319C22 15.6293 22 15.6267 22 15.6241C22 15.6214 22 15.6188 22 15.6162C22 15.6136 22 15.611 22 15.6083C22 15.6057 22 15.6031 22 15.6005C22 15.5978 22 15.5952 22 15.5926C22 15.59 22 15.5873 22 15.5847C22 15.5821 22 15.5795 22 15.5768C22 15.5742 22 15.5716 22 15.569C22 15.5663 22 15.5637 22 15.5611C22 15.5585 22 15.5558 22 15.5532C22 15.5506 22 15.5479 22 15.5453C22 15.5427 22 15.5401 22 15.5374C22 15.5348 22 15.5322 22 15.5295C22 15.5269 22 15.5243 22 15.5216C22 15.519 22 15.5164 22 15.5137C22 15.5111 22 15.5085 22 15.5059C22 15.5032 22 15.5006 22 15.498C22 15.4953 22 15.4927 22 15.4901C22 15.4874 22 15.4848 22 15.4822C22 15.4795 22 15.4769 22 15.4743C22 15.4716 22 15.469 22 15.4664C22 15.4637 22 15.4611 22 15.4585C22 15.4558 22 15.4532 22 15.4506C22 15.4479 22 15.4453 22 15.4427C22 15.44 22 15.4374 22 15.4348C22 15.4321 22 15.4295 22 15.4269C22 15.4242 22 15.4216 22 15.4189C22 15.4163 22 15.4137 22 15.411C22 15.4084 22 15.4058 22 15.4031C22 15.4005 22 15.3979 22 15.3952C22 15.3926 22 15.39 22 15.3873C22 15.3847 22 15.3821 22 15.3794C22 15.3768 22 15.3742 22 15.3715C22 15.3689 22 15.3663 22 15.3636C22 15.361 22 15.3584 22 15.3557C22 15.3531 22 15.3505 22 15.3478C22 15.3452 22 15.3426 22 15.34C22 15.3373 22 15.3347 22 15.3321C22 15.3294 22 15.3268 22 15.3242C22 15.3215 22 15.3189 22 15.3163C22 15.3136 22 15.311 22 15.3084C22 15.3058 22 15.3031 22 15.3005C22 15.2979 22 15.2952 22 15.2926C22 15.29 22 15.2874 22 15.2847C22 15.2821 22 15.2795 22 15.2768C22 15.2742 22 15.2716 22 15.269C22 15.2663 22 15.2637 22 15.2611C22 15.2585 22 15.2558 22 15.2532C22 15.2506 22 15.248 22 15.2453C22 15.2427 22 15.2401 22 15.2375C22 15.2349 22 15.2322 22 15.2296C22 15.227 22 15.2244 22 15.2218C22 15.2191 22 15.2165 22 15.2139C22 15.2113 22 15.2087 22 15.206C22 15.2034 22 15.2008 22 15.1982C22 15.1956 22 15.193 22 15.1903C22 15.1877 22 15.1851 22 15.1825C22 15.1799 22 15.1773 22 15.1747C22 15.1721 22 15.1694 22 15.1668C22 15.1642 22 15.1616 22 15.159C22 15.1564 22 15.1538 22 15.1512C22 15.1486 22 15.146 22 15.1434C22 15.1407 22 15.1381 22 15.1355C22 15.1329 22 15.1303 22 15.1277C22 15.1251 22 15.1225 22 15.1199C22 15.1173 22 15.1147 22 15.1121C22 15.1095 22 15.1069 22 15.1043C22 15.1017 22 15.0991 22 15.0965C22 15.0939 22 15.0913 22 15.0887C22 15.0861 22 15.0836 22 15.081C22 15.0784 22 15.0758 22 15.0732C22 15.0706 22 15.068 22 15.0654C22 15.0628 22 15.0602 22 15.0577C22 15.0551 22 15.0525 22 15.0499C22 15.0473 22 15.0447 22 15.0421C22 15.0396 22 15.037 22 15.0344C22 15.0318 22 15.0292 22 15.0267C22 15.0241 22 15.0215 22 15.0189C22 15.0164 22 15.0138 22 15.0112C22 15.0086 22 15.0061 22 15.0035C22 15.0009 22 14.9984 22 14.9958C22 14.9932 22 14.9906 22 14.9881C22 14.9855 22 14.9829 22 14.9804C22 14.9778 22 14.9753 22 14.9727C22 14.9701 22 14.9676 22 14.965C22 14.9625 22 14.9599 22 14.9573C22 14.9548 22 14.9522 22 14.9497C22 14.9471 22 14.9446 22 14.942C22 14.9395 22 14.9369 22 14.9344C22 14.9318 22 14.9293 22 14.9267C22 14.9242 22 14.9216 22 14.9191C22 14.9165 22 14.914 22 14.9115C22 14.9089 22 14.9064 22 14.9038C22 14.9013 22 14.8988 22 14.8962C22 14.8937 22 14.8912 22 14.8886C22 14.8861 22 14.8836 22 14.8811C22 14.8785 22 14.876 22 14.8735C22 14.8709 22 14.8684 22 14.8659C22 14.8634 22 14.8609 22 14.8583C22 14.8558 22 14.8533 22 14.8508C22 14.8483 22 14.8458 22 14.8432C22 14.8407 22 14.8382 22 14.8357C22 14.8332 22 14.8307 22 14.8282C22 14.8257 22 14.8232 22 14.8207C22 14.8182 22 14.8157 22 14.8132C22 14.8107 22 14.8082 22 14.8057C22 14.8032 22 14.8007 22 14.7982C22 14.7957 22 14.7932 22 14.7907C22 14.7882 22 14.7858 22 14.7833C22 14.7808 22 14.7783 22 14.7758C22 14.7733 22 14.7709 22 14.7684C22 14.7659 22 14.7634 22 14.7609C22 14.7585 22 14.756 22 14.7535C22 14.7511 22 14.7486 22 14.7461C22 14.7437 22 14.7412 22 14.7387C22 14.7363 22 14.7338 22 14.7314C22 14.7289 22 14.7264 22 14.724C22 14.7215 22 14.7191 22 14.7166C22 14.7142 22 14.7117 22 14.7093C22 14.7068 22 14.7044 22 14.7019C22 14.6995 22 14.6971 22 14.6946C22 14.6922 22 14.6897 22 14.6873C22 14.6849 22 14.6824 22 14.68C22 14.6776 22 14.6751 22 14.6727C22 14.6703 22 14.6679 22 14.6655C22 14.663 22 14.6606 22 14.6582C22 14.6558 22 14.6534 22 14.6509C22 14.6485 22 14.6461 22 14.6437C22 14.6413 22 14.6389 22 14.6365C22 14.6341 22 14.6317 22 14.6293C22 14.6269 22 14.6245 22 14.6221C22 14.6197 22 14.6173 22 14.6149C22 14.6125 22 14.6101 22 14.6077C22 14.6054 22 14.603 22 14.6006C22 14.5982 22 14.5958 22 14.5935C22 14.5911 22 14.5887 22 14.5863C22 14.584 22 14.5816 22 14.5792C22 14.5769 22 14.5745 22 14.5721C22 14.5698 22 14.5674 22 14.5651C22 14.5627 22 14.5603 22 14.558C22 14.5556 22 14.5533 22 14.5509C22 14.5486 22 14.5462 22 14.5439C22 14.5416 22 14.5392 22 14.5369C22 14.5345 22 14.5322 22 14.5299C22 14.5275 22 14.5252 22 14.5229C22 14.5206 22 14.5182 22 14.5159C22 14.5136 22 14.5113 22 14.509C22 14.5066 22 14.5043 22 14.502C22 14.4997 22 14.4974 22 14.4951C22 14.4928 22 14.4905 22 14.4882C22 14.4859 22 14.4836 22 14.4813C22 14.479 22 14.4767 22 14.4744C22 14.4721 22 14.4698 22 14.4675C22 14.4653 22 14.463 22 14.4607C22 14.4584 22 14.4561 22 14.4539C22 14.4516 22 14.4493 22 14.4471C22 14.4448 22 14.4425 22 14.4403C22 14.438 22 14.4357 22 14.4335C22 14.4312 22 14.429 22 14.4267C22 14.4245 22 14.4222 22 14.42C22 14.4177 22 14.4155 22 14.4133C22 14.411 22 14.4088 22 14.4066C22 14.4043 22 14.4021 22 14.3999C22 14.3976 22 14.3954 22 14.3932C22 14.391 22 14.3888 22 14.3865C22 14.3843 22 14.3821 22 14.3799C22 14.3777 22 14.3755 22 14.3733C22 14.3711 22 14.3689 22 14.3667C22 14.3645 22 14.3623 22 14.3601C22 14.3579 22 14.3557 22 14.3535C22 14.3514 22 14.3492 22 14.347C22 14.3448 22 14.3426 22 14.3405C22 14.3383 22 14.3361 22 14.334C22 14.3318 22 14.3296 22 14.3275C22 14.3253 22 14.3232 22 14.321C22 14.3189 22 14.3167 22 14.3146C22 14.3124 22 14.3103 22 14.3081C22 14.306 22 14.3039 22 14.3017C22 14.2996 22 14.2975 22 14.2953C22 14.2932 22 14.2911 22 14.289C22 14.2869 22 14.2847 22 14.2826C22 14.2805 22 14.2784 22 14.2763C22 14.2742 22 14.2721 22 14.27C22 14.2679 22 14.2658 22 14.2637C22 14.2616 22 14.2595 22 14.2574C22 14.2553 22 14.2533 22 14.2512C22 14.2491 22 14.247 22 14.245C22 14.2429 22 14.2408 22 14.2388C22 14.2367 22 14.2346 22 14.2326C22 14.2305 22 14.2285 22 14.2264C22 14.2244 22 14.2223 22 14.2203C22 14.2182 22 14.2162 22 14.2142C22 14.2121 22 14.2101 22 14.2081C22 14.206 22 14.204 22 14.202C22 14.2 22 14.1979 22 14.1959C22 14.1939 22 14.1919 22 14.1899C22 14.1879 22 14.1859 22 14.1839C22 14.1819 22 14.1799 22 14.1779C22 14.1759 22 14.1739 22 14.1719C22 14.17 22 14.168 22 14.166C22 14.164 22 14.162 22 14.1601C22 14.1581 22 14.1561 22 14.1542C22 14.1522 22 14.1503 22 14.1483C22 14.1464 22 14.1444 22 14.1425C22 14.1405 22 14.1386 22 14.1366C22 14.1347 22 14.1328 22 14.1308C22 14.1289 22 14.127 22 14.125C22 14.1231 22 14.1212 22 14.1193C22 14.1174 22 14.1155 22 14.1136C22 14.1117 22 14.1097 22 14.1078C22 14.106 22 14.1041 22 14.1022C22 14.1003 22 14.0984 22 14.0965C22 14.0946 22 14.0927 22 14.0909C22 14.089 22 14.0871 22 14.0853C22 14.0834 22 14.0815 22 14.0797C22 14.0778 22 14.076 22 14.0741C22 14.0723 22 14.0704 22 14.0686C22 14.0667 22 14.0649 22 14.0631C22 14.0612 22 14.0594 22 14.0576C22 14.0557 22 14.0539 22 14.0521C22 14.0503 22 14.0485 22 14.0467C22 14.0449 22 14.0431 22 14.0413C22 14.0395 22 14.0377 22 14.0359C22 14.0341 22 14.0323 22 14.0305C22 14.0287 22 14.0269 22 14.0252C22 14.0234 22 14.0216 22 14.0199C22 14.0181 22 14.0163 22 14.0146C22 14.0128 22 14.0111 22 14.0093C22 14.0076 22 14.0058 22 14.0041C22 14.0024 22 14.0006 22 13.9989C22 13.9972 22 13.9954 22 13.9937C22 13.992 22 13.9903 22 13.9886C22 13.9869 22 13.9851 22 13.9834C22 13.9817 22 13.98 22 13.9783C22 13.9766 22 13.975 22 13.9733C22 13.9716 22 13.9699 22 13.9682C22 13.9666 22 13.9649 22 13.9632C22 13.9616 22 13.9599 22 13.9582C22 13.9566 22 13.9549 22 13.9533C22 13.9516 22 13.95 22 13.9483C22 13.9467 22 13.9451 22 13.9434C22 13.9418 22 13.9402 22 13.9386C22 13.9369 22 13.9353 22 13.9337C22 13.9321 22 13.9305 22 13.9289C22 13.9273 22 13.9257 22 13.9241C22 13.9225 22 13.9209 22 13.9193C22 13.9178 22 13.9162 22 13.9146C22 13.913 22 13.9115 22 13.9099C22 13.9083 22 13.9068 22 13.9052C22 13.9037 22 13.9021 22 13.9006C22 13.899 22 13.8975 22 13.896C22 13.8944 22 13.8929 22 13.8914C22 13.8899 22 13.8883 22 13.8868C22 13.8853 22 13.8838 22 13.8823C22 13.8808 22 13.8793 22 13.8778C22 13.8763 22 13.8748 22 13.8733C22 13.8718 22 13.8704 22 13.8689C22 13.8674 22 13.8659 22 13.8645C22 13.863 22 13.8616 22 13.8601C22 13.8586 22 13.8572 22 13.8558C22 13.8543 22 13.8529 22 13.8514C22 13.85 22 13.8486 22 13.8471C22 13.8457 22 13.8443 22 13.8429C22 13.8415 22 13.8401 22 13.8387C22 13.8373 22 13.8359 22 13.8345C22 13.8331 22 13.8317 22 13.8303C22 13.8289 22 13.8276 22 13.8262C22 13.8248 22 13.8234 22 13.8221C22 13.8207 22 13.8194 22 13.818C22 13.8167 22 13.8153 22 13.814C22 13.8126 22 13.8113 22 13.81C22 13.8086 22 13.8073 22 13.806C22 13.8047 22 13.8034 22 13.8021C22 13.8007 22 13.7994 22 13.7982C22 13.7969 22 13.7956 22 13.7943C22 13.793 22 13.7917 22 13.7904C22 13.7892 22 13.7879 22 13.7866C22 13.7854 22 13.7841 22 13.7828C22 13.7816 22 13.7803 22 13.7791C22 13.7779 22 13.7766 22 13.7754C22 13.7742 22 13.7729 22 13.7717C22 13.7705 22 13.7693 22 13.7681C22 13.7669 22 13.7656 22 13.7644C22 13.7633 22 13.7621 22 13.7609C22 13.7597 22 13.7585 22 13.7573C22 13.7561 22 13.755 22 13.7538C22 13.7527 22 13.7515 22 13.7503C22 13.7492 22 13.748 22 13.7469C22 13.7458 22 13.7446 22 13.7435C22 13.7424 22 13.7412 22 13.7401C22 13.739 22 13.7379 22 13.7368C22 13.7357 22 13.7346 22 13.7335C22 13.7324 22 13.7313 22 13.7302C22 13.7291 22 13.728 22 13.727C22 13.7259 22 13.7248 22 13.7238C22 13.7227 22 13.7216 22 13.7206C22 13.7195 22 13.7185 22 13.7175C22 13.7164 22 13.7154 22 13.7144C22 13.7133 22 13.7123 22 13.7113C22 13.7103 22 13.7093 22 13.7083C22 13.7073 22 13.7063 22 13.7053C22 13.7043 22 13.7033 22 13.7023C22 13.7014 22 13.7004 22 13.6994C22 13.6985 22 13.6975 22 13.6965C22 13.6956 22 13.6946 22 13.6937C22 13.6928 22 13.6918 22 13.6909C22 13.69 22 13.689 22 13.6881C22 13.6872 22 13.6863 22 13.6854C22 13.6845 22 13.6836 22 13.6827C22 13.6818 22 13.6809 22 13.68C22 13.6792 22 13.6783 22 13.6774C22 13.6765 22 13.6757 22 13.6748C22 13.674 22 13.6731 22 13.6723C22 13.6714 22 13.6706 22 13.6698C22 13.6689 22 13.6681 22 13.6673C22 13.6665 22 13.6657 22 13.6649C22 13.6641 22 13.6633 22 13.6625C22 13.6617 22 13.6609 22 13.6601C22 13.6593 22 13.6585 22 13.6578C22 13.657 22 13.6563 22 13.6555C22 13.6547 22 13.654 22 13.6533C22 13.6525 22 13.6518 22 13.651C22 13.6503 22 13.6496 22 13.6489C22 13.6482 22 13.6475 22 13.6468C22 13.646 22 13.6454 22 13.6447C22 13.644 22 13.6433 22 13.6426C22 13.6419 22 13.6413 22 13.6406C22 13.6399 22 13.6393 22 13.6386C22 13.638 22 13.6373 22 13.6367C22 13.6361 22 13.6354 22 13.6348C22 13.6342 22 13.6336 22 13.6329C22 13.6323 22 13.6317 22 13.6311C22 13.6305 22 13.6299 22 13.6294C22 13.6288 22 13.6282 22 13.6276C22 13.6271 22 13.6265 22 13.6259C22 13.6254 22 13.6248 22 13.6243C22 13.6237 22 13.6232 22 13.6227C22 13.6221 22 13.6216 22 13.6211C22 13.6206 22 13.6201 22 13.6196C22 13.6191 22 13.6186 22 13.6181C22 13.6176 22 13.6171 22 13.6166C22 13.6161 22 13.6157 22 13.6152C22 13.6147 22 13.6143 22 13.6138C22 13.6134 22 13.613 22 13.6125C22 13.6121 22 13.6117 22 13.6112C22 13.6108 22 13.6104 22 13.61C22 13.6096 22 13.6092 22 13.6088C22 13.6084 22 13.608 22 13.6076C22 13.6073 22 13.6069 22 13.6065C22 13.6062 22 13.6058 22 13.6054C22 13.6051 22 13.6047 22 13.6044C22 13.6041 22 13.6037 22 13.6034C22 13.6031 22 13.6028 22 13.6025C22 13.6022 22 13.6019 22 13.6016C22 13.6013 22 13.601 22 13.6007C22 13.6004 22 13.6002 22 13.5999C22 13.5996 22 13.5994 22 13.5991C22 13.5989 22 13.5986 22 13.5984C22 13.5981 22 13.5979 22 13.5977C22 13.5975 22 13.5973 22 13.597C22 13.5968 22 13.5966 22 13.5964C22 13.5963 22 13.5961 22 13.5959C22 13.5957 22 13.5955 22 13.5954C22 13.5952 22 13.5951 22 13.5949C22 13.5948 22 13.5946 22 13.5945C22 13.5943 22 13.5942 22 13.5941C22 13.594 22 13.5939 22 13.5938C22 13.5937 22 13.5936 22 13.5935C22 13.5934 22 13.5933 22 13.5932C22 13.5931 22 13.5931 22 13.593C22 13.593 22 13.5929 22 13.5929C22 13.5928 22 13.5928 22 13.5927C22 13.5927 22 13.5927 22 13.5927C22 13.5927 22 13.5927 21.5 13.5927C21 13.5927 21 13.5927 21 13.5927C21 13.5927 21 13.5927 21 13.5927C21 13.5928 21 13.5928 21 13.5929C21 13.5929 21 13.593 21 13.593C21 13.5931 21 13.5931 21 13.5932C21 13.5933 21 13.5934 21 13.5935C21 13.5936 21 13.5937 21 13.5938C21 13.5939 21 13.594 21 13.5941C21 13.5942 21 13.5943 21 13.5945C21 13.5946 21 13.5948 21 13.5949C21 13.5951 21 13.5952 21 13.5954C21 13.5955 21 13.5957 21 13.5959C21 13.5961 21 13.5963 21 13.5964C21 13.5966 21 13.5968 21 13.597C21 13.5973 21 13.5975 21 13.5977C21 13.5979 21 13.5981 21 13.5984C21 13.5986 21 13.5989 21 13.5991C21 13.5994 21 13.5996 21 13.5999C21 13.6002 21 13.6004 21 13.6007C21 13.601 21 13.6013 21 13.6016C21 13.6019 21 13.6022 21 13.6025C21 13.6028 21 13.6031 21 13.6034C21 13.6037 21 13.6041 21 13.6044C21 13.6047 21 13.6051 21 13.6054C21 13.6058 21 13.6062 21 13.6065C21 13.6069 21 13.6073 21 13.6076C21 13.608 21 13.6084 21 13.6088C21 13.6092 21 13.6096 21 13.61C21 13.6104 21 13.6108 21 13.6112C21 13.6117 21 13.6121 21 13.6125C21 13.613 21 13.6134 21 13.6138C21 13.6143 21 13.6147 21 13.6152C21 13.6157 21 13.6161 21 13.6166C21 13.6171 21 13.6176 21 13.6181C21 13.6186 21 13.6191 21 13.6196C21 13.6201 21 13.6206 21 13.6211C21 13.6216 21 13.6221 21 13.6227C21 13.6232 21 13.6237 21 13.6243C21 13.6248 21 13.6254 21 13.6259C21 13.6265 21 13.6271 21 13.6276C21 13.6282 21 13.6288 21 13.6294C21 13.6299 21 13.6305 21 13.6311C21 13.6317 21 13.6323 21 13.6329C21 13.6336 21 13.6342 21 13.6348C21 13.6354 21 13.6361 21 13.6367C21 13.6373 21 13.638 21 13.6386C21 13.6393 21 13.6399 21 13.6406C21 13.6413 21 13.6419 21 13.6426C21 13.6433 21 13.644 21 13.6447C21 13.6454 21 13.646 21 13.6468C21 13.6475 21 13.6482 21 13.6489C21 13.6496 21 13.6503 21 13.651C21 13.6518 21 13.6525 21 13.6533C21 13.654 21 13.6547 21 13.6555C21 13.6563 21 13.657 21 13.6578C21 13.6585 21 13.6593 21 13.6601C21 13.6609 21 13.6617 21 13.6625C21 13.6633 21 13.6641 21 13.6649C21 13.6657 21 13.6665 21 13.6673C21 13.6681 21 13.6689 21 13.6698C21 13.6706 21 13.6714 21 13.6723C21 13.6731 21 13.674 21 13.6748C21 13.6757 21 13.6765 21 13.6774C21 13.6783 21 13.6792 21 13.68C21 13.6809 21 13.6818 21 13.6827C21 13.6836 21 13.6845 21 13.6854C21 13.6863 21 13.6872 21 13.6881C21 13.689 21 13.69 21 13.6909C21 13.6918 21 13.6928 21 13.6937C21 13.6946 21 13.6956 21 13.6965C21 13.6975 21 13.6985 21 13.6994C21 13.7004 21 13.7014 21 13.7023C21 13.7033 21 13.7043 21 13.7053C21 13.7063 21 13.7073 21 13.7083C21 13.7093 21 13.7103 21 13.7113C21 13.7123 21 13.7133 21 13.7144C21 13.7154 21 13.7164 21 13.7175C21 13.7185 21 13.7195 21 13.7206C21 13.7216 21 13.7227 21 13.7238C21 13.7248 21 13.7259 21 13.727C21 13.728 21 13.7291 21 13.7302C21 13.7313 21 13.7324 21 13.7335C21 13.7346 21 13.7357 21 13.7368C21 13.7379 21 13.739 21 13.7401C21 13.7412 21 13.7424 21 13.7435C21 13.7446 21 13.7458 21 13.7469C21 13.748 21 13.7492 21 13.7503C21 13.7515 21 13.7527 21 13.7538C21 13.755 21 13.7561 21 13.7573C21 13.7585 21 13.7597 21 13.7609C21 13.7621 21 13.7633 21 13.7644C21 13.7656 21 13.7669 21 13.7681C21 13.7693 21 13.7705 21 13.7717C21 13.7729 21 13.7742 21 13.7754C21 13.7766 21 13.7779 21 13.7791C21 13.7803 21 13.7816 21 13.7828C21 13.7841 21 13.7854 21 13.7866C21 13.7879 21 13.7892 21 13.7904C21 13.7917 21 13.793 21 13.7943C21 13.7956 21 13.7969 21 13.7982C21 13.7994 21 13.8007 21 13.8021C21 13.8034 21 13.8047 21 13.806C21 13.8073 21 13.8086 21 13.81C21 13.8113 21 13.8126 21 13.814C21 13.8153 21 13.8167 21 13.818C21 13.8194 21 13.8207 21 13.8221C21 13.8234 21 13.8248 21 13.8262C21 13.8276 21 13.8289 21 13.8303C21 13.8317 21 13.8331 21 13.8345C21 13.8359 21 13.8373 21 13.8387C21 13.8401 21 13.8415 21 13.8429C21 13.8443 21 13.8457 21 13.8471C21 13.8486 21 13.85 21 13.8514C21 13.8529 21 13.8543 21 13.8558C21 13.8572 21 13.8586 21 13.8601C21 13.8616 21 13.863 21 13.8645C21 13.8659 21 13.8674 21 13.8689C21 13.8704 21 13.8718 21 13.8733C21 13.8748 21 13.8763 21 13.8778C21 13.8793 21 13.8808 21 13.8823C21 13.8838 21 13.8853 21 13.8868C21 13.8883 21 13.8899 21 13.8914C21 13.8929 21 13.8944 21 13.896C21 13.8975 21 13.899 21 13.9006C21 13.9021 21 13.9037 21 13.9052C21 13.9068 21 13.9083 21 13.9099C21 13.9115 21 13.913 21 13.9146C21 13.9162 21 13.9178 21 13.9193C21 13.9209 21 13.9225 21 13.9241C21 13.9257 21 13.9273 21 13.9289C21 13.9305 21 13.9321 21 13.9337C21 13.9353 21 13.9369 21 13.9386C21 13.9402 21 13.9418 21 13.9434C21 13.9451 21 13.9467 21 13.9483C21 13.95 21 13.9516 21 13.9533C21 13.9549 21 13.9566 21 13.9582C21 13.9599 21 13.9616 21 13.9632C21 13.9649 21 13.9666 21 13.9682C21 13.9699 21 13.9716 21 13.9733C21 13.975 21 13.9766 21 13.9783C21 13.98 21 13.9817 21 13.9834C21 13.9851 21 13.9869 21 13.9886C21 13.9903 21 13.992 21 13.9937C21 13.9954 21 13.9972 21 13.9989C21 14.0006 21 14.0024 21 14.0041C21 14.0058 21 14.0076 21 14.0093C21 14.0111 21 14.0128 21 14.0146C21 14.0163 21 14.0181 21 14.0199C21 14.0216 21 14.0234 21 14.0252C21 14.0269 21 14.0287 21 14.0305C21 14.0323 21 14.0341 21 14.0359C21 14.0377 21 14.0395 21 14.0413C21 14.0431 21 14.0449 21 14.0467C21 14.0485 21 14.0503 21 14.0521C21 14.0539 21 14.0557 21 14.0576C21 14.0594 21 14.0612 21 14.0631C21 14.0649 21 14.0667 21 14.0686C21 14.0704 21 14.0723 21 14.0741C21 14.076 21 14.0778 21 14.0797C21 14.0815 21 14.0834 21 14.0853C21 14.0871 21 14.089 21 14.0909C21 14.0927 21 14.0946 21 14.0965C21 14.0984 21 14.1003 21 14.1022C21 14.1041 21 14.106 21 14.1078C21 14.1097 21 14.1117 21 14.1136C21 14.1155 21 14.1174 21 14.1193C21 14.1212 21 14.1231 21 14.125C21 14.127 21 14.1289 21 14.1308C21 14.1328 21 14.1347 21 14.1366C21 14.1386 21 14.1405 21 14.1425C21 14.1444 21 14.1464 21 14.1483C21 14.1503 21 14.1522 21 14.1542C21 14.1561 21 14.1581 21 14.1601C21 14.162 21 14.164 21 14.166C21 14.168 21 14.17 21 14.1719C21 14.1739 21 14.1759 21 14.1779C21 14.1799 21 14.1819 21 14.1839C21 14.1859 21 14.1879 21 14.1899C21 14.1919 21 14.1939 21 14.1959C21 14.1979 21 14.2 21 14.202C21 14.204 21 14.206 21 14.2081C21 14.2101 21 14.2121 21 14.2142C21 14.2162 21 14.2182 21 14.2203C21 14.2223 21 14.2244 21 14.2264C21 14.2285 21 14.2305 21 14.2326C21 14.2346 21 14.2367 21 14.2388C21 14.2408 21 14.2429 21 14.245C21 14.247 21 14.2491 21 14.2512C21 14.2533 21 14.2553 21 14.2574C21 14.2595 21 14.2616 21 14.2637C21 14.2658 21 14.2679 21 14.27C21 14.2721 21 14.2742 21 14.2763C21 14.2784 21 14.2805 21 14.2826C21 14.2847 21 14.2869 21 14.289C21 14.2911 21 14.2932 21 14.2953C21 14.2975 21 14.2996 21 14.3017C21 14.3039 21 14.306 21 14.3081C21 14.3103 21 14.3124 21 14.3146C21 14.3167 21 14.3189 21 14.321C21 14.3232 21 14.3253 21 14.3275C21 14.3296 21 14.3318 21 14.334C21 14.3361 21 14.3383 21 14.3405C21 14.3426 21 14.3448 21 14.347C21 14.3492 21 14.3514 21 14.3535C21 14.3557 21 14.3579 21 14.3601C21 14.3623 21 14.3645 21 14.3667C21 14.3689 21 14.3711 21 14.3733C21 14.3755 21 14.3777 21 14.3799C21 14.3821 21 14.3843 21 14.3865C21 14.3888 21 14.391 21 14.3932C21 14.3954 21 14.3976 21 14.3999C21 14.4021 21 14.4043 21 14.4066C21 14.4088 21 14.411 21 14.4133C21 14.4155 21 14.4177 21 14.42C21 14.4222 21 14.4245 21 14.4267C21 14.429 21 14.4312 21 14.4335C21 14.4357 21 14.438 21 14.4403C21 14.4425 21 14.4448 21 14.4471C21 14.4493 21 14.4516 21 14.4539C21 14.4561 21 14.4584 21 14.4607C21 14.463 21 14.4653 21 14.4675C21 14.4698 21 14.4721 21 14.4744C21 14.4767 21 14.479 21 14.4813C21 14.4836 21 14.4859 21 14.4882C21 14.4905 21 14.4928 21 14.4951C21 14.4974 21 14.4997 21 14.502C21 14.5043 21 14.5066 21 14.509C21 14.5113 21 14.5136 21 14.5159C21 14.5182 21 14.5206 21 14.5229C21 14.5252 21 14.5275 21 14.5299C21 14.5322 21 14.5345 21 14.5369C21 14.5392 21 14.5416 21 14.5439C21 14.5462 21 14.5486 21 14.5509C21 14.5533 21 14.5556 21 14.558C21 14.5603 21 14.5627 21 14.5651C21 14.5674 21 14.5698 21 14.5721C21 14.5745 21 14.5769 21 14.5792C21 14.5816 21 14.584 21 14.5863C21 14.5887 21 14.5911 21 14.5935C21 14.5958 21 14.5982 21 14.6006C21 14.603 21 14.6054 21 14.6077C21 14.6101 21 14.6125 21 14.6149C21 14.6173 21 14.6197 21 14.6221C21 14.6245 21 14.6269 21 14.6293C21 14.6317 21 14.6341 21 14.6365C21 14.6389 21 14.6413 21 14.6437C21 14.6461 21 14.6485 21 14.6509C21 14.6534 21 14.6558 21 14.6582C21 14.6606 21 14.663 21 14.6655C21 14.6679 21 14.6703 21 14.6727C21 14.6751 21 14.6776 21 14.68C21 14.6824 21 14.6849 21 14.6873C21 14.6897 21 14.6922 21 14.6946C21 14.6971 21 14.6995 21 14.7019C21 14.7044 21 14.7068 21 14.7093C21 14.7117 21 14.7142 21 14.7166C21 14.7191 21 14.7215 21 14.724C21 14.7264 21 14.7289 21 14.7314C21 14.7338 21 14.7363 21 14.7387C21 14.7412 21 14.7437 21 14.7461C21 14.7486 21 14.7511 21 14.7535C21 14.756 21 14.7585 21 14.7609C21 14.7634 21 14.7659 21 14.7684C21 14.7709 21 14.7733 21 14.7758C21 14.7783 21 14.7808 21 14.7833C21 14.7858 21 14.7882 21 14.7907C21 14.7932 21 14.7957 21 14.7982C21 14.8007 21 14.8032 21 14.8057C21 14.8082 21 14.8107 21 14.8132C21 14.8157 21 14.8182 21 14.8207C21 14.8232 21 14.8257 21 14.8282C21 14.8307 21 14.8332 21 14.8357C21 14.8382 21 14.8407 21 14.8432C21 14.8458 21 14.8483 21 14.8508C21 14.8533 21 14.8558 21 14.8583C21 14.8609 21 14.8634 21 14.8659C21 14.8684 21 14.8709 21 14.8735C21 14.876 21 14.8785 21 14.8811C21 14.8836 21 14.8861 21 14.8886C21 14.8912 21 14.8937 21 14.8962C21 14.8988 21 14.9013 21 14.9038C21 14.9064 21 14.9089 21 14.9115C21 14.914 21 14.9165 21 14.9191C21 14.9216 21 14.9242 21 14.9267C21 14.9293 21 14.9318 21 14.9344C21 14.9369 21 14.9395 21 14.942C21 14.9446 21 14.9471 21 14.9497C21 14.9522 21 14.9548 21 14.9573C21 14.9599 21 14.9625 21 14.965C21 14.9676 21 14.9701 21 14.9727C21 14.9753 21 14.9778 21 14.9804C21 14.9829 21 14.9855 21 14.9881C21 14.9906 21 14.9932 21 14.9958C21 14.9984 21 15.0009 21 15.0035C21 15.0061 21 15.0086 21 15.0112C21 15.0138 21 15.0164 21 15.0189C21 15.0215 21 15.0241 21 15.0267C21 15.0292 21 15.0318 21 15.0344C21 15.037 21 15.0396 21 15.0421C21 15.0447 21 15.0473 21 15.0499C21 15.0525 21 15.0551 21 15.0577C21 15.0602 21 15.0628 21 15.0654C21 15.068 21 15.0706 21 15.0732C21 15.0758 21 15.0784 21 15.081C21 15.0836 21 15.0861 21 15.0887C21 15.0913 21 15.0939 21 15.0965C21 15.0991 21 15.1017 21 15.1043C21 15.1069 21 15.1095 21 15.1121C21 15.1147 21 15.1173 21 15.1199C21 15.1225 21 15.1251 21 15.1277C21 15.1303 21 15.1329 21 15.1355C21 15.1381 21 15.1407 21 15.1434C21 15.146 21 15.1486 21 15.1512C21 15.1538 21 15.1564 21 15.159C21 15.1616 21 15.1642 21 15.1668C21 15.1694 21 15.1721 21 15.1747C21 15.1773 21 15.1799 21 15.1825C21 15.1851 21 15.1877 21 15.1903C21 15.193 21 15.1956 21 15.1982C21 15.2008 21 15.2034 21 15.206C21 15.2087 21 15.2113 21 15.2139C21 15.2165 21 15.2191 21 15.2218C21 15.2244 21 15.227 21 15.2296C21 15.2322 21 15.2349 21 15.2375C21 15.2401 21 15.2427 21 15.2453C21 15.248 21 15.2506 21 15.2532C21 15.2558 21 15.2585 21 15.2611C21 15.2637 21 15.2663 21 15.269C21 15.2716 21 15.2742 21 15.2768C21 15.2795 21 15.2821 21 15.2847C21 15.2874 21 15.29 21 15.2926C21 15.2952 21 15.2979 21 15.3005C21 15.3031 21 15.3058 21 15.3084C21 15.311 21 15.3136 21 15.3163C21 15.3189 21 15.3215 21 15.3242C21 15.3268 21 15.3294 21 15.3321C21 15.3347 21 15.3373 21 15.34C21 15.3426 21 15.3452 21 15.3478C21 15.3505 21 15.3531 21 15.3557C21 15.3584 21 15.361 21 15.3636C21 15.3663 21 15.3689 21 15.3715C21 15.3742 21 15.3768 21 15.3794C21 15.3821 21 15.3847 21 15.3873C21 15.39 21 15.3926 21 15.3952C21 15.3979 21 15.4005 21 15.4031C21 15.4058 21 15.4084 21 15.411C21 15.4137 21 15.4163 21 15.4189C21 15.4216 21 15.4242 21 15.4269C21 15.4295 21 15.4321 21 15.4348C21 15.4374 21 15.44 21 15.4427C21 15.4453 21 15.4479 21 15.4506C21 15.4532 21 15.4558 21 15.4585C21 15.4611 21 15.4637 21 15.4664C21 15.469 21 15.4716 21 15.4743C21 15.4769 21 15.4795 21 15.4822C21 15.4848 21 15.4874 21 15.4901C21 15.4927 21 15.4953 21 15.498C21 15.5006 21 15.5032 21 15.5059C21 15.5085 21 15.5111 21 15.5137C21 15.5164 21 15.519 21 15.5216C21 15.5243 21 15.5269 21 15.5295C21 15.5322 21 15.5348 21 15.5374C21 15.5401 21 15.5427 21 15.5453C21 15.5479 21 15.5506 21 15.5532C21 15.5558 21 15.5585 21 15.5611C21 15.5637 21 15.5663 21 15.569C21 15.5716 21 15.5742 21 15.5768C21 15.5795 21 15.5821 21 15.5847C21 15.5873 21 15.59 21 15.5926C21 15.5952 21 15.5978 21 15.6005C21 15.6031 21 15.6057 21 15.6083C21 15.611 21 15.6136 21 15.6162C21 15.6188 21 15.6214 21 15.6241C21 15.6267 21 15.6293 21 15.6319C21 15.6345 21 15.6372 21 15.6398C21 15.6424 21 15.645 21 15.6476C21 15.6502 21 15.6529 21 15.6555C21 15.6581 21 15.6607 21 15.6633C21 15.6659 21 15.6685 21 15.6712C21 15.6738 21 15.6764 21 15.679C21 15.6816 21 15.6842 21 15.6868C21 15.6894 21 15.692 21 15.6947C21 15.6973 21 15.6999 21 15.7025C21 15.7051 21 15.7077 21 15.7103C21 15.7129 21 15.7155 21 15.7181C21 15.7207 21 15.7233 21 15.7259C21 15.7285 21 15.7311 21 15.7337C21 15.7363 21 15.7389 21 15.7415C21 15.7441 21 15.7467 21 15.7493C21 15.7519 21 15.7545 21 15.7571C21 15.7597 21 15.7623 21 15.7649C21 15.7675 21 15.7701 21 15.7727C21 15.7753 21 15.7778 21 15.7804C21 15.783 21 15.7856 21 15.7882C21 15.7908 21 15.7934 21 15.796C21 15.7985 21 15.8011 21 15.8037C21 15.8063 21 15.8089 21 15.8115C21 15.814 21 15.8166 21 15.8192C21 15.8218 21 15.8244 21 15.8269C21 15.8295 21 15.8321 21 15.8347C21 15.8372 21 15.8398 21 15.8424C21 15.845 21 15.8475 21 15.8501C21 15.8527 21 15.8552 21 15.8578C21 15.8604 21 15.8629 21 15.8655C21 15.8681 21 15.8706 21 15.8732C21 15.8758 21 15.8783 21 15.8809C21 15.8834 21 15.886 21 15.8885C21 15.8911 21 15.8937 21 15.8962C21 15.8988 21 15.9013 21 15.9039C21 15.9064 21 15.909 21 15.9115C21 15.9141 21 15.9166 21 15.9192C21 15.9217 21 15.9243 21 15.9268C21 15.9294 21 15.9319 21 15.9344C21 15.937 21 15.9395 21 15.9421C21 15.9446 21 15.9471 21 15.9497C21 15.9522 21 15.9547 21 15.9573C21 15.9598 21 15.9623 21 15.9649C21 15.9674 21 15.9699 21 15.9724C21 15.975 21 15.9775 21 15.98C21 15.9825 21 15.9851 21 15.9876C21 15.9901 21 15.9926 21 15.9951C21 15.9977 21 16.0002 21 16.0027C21 16.0052 21 16.0077 21 16.0102C21 16.0127 21 16.0152 21 16.0178C21 16.0203 21 16.0228 21 16.0253C21 16.0278 21 16.0303 21 16.0328C21 16.0353 21 16.0378 21 16.0403C21 16.0428 21 16.0453 21 16.0478C21 16.0503 21 16.0527 21 16.0552C21 16.0577 21 16.0602 21 16.0627C21 16.0652 21 16.0677 21 16.0702C21 16.0726 21 16.0751 21 16.0776C21 16.0801 21 16.0826 21 16.085C21 16.0875 21 16.09 21 16.0924C21 16.0949 21 16.0974 21 16.0999C21 16.1023 21 16.1048 21 16.1073C21 16.1097 21 16.1122 21 16.1146C21 16.1171 21 16.1196 21 16.122C21 16.1245 21 16.1269 21 16.1294C21 16.1318 21 16.1343 21 16.1367C21 16.1392 21 16.1416 21 16.1441C21 16.1465 21 16.149 21 16.1514C21 16.1538 21 16.1563 21 16.1587C21 16.1611 21 16.1636 21 16.166C21 16.1684 21 16.1709 21 16.1733C21 16.1757 21 16.1782 21 16.1806C21 16.183 21 16.1854 21 16.1878C21 16.1903 21 16.1927 21 16.1951C21 16.1975 21 16.1999 21 16.2023C21 16.2047 21 16.2072 21 16.2096C21 16.212 21 16.2144 21 16.2168C21 16.2192 21 16.2216 21 16.224C21 16.2264 21 16.2288 21 16.2312C21 16.2335 21 16.2359 21 16.2383C21 16.2407 21 16.2431 21 16.2455C21 16.2479 21 16.2502 21 16.2526C21 16.255 21 16.2574 21 16.2598C21 16.2621 21 16.2645 21 16.2669C21 16.2692 21 16.2716 21 16.274C21 16.2763 21 16.2787 21 16.2811C21 16.2834 21 16.2858 21 16.2881C21 16.2905 21 16.2928 21 16.2952C21 16.2975 21 16.2999 21 16.3022C21 16.3046 21 16.3069 21 16.3092C21 16.3116 21 16.3139 21 16.3163C21 16.3186 21 16.3209 21 16.3232C21 16.3256 21 16.3279 21 16.3302C21 16.3326 21 16.3349 21 16.3372C21 16.3395 21 16.3418 21 16.3441C21 16.3465 21 16.3488 21 16.3511C21 16.3534 21 16.3557 21 16.358C21 16.3603 21 16.3626 21 16.3649C21 16.3672 21 16.3695 21 16.3718C21 16.3741 21 16.3764 21 16.3786C21 16.3809 21 16.3832 21 16.3855C21 16.3878 21 16.3901 21 16.3923C21 16.3946 21 16.3969 21 16.3991C21 16.4014 21 16.4037 21 16.4059C21 16.4082 21 16.4105 21 16.4127C21 16.415 21 16.4172 21 16.4195C21 16.4217 21 16.424 21 16.4262C21 16.4285 21 16.4307 21 16.433C21 16.4352 21 16.4375 21 16.4397C21 16.4419 21 16.4442 21 16.4464C21 16.4486 21 16.4508 21 16.4531C21 16.4553 21 16.4575 21 16.4597C21 16.4619 21 16.4642 21 16.4664C21 16.4686 21 16.4708 21 16.473C21 16.4752 21 16.4774 21 16.4796C21 16.4818 21 16.484 21 16.4862C21 16.4884 21 16.4906 21 16.4928C21 16.4949 21 16.4971 21 16.4993C21 16.5015 21 16.5037 21 16.5058C21 16.508 21 16.5102 21 16.5124C21 16.5145 21 16.5167 21 16.5188C21 16.521 21 16.5232 21 16.5253C21 16.5275 21 16.5296 21 16.5318C21 16.5339 21 16.5361 21 16.5382C21 16.5403 21 16.5425 21 16.5446C21 16.5468 21 16.5489 21 16.551C21 16.5531 21 16.5553 21 16.5574C21 16.5595 21 16.5616 21 16.5638C21 16.5659 21 16.568 21 16.5701C21 16.5722 21 16.5743 21 16.5764C21 16.5785 21 16.5806 21 16.5827C21 16.5848 21 16.5869 21 16.589C21 16.5911 21 16.5931 21 16.5952C21 16.5973 21 16.5994 21 16.6015C21 16.6035 21 16.6056 21 16.6077C21 16.6097 21 16.6118 21 16.6139C21 16.6159 21 16.618 21 16.62C21 16.6221 21 16.6241 21 16.6262H22ZM21.7236 13.1454L20.463 12.5151L20.0158 13.4096L21.2764 14.0399L21.7236 13.1454ZM17.5429 13.4096C18.3213 13.0204 19.2374 13.0204 20.0158 13.4096L20.463 12.5151C19.4031 11.9852 18.1556 11.9852 17.0957 12.5151L17.5429 13.4096Z" fill="white"/>
</svg>
