<svg width="200" height="200" viewBox="0 0 200 200" fill="none" xmlns="http://www.w3.org/2000/svg">
<path d="M62.0488 48.4016C74.3324 38.5854 89.889 32.7183 106.815 32.7183C146.529 32.7183 178.722 65.0165 178.722 104.862C178.722 106.584 178.662 108.293 178.54 109.987C178.275 113.807 177.712 117.543 176.877 121.175L176.827 121.325C175.774 125.869 174.205 130.161 172.329 134.329H187.013C188.304 134.329 189.473 134.855 190.324 135.703C191.174 136.548 191.702 137.72 191.702 139.004C191.702 141.575 189.592 143.679 187.013 143.679H157.066C155.779 143.679 154.604 144.206 153.757 145.054C152.906 145.899 152.378 147.07 152.378 148.355C152.378 150.926 154.488 153.03 157.066 153.03H162.63C163.918 153.03 165.093 153.557 165.94 154.405C166.791 155.249 167.319 156.421 167.319 157.705C167.319 160.277 165.209 162.381 162.63 162.381H149.837C137.819 171.382 122.885 176.718 106.7 176.718C72.1336 176.718 43.3375 152.387 36.4454 119.965L36.4298 119.905C36.1265 118.475 35.9081 117.019 35.6924 115.561C35.1765 112.07 34.9076 108.497 34.9076 104.862C34.9076 94.8421 36.9445 85.3019 40.6218 76.6316H28.4401C25.8608 76.6316 23.7505 74.5143 23.7505 71.9266C23.7505 69.3388 25.8608 67.2216 28.4401 67.2216H55.2605C56.5485 67.2216 57.7241 66.6915 58.5713 65.8383C59.4217 64.9883 59.9501 63.8089 59.9501 62.5166C59.9501 59.9288 57.8398 57.8116 55.2605 57.8116H42.1962C39.6169 57.8116 37.5066 55.6943 37.5066 53.1066C37.5066 50.5188 39.6169 48.4016 42.1962 48.4016H62.0488Z" fill="#808080" fill-opacity="0.25"/>
<path fill-rule="evenodd" clip-rule="evenodd" d="M15.8903 67.0039H13.0483C10.4355 67.0039 8.29785 69.1639 8.29785 71.8039C8.29785 74.4439 10.4355 76.6039 13.0483 76.6039H15.8903C18.503 76.6039 20.6407 74.4439 20.6407 71.8039C20.6407 69.1639 18.503 67.0039 15.8903 67.0039Z" fill="#727272" fill-opacity="0.25"/>
<path fill-rule="evenodd" clip-rule="evenodd" d="M134.438 113.907C137.685 109.187 139.545 103.589 139.497 97.598C139.364 80.9355 124.52 67.5461 106.343 67.6911C88.165 67.8365 73.5373 81.4622 73.6703 98.1247C73.8034 114.787 88.6473 128.177 106.825 128.032C113.319 127.98 119.36 126.206 124.437 123.188L138.018 126.386L134.438 113.907Z" fill="#737373" fill-opacity="0.25"/>
<path fill-rule="evenodd" clip-rule="evenodd" d="M96.9835 97.1484C96.9986 99.0417 95.4758 100.589 93.5825 100.604C91.6886 100.619 90.1413 99.0964 90.1266 97.2031C90.1115 95.3095 91.6339 93.7626 93.5275 93.7472C95.4208 93.7321 96.9681 95.2548 96.9835 97.1484Z" fill="white" fill-opacity="0.15"/>
<path fill-rule="evenodd" clip-rule="evenodd" d="M109.326 97.1481C109.341 99.0417 107.819 100.589 105.925 100.604C104.031 100.619 102.484 99.0964 102.469 97.2031C102.454 95.3095 103.977 93.7623 105.87 93.7472C107.764 93.7321 109.311 95.2548 109.326 97.1481Z" fill="white" fill-opacity="0.15"/>
<path fill-rule="evenodd" clip-rule="evenodd" d="M121.669 97.1481C121.684 99.0414 120.161 100.589 118.268 100.604C116.374 100.619 114.827 99.0964 114.812 97.2028C114.797 95.3092 116.319 93.7623 118.213 93.7472C120.106 93.7318 121.654 95.2548 121.669 97.1481Z" fill="white" fill-opacity="0.15"/>
<path fill-rule="evenodd" clip-rule="evenodd" d="M77.1992 111.507C80.6671 117.783 86.4594 122.789 93.5316 125.584C91.7266 129.556 87.4428 132.348 82.4453 132.348C80.0783 132.348 77.8734 131.719 76.014 130.638L71.0683 131.841L72.3385 127.288C71.1417 125.582 70.4453 123.555 70.4453 121.377C70.4453 117.038 73.2007 113.287 77.1992 111.507Z" fill="#737373" fill-opacity="0.2"/>
<path fill-rule="evenodd" clip-rule="evenodd" d="M85.3262 121.175C85.3262 121.933 85.9398 122.547 86.6974 122.547C87.4547 122.547 88.069 121.933 88.069 121.175C88.069 120.418 87.4547 119.804 86.6974 119.804C85.9398 119.804 85.3262 120.418 85.3262 121.175Z" fill="white" fill-opacity="0.2"/>
<path fill-rule="evenodd" clip-rule="evenodd" d="M81.2119 121.175C81.2119 121.933 81.8258 122.547 82.5833 122.547C83.3405 122.547 83.9548 121.933 83.9548 121.175C83.9548 120.418 83.3405 119.804 82.5833 119.804C81.8258 119.804 81.2119 120.418 81.2119 121.175Z" fill="white" fill-opacity="0.2"/>
<path fill-rule="evenodd" clip-rule="evenodd" d="M76.4121 121.175C76.4121 121.933 77.026 122.547 77.7835 122.547C78.5407 122.547 79.155 121.933 79.155 121.175C79.155 120.418 78.5407 119.804 77.7835 119.804C77.026 119.804 76.4121 120.418 76.4121 121.175Z" fill="white" fill-opacity="0.2"/>
<path fill-rule="evenodd" clip-rule="evenodd" d="M131.269 140.032C131.269 141.358 119.296 142.432 104.526 142.432C89.7562 142.432 77.7832 141.358 77.7832 140.032C77.7832 138.707 89.7562 137.632 104.526 137.632C119.296 137.632 131.269 138.707 131.269 140.032Z" fill="black" fill-opacity="0.1"/>
<path fill-rule="evenodd" clip-rule="evenodd" d="M175.155 162.318C172.515 162.318 170.355 160.158 170.355 157.518C170.355 154.878 172.515 152.718 175.155 152.718C177.795 152.718 179.955 154.878 179.955 157.518C179.955 160.158 177.795 162.318 175.155 162.318Z" fill="#727272" fill-opacity="0.25"/>
<path fill-rule="evenodd" clip-rule="evenodd" d="M124.05 72.2617C128.508 74.8191 132.25 78.3302 134.934 82.4863C140.738 82.3749 145.409 77.6351 145.409 71.8042C145.409 65.9036 140.625 61.1201 134.725 61.1201C128.824 61.1201 124.041 65.9036 124.041 71.8042C124.041 71.9575 124.044 72.11 124.05 72.2617Z" fill="#7D7D7D" fill-opacity="0.2"/>
<path d="M134.651 76.5432C135.437 76.5432 135.985 76.0071 135.985 75.259C135.985 74.5109 135.437 73.9748 134.651 73.9748C133.878 73.9748 133.317 74.5109 133.317 75.259C133.317 76.0071 133.878 76.5432 134.651 76.5432ZM135.723 73.5135C135.723 72.6408 136.147 72.3041 136.796 71.9675C137.668 71.5187 138.317 70.783 138.317 69.7357C138.317 68.1773 136.833 67.0801 134.851 67.0801C132.756 67.0801 131.26 68.3144 131.11 70.0474L133.517 70.4838C133.604 69.6859 134.078 69.0999 134.751 69.0999C135.287 69.0999 135.699 69.4739 135.699 69.9851C135.699 70.4963 135.237 70.783 134.838 71.0449C133.966 71.6184 133.591 72.2667 133.591 73.5135H135.723Z" fill="white" fill-opacity="0.2"/>
</svg>
