<svg viewBox="0 0 232 181" fill="none" xmlns="http://www.w3.org/2000/svg">
<path fill-rule="evenodd" clip-rule="evenodd" d="M125.892 0.494965C104.735 0.494965 85.2889 7.82888 69.9344 20.0991H45.1187C41.8946 20.0991 39.2567 22.7457 39.2567 25.9804C39.2567 29.215 41.8946 31.8616 45.1187 31.8616H57.7481H61.449C64.6731 31.8616 67.311 34.5082 67.311 37.7428C67.311 39.3582 66.6505 40.8325 65.5876 41.895C64.5285 42.9615 63.0591 43.6241 61.449 43.6241H53.5533H49.1935H27.9235C24.6994 43.6241 22.0615 46.2707 22.0615 49.5053C22.0615 52.74 24.6994 55.3866 27.9235 55.3866H43.1506C38.554 66.2245 36.008 78.1497 36.008 90.674C36.008 95.2183 36.3441 99.6841 36.9889 104.048C37.2585 105.871 37.5829 107.679 37.962 109.467C49.0216 107.769 60.7534 106.404 73.001 105.409L73.9233 106.252L74.7909 105.267C89.5045 104.119 104.949 103.507 120.878 103.507C154.721 103.507 186.391 106.267 213.47 111.066C214.513 106.526 215.217 101.856 215.549 97.0807C215.701 94.9634 215.776 92.8266 215.776 90.674C215.776 40.8678 175.535 0.494965 125.892 0.494965Z" fill="#22262E"/>
<path fill-rule="evenodd" clip-rule="evenodd" d="M10.1233 43.3521H6.57083C3.30492 43.3521 0.632812 46.052 0.632812 49.352C0.632812 52.652 3.30492 55.352 6.57083 55.352H10.1233C13.3893 55.352 16.0614 52.652 16.0614 49.352C16.0614 46.052 13.3893 43.3521 10.1233 43.3521Z" fill="#22262E"/>
<mask id="mask0_2673_3849" style="mask-type:luminance" maskUnits="userSpaceOnUse" x="37" y="103" width="196" height="78">
<path fill-rule="evenodd" clip-rule="evenodd" d="M232.001 103.637V180.495H134.92H37.8398V103.637H232.001Z" fill="white"/>
</mask>
<g mask="url(#mask0_2673_3849)">
<path fill-rule="evenodd" clip-rule="evenodd" d="M232.001 133.352C232.001 136.566 229.364 139.196 226.14 139.196H188.706C187.097 139.196 185.628 139.855 184.569 140.914C183.506 141.97 182.846 143.435 182.846 145.04C182.846 148.255 185.483 150.885 188.706 150.885H195.661C197.271 150.885 198.74 151.543 199.799 152.603C200.862 153.659 201.522 155.124 201.522 156.729C201.522 159.943 198.885 162.573 195.661 162.573H179.67C164.647 173.825 145.979 180.495 125.749 180.495C82.5404 180.495 46.4549 150.086 37.8398 109.559C48.8968 107.872 60.6258 106.516 72.8705 105.526L73.7922 106.364L74.6599 105.386C89.3696 104.244 104.811 103.637 120.736 103.637C154.57 103.637 186.233 106.379 213.305 111.148C211.989 116.829 210.129 122.299 207.785 127.508H226.14C227.754 127.508 229.215 128.166 230.278 129.226C231.341 130.282 232.001 131.747 232.001 133.352Z" fill="#22262E"/>
</g>
<path fill-rule="evenodd" clip-rule="evenodd" d="M215.513 97.3141C215.181 102.181 214.478 106.939 213.436 111.566C186.394 106.676 154.766 103.863 120.967 103.863C105.059 103.863 89.6355 104.486 74.9414 105.657L85.1316 93.85L100.984 104.194L122.442 98.2695L159.358 103.863L175.384 98.2695L179.443 103.863L189.127 96.6752L198.176 104.97L212.449 93.5663L215.513 97.3141Z" fill="#1A1D22"/>
<path fill-rule="evenodd" clip-rule="evenodd" d="M162.308 101.98C166.367 96.08 168.692 89.0827 168.632 81.5943C168.466 60.7661 149.911 44.0294 127.189 44.2107C104.467 44.3923 86.1824 61.4245 86.3488 82.2526C86.5151 103.08 105.07 119.818 127.792 119.636C135.91 119.571 143.461 117.354 149.807 113.582L166.784 117.579L162.308 101.98Z" fill="#3B414D"/>
<path fill-rule="evenodd" clip-rule="evenodd" d="M115.489 81.0323C115.508 83.3989 113.605 85.333 111.238 85.3519C108.871 85.3711 106.937 83.4673 106.918 81.1007C106.899 78.7336 108.802 76.8 111.169 76.7807C113.536 76.7619 115.47 78.6653 115.489 81.0323Z" fill="#545B6A"/>
<path fill-rule="evenodd" clip-rule="evenodd" d="M130.919 81.0319C130.938 83.3989 129.034 85.333 126.667 85.3519C124.3 85.3707 122.366 83.4673 122.348 81.1007C122.329 78.7337 124.232 76.7996 126.599 76.7807C128.966 76.7619 130.9 78.6653 130.919 81.0319Z" fill="#545B6A"/>
<path fill-rule="evenodd" clip-rule="evenodd" d="M146.347 81.0319C146.366 83.3985 144.462 85.3326 142.095 85.3519C139.728 85.3707 137.794 83.4673 137.776 81.1003C137.756 78.7333 139.66 76.7996 142.027 76.7807C144.393 76.7615 146.327 78.6653 146.347 81.0319Z" fill="#545B6A"/>
<path fill-rule="evenodd" clip-rule="evenodd" d="M74.3471 105.066L73.5158 105.923L72.6328 105.189C73.2014 105.145 73.7744 105.104 74.3471 105.066Z" fill="#22262E"/>
<path fill-rule="evenodd" clip-rule="evenodd" d="M82.0615 111.067C82.0615 113.788 82.932 116.322 84.4281 118.455L82.8403 124.146L89.0224 122.642C91.3466 123.994 94.1027 124.781 97.0615 124.781C105.346 124.781 112.061 118.64 112.061 111.067C112.061 103.492 105.346 97.352 97.0615 97.352C88.777 97.352 82.0615 103.492 82.0615 111.067Z" fill="url(#paint0_linear_2673_3849)"/>
<path fill-rule="evenodd" clip-rule="evenodd" d="M100.918 111.066C100.918 112.013 101.685 112.781 102.632 112.781C103.579 112.781 104.347 112.013 104.347 111.066C104.347 110.12 103.579 109.352 102.632 109.352C101.685 109.352 100.918 110.12 100.918 111.066Z" fill="white" fill-opacity="0.4"/>
<path fill-rule="evenodd" clip-rule="evenodd" d="M95.7754 111.066C95.7754 112.013 96.5428 112.781 97.4897 112.781C98.4361 112.781 99.204 112.013 99.204 111.066C99.204 110.12 98.4361 109.352 97.4897 109.352C96.5428 109.352 95.7754 110.12 95.7754 111.066Z" fill="white" fill-opacity="0.4"/>
<path fill-rule="evenodd" clip-rule="evenodd" d="M89.7754 111.066C89.7754 112.013 90.5428 112.781 91.4897 112.781C92.4361 112.781 93.204 112.013 93.204 111.066C93.204 110.12 92.4361 109.352 91.4897 109.352C90.5428 109.352 89.7754 110.12 89.7754 111.066Z" fill="white" fill-opacity="0.4"/>
<path fill-rule="evenodd" clip-rule="evenodd" d="M72.6328 105.725C60.3893 106.722 48.6614 108.089 37.6056 109.789C37.2266 107.999 36.9024 106.188 36.6328 104.362L55.5837 90.0752L72.6328 105.725Z" fill="#1A1D22"/>
<path fill-rule="evenodd" clip-rule="evenodd" d="M158.347 134.638C158.347 136.294 143.381 137.638 124.919 137.638C106.456 137.638 91.4902 136.294 91.4902 134.638C91.4902 132.981 106.456 131.638 124.919 131.638C143.381 131.638 158.347 132.981 158.347 134.638Z" fill="#1A1D22"/>
<path fill-rule="evenodd" clip-rule="evenodd" d="M213.204 162.495C209.904 162.495 207.204 159.795 207.204 156.495C207.204 153.195 209.904 150.495 213.204 150.495C216.504 150.495 219.204 153.195 219.204 156.495C219.204 159.795 216.504 162.495 213.204 162.495Z" fill="#22262E"/>
<path d="M162.666 62.7072C170.042 62.7072 176.021 56.7279 176.021 49.352C176.021 41.9762 170.042 35.9969 162.666 35.9969C155.29 35.9969 149.311 41.9762 149.311 49.352C149.311 56.7279 155.29 62.7072 162.666 62.7072Z" fill="url(#paint1_linear_2673_3849)"/>
<path d="M162.574 55.2762C163.556 55.2762 164.241 54.606 164.241 53.6709C164.241 52.7358 163.556 52.0657 162.574 52.0657C161.608 52.0657 160.906 52.7358 160.906 53.6709C160.906 54.606 161.608 55.2762 162.574 55.2762ZM163.914 51.489C163.914 50.3981 164.444 49.9773 165.254 49.5565C166.345 48.9955 167.156 48.0759 167.156 46.7668C167.156 44.8187 165.301 43.4472 162.823 43.4472C160.205 43.4472 158.335 44.9901 158.148 47.1564L161.156 47.7019C161.265 46.7045 161.857 45.972 162.699 45.972C163.369 45.972 163.883 46.4395 163.883 47.0785C163.883 47.7175 163.306 48.0759 162.808 48.4032C161.717 49.1201 161.249 49.9306 161.249 51.489H163.914Z" fill="white" fill-opacity="0.2"/>
<defs>
<linearGradient id="paint0_linear_2673_3849" x1="97.0615" y1="83.6377" x2="69.7427" y2="113.518" gradientUnits="userSpaceOnUse">
<stop stop-color="#6DCF5D"/>
<stop offset="1" stop-color="#3E9B2F"/>
</linearGradient>
<linearGradient id="paint1_linear_2673_3849" x1="167.566" y1="35.9969" x2="171.066" y2="66.495" gradientUnits="userSpaceOnUse">
<stop stop-color="#545B6A"/>
<stop offset="1" stop-color="#1A1D22"/>
</linearGradient>
</defs>
</svg>
