<svg width="232" height="181" viewBox="0 0 232 181" fill="none" xmlns="http://www.w3.org/2000/svg">
<path fill-rule="evenodd" clip-rule="evenodd" d="M125.575 0.495117C104.418 0.495117 84.972 7.82903 69.6175 20.0993H44.8018C41.5777 20.0993 38.9398 22.7458 38.9398 25.9805C38.9398 29.2152 41.5777 31.8618 44.8018 31.8618H57.4312H61.1321C64.3562 31.8618 66.9941 34.5083 66.9941 37.743C66.9941 39.3584 66.3336 40.8326 65.2707 41.8952C64.2116 42.9616 62.7422 43.6242 61.1321 43.6242H53.2364H48.8766H27.6066C24.3825 43.6242 21.7446 46.2708 21.7446 49.5055C21.7446 52.7402 24.3825 55.3867 27.6066 55.3867H42.8337C38.2371 66.2247 35.6911 78.1499 35.6911 90.6742C35.6911 95.2184 36.0272 99.6843 36.672 104.048C36.9416 105.871 37.266 107.679 37.6451 109.467C48.7047 107.769 60.4365 106.405 72.6841 105.409L73.6064 106.252L74.474 105.268C89.1876 104.119 104.632 103.507 120.561 103.507C154.404 103.507 186.075 106.267 213.153 111.066C214.196 106.526 214.9 101.856 215.232 97.0808C215.384 94.9636 215.459 92.8267 215.459 90.6742C215.459 40.8679 175.218 0.495117 125.575 0.495117Z" fill="#EEE6FF"/>
<path fill-rule="evenodd" clip-rule="evenodd" d="M9.80645 43.3521H6.25394C2.98803 43.3521 0.315918 46.052 0.315918 49.352C0.315918 52.652 2.98803 55.352 6.25394 55.352H9.80645C13.0724 55.352 15.7445 52.652 15.7445 49.352C15.7445 46.052 13.0724 43.3521 9.80645 43.3521Z" fill="#EEE6FF"/>
<mask id="mask0_7185_4369" style="mask-type:luminance" maskUnits="userSpaceOnUse" x="37" y="103" width="195" height="78">
<path fill-rule="evenodd" clip-rule="evenodd" d="M231.684 103.637V180.495H134.603H37.5229V103.637H231.684Z" fill="white"/>
</mask>
<g mask="url(#mask0_7185_4369)">
<path fill-rule="evenodd" clip-rule="evenodd" d="M231.684 133.352C231.684 136.567 229.047 139.196 225.823 139.196H188.389C186.78 139.196 185.311 139.855 184.252 140.915C183.19 141.97 182.529 143.435 182.529 145.041C182.529 148.255 185.166 150.885 188.389 150.885H195.344C196.954 150.885 198.423 151.543 199.482 152.603C200.545 153.659 201.205 155.124 201.205 156.729C201.205 159.943 198.568 162.573 195.344 162.573H179.353C164.33 173.825 145.662 180.495 125.432 180.495C82.2235 180.495 46.138 150.086 37.5229 109.559C48.5799 107.872 60.3089 106.516 72.5536 105.526L73.4753 106.364L74.343 105.386C89.0527 104.245 104.494 103.637 120.419 103.637C154.254 103.637 185.916 106.38 212.988 111.148C211.672 116.829 209.812 122.299 207.468 127.508H225.823C227.437 127.508 228.898 128.167 229.961 129.226C231.024 130.282 231.684 131.747 231.684 133.352Z" fill="#EEE6FF"/>
</g>
<path fill-rule="evenodd" clip-rule="evenodd" d="M215.195 97.3142C214.864 102.181 214.161 106.94 213.119 111.566C186.076 106.676 154.448 103.863 120.65 103.863C104.742 103.863 89.3181 104.486 74.624 105.657L84.8143 93.8501L100.666 104.195L122.125 98.2696L159.041 103.863L175.067 98.2696L179.126 103.863L188.81 96.6753L197.859 104.97L212.132 93.5664L215.195 97.3142Z" fill="#E7DBFF"/>
<path fill-rule="evenodd" clip-rule="evenodd" d="M161.99 101.981C166.05 96.0803 168.375 89.083 168.315 81.5945C168.149 60.7664 149.594 44.0296 126.872 44.2109C104.15 44.3926 85.8651 61.4248 86.0314 82.2529C86.1977 103.081 104.753 119.818 127.474 119.637C135.593 119.572 143.144 117.355 149.49 113.582L166.466 117.58L161.99 101.981Z" fill="#E0D0FF"/>
<path fill-rule="evenodd" clip-rule="evenodd" d="M115.173 81.0325C115.192 83.3991 113.288 85.3332 110.922 85.352C108.554 85.3713 106.62 83.4675 106.602 81.1008C106.583 78.7338 108.486 76.8002 110.853 76.7809C113.22 76.762 115.154 78.6655 115.173 81.0325Z" fill="#CCB3FF"/>
<path fill-rule="evenodd" clip-rule="evenodd" d="M130.602 81.0321C130.62 83.3991 128.717 85.3332 126.35 85.352C123.983 85.3709 122.049 83.4675 122.03 81.1008C122.011 78.7338 123.915 76.7998 126.282 76.7809C128.648 76.762 130.582 78.6655 130.602 81.0321Z" fill="#CCB3FF"/>
<path fill-rule="evenodd" clip-rule="evenodd" d="M146.03 81.0321C146.049 83.3987 144.145 85.3328 141.778 85.352C139.411 85.3709 137.477 83.4675 137.459 81.1005C137.439 78.7334 139.343 76.7998 141.71 76.7809C144.076 76.7617 146.011 78.6655 146.03 81.0321Z" fill="#CCB3FF"/>
<path fill-rule="evenodd" clip-rule="evenodd" d="M74.0302 105.066L73.1989 105.924L72.3159 105.189C72.8845 105.145 73.4575 105.104 74.0302 105.066Z" fill="#EEE6FF"/>
<path fill-rule="evenodd" clip-rule="evenodd" d="M81.7446 111.067C81.7446 113.788 82.6151 116.322 84.1112 118.455L82.5234 124.146L88.7055 122.642C91.0297 123.994 93.7858 124.781 96.7446 124.781C105.029 124.781 111.745 118.64 111.745 111.067C111.745 103.492 105.029 97.3521 96.7446 97.3521C88.4602 97.3521 81.7446 103.492 81.7446 111.067Z" fill="url(#paint0_linear_7185_4369)"/>
<path fill-rule="evenodd" clip-rule="evenodd" d="M100.602 111.067C100.602 112.013 101.369 112.781 102.316 112.781C103.262 112.781 104.03 112.013 104.03 111.067C104.03 110.12 103.262 109.352 102.316 109.352C101.369 109.352 100.602 110.12 100.602 111.067Z" fill="#F4EEFF"/>
<path fill-rule="evenodd" clip-rule="evenodd" d="M95.4585 111.067C95.4585 112.013 96.2259 112.781 97.1728 112.781C98.1192 112.781 98.8871 112.013 98.8871 111.067C98.8871 110.12 98.1192 109.352 97.1728 109.352C96.2259 109.352 95.4585 110.12 95.4585 111.067Z" fill="#F4EEFF"/>
<path fill-rule="evenodd" clip-rule="evenodd" d="M89.4585 111.067C89.4585 112.013 90.2259 112.781 91.1728 112.781C92.1192 112.781 92.8871 112.013 92.8871 111.067C92.8871 110.12 92.1192 109.352 91.1728 109.352C90.2259 109.352 89.4585 110.12 89.4585 111.067Z" fill="#F4EEFF"/>
<path fill-rule="evenodd" clip-rule="evenodd" d="M72.3159 105.725C60.0724 106.722 48.3446 108.089 37.2887 109.789C36.9097 107.999 36.5855 106.188 36.3159 104.362L55.2668 90.0752L72.3159 105.725Z" fill="#E7DBFF"/>
<path fill-rule="evenodd" clip-rule="evenodd" d="M158.03 134.638C158.03 136.295 143.063 137.638 124.601 137.638C106.139 137.638 91.1729 136.295 91.1729 134.638C91.1729 132.981 106.139 131.638 124.601 131.638C143.063 131.638 158.03 132.981 158.03 134.638Z" fill="#E7DBFF"/>
<path fill-rule="evenodd" clip-rule="evenodd" d="M212.887 162.495C209.587 162.495 206.887 159.795 206.887 156.495C206.887 153.195 209.587 150.495 212.887 150.495C216.187 150.495 218.887 153.195 218.887 156.495C218.887 159.795 216.187 162.495 212.887 162.495Z" fill="#EEE6FF"/>
<path d="M162.349 62.7073C169.725 62.7073 175.704 56.7281 175.704 49.3522C175.704 41.9764 169.725 35.9971 162.349 35.9971C154.973 35.9971 148.994 41.9764 148.994 49.3522C148.994 56.7281 154.973 62.7073 162.349 62.7073Z" fill="url(#paint1_linear_7185_4369)"/>
<path d="M162.257 55.2762C163.239 55.2762 163.925 54.606 163.925 53.6709C163.925 52.7359 163.239 52.0657 162.257 52.0657C161.291 52.0657 160.59 52.7359 160.59 53.6709C160.59 54.606 161.291 55.2762 162.257 55.2762ZM163.598 51.4891C163.598 50.3981 164.128 49.9773 164.938 49.5565C166.029 48.9955 166.839 48.076 166.839 46.7668C166.839 44.8187 164.985 43.4473 162.507 43.4473C159.889 43.4473 158.018 44.9902 157.831 47.1565L160.839 47.7019C160.948 46.7045 161.541 45.972 162.382 45.972C163.052 45.972 163.567 46.4396 163.567 47.0785C163.567 47.7175 162.99 48.076 162.491 48.4033C161.4 49.1202 160.933 49.9306 160.933 51.4891H163.598Z" fill="#CCB3FF"/>
<defs>
<linearGradient id="paint0_linear_7185_4369" x1="96.7446" y1="83.6378" x2="69.4258" y2="113.518" gradientUnits="userSpaceOnUse">
<stop stop-color="#CEB5FF"/>
<stop offset="1" stop-color="#A475FF"/>
</linearGradient>
<linearGradient id="paint1_linear_7185_4369" x1="167.25" y1="35.9971" x2="170.75" y2="66.4951" gradientUnits="userSpaceOnUse">
<stop stop-color="#F4EEFF"/>
<stop offset="1" stop-color="#DCCBFF"/>
</linearGradient>
</defs>
</svg>
