<svg viewBox="0 0 232 181" fill="none" xmlns="http://www.w3.org/2000/svg">
<path fill-rule="evenodd" clip-rule="evenodd" d="M125.891 0.495117C104.734 0.495117 85.2882 7.82903 69.9337 20.0993H45.1179C41.8939 20.0993 39.256 22.7458 39.256 25.9805C39.256 29.2152 41.8939 31.8618 45.1179 31.8618H57.7474H61.4483C64.6724 31.8618 67.3103 34.5083 67.3103 37.743C67.3103 39.3584 66.6498 40.8326 65.5868 41.8952C64.5278 42.9616 63.0584 43.6242 61.4483 43.6242H53.5526H49.1928H27.9228C24.6987 43.6242 22.0608 46.2708 22.0608 49.5055C22.0608 52.7402 24.6987 55.3867 27.9228 55.3867H43.1499C38.5533 66.2247 36.0072 78.1499 36.0072 90.6742C36.0072 95.2184 36.3433 99.6843 36.9881 104.048C37.2578 105.871 37.5822 107.679 37.9612 109.467C49.0209 107.769 60.7527 106.405 73.0003 105.409L73.9226 106.252L74.7902 105.268C89.5037 104.119 104.948 103.507 120.877 103.507C154.72 103.507 186.391 106.267 213.469 111.066C214.513 106.526 215.216 101.856 215.548 97.0808C215.701 94.9636 215.775 92.8267 215.775 90.6742C215.775 40.8679 175.534 0.495117 125.891 0.495117Z" fill="#262624"/>
<path fill-rule="evenodd" clip-rule="evenodd" d="M10.1226 43.3521H6.5701C3.30419 43.3521 0.63208 46.052 0.63208 49.352C0.63208 52.652 3.30419 55.352 6.5701 55.352H10.1226C13.3885 55.352 16.0606 52.652 16.0606 49.352C16.0606 46.052 13.3885 43.3521 10.1226 43.3521Z" fill="#262624"/>
<mask id="mask0_5191_4296" style="mask-type:luminance" maskUnits="userSpaceOnUse" x="37" y="103" width="195" height="78">
<path fill-rule="evenodd" clip-rule="evenodd" d="M232 103.637V180.495H134.92H37.8391V103.637H232Z" fill="white"/>
</mask>
<g mask="url(#mask0_5191_4296)">
<path fill-rule="evenodd" clip-rule="evenodd" d="M232 133.352C232 136.567 229.363 139.196 226.14 139.196H188.706C187.096 139.196 185.627 139.855 184.568 140.915C183.506 141.97 182.845 143.435 182.845 145.041C182.845 148.255 185.482 150.885 188.706 150.885H195.661C197.27 150.885 198.739 151.543 199.798 152.603C200.861 153.659 201.521 155.124 201.521 156.729C201.521 159.943 198.884 162.573 195.661 162.573H179.669C164.646 173.825 145.979 180.495 125.748 180.495C82.5397 180.495 46.4542 150.086 37.8391 109.559C48.8961 107.872 60.625 106.516 72.8697 105.526L73.7914 106.364L74.6592 105.386C89.3688 104.245 104.81 103.637 120.735 103.637C154.57 103.637 186.232 106.38 213.304 111.148C211.988 116.829 210.128 122.299 207.784 127.508H226.14C227.753 127.508 229.214 128.167 230.277 129.226C231.34 130.282 232 131.747 232 133.352Z" fill="#262624"/>
</g>
<path fill-rule="evenodd" clip-rule="evenodd" d="M215.511 97.3142C215.18 102.181 214.477 106.94 213.435 111.566C186.393 106.676 154.764 103.863 120.966 103.863C105.058 103.863 89.6343 104.486 74.9402 105.657L85.1304 93.8501L100.982 104.195L122.441 98.2696L159.357 103.863L175.383 98.2696L179.442 103.863L189.126 96.6753L198.175 104.97L212.448 93.5664L215.511 97.3142Z" fill="#1B1B19"/>
<path fill-rule="evenodd" clip-rule="evenodd" d="M162.307 101.981C166.366 96.0803 168.691 89.083 168.631 81.5945C168.465 60.7664 149.91 44.0296 127.188 44.2109C104.466 44.3926 86.1812 61.4248 86.3476 82.2529C86.5139 103.081 105.069 119.818 127.791 119.637C135.909 119.572 143.46 117.355 149.806 113.582L166.782 117.58L162.307 101.981Z" fill="#2F2E2D"/>
<path fill-rule="evenodd" clip-rule="evenodd" d="M115.489 81.0325C115.508 83.3991 113.604 85.3332 111.238 85.352C108.87 85.3713 106.936 83.4675 106.918 81.1008C106.899 78.7338 108.802 76.8002 111.169 76.7809C113.536 76.762 115.47 78.6655 115.489 81.0325Z" fill="#545450"/>
<path fill-rule="evenodd" clip-rule="evenodd" d="M130.918 81.0321C130.937 83.3991 129.033 85.3332 126.666 85.352C124.299 85.3709 122.365 83.4675 122.347 81.1008C122.327 78.7338 124.231 76.7998 126.598 76.7809C128.964 76.762 130.898 78.6655 130.918 81.0321Z" fill="#545450"/>
<path fill-rule="evenodd" clip-rule="evenodd" d="M146.346 81.0321C146.365 83.3987 144.461 85.3328 142.094 85.352C139.727 85.3709 137.793 83.4675 137.775 81.1005C137.756 78.7334 139.659 76.7998 142.026 76.7809C144.393 76.7617 146.327 78.6655 146.346 81.0321Z" fill="#545450"/>
<path fill-rule="evenodd" clip-rule="evenodd" d="M74.3464 105.066L73.515 105.924L72.6321 105.189C73.2006 105.145 73.7737 105.104 74.3464 105.066Z" fill="#262624"/>
<path fill-rule="evenodd" clip-rule="evenodd" d="M82.0608 111.067C82.0608 113.788 82.9313 116.322 84.4273 118.455L82.8396 124.146L89.0217 122.642C91.3459 123.994 94.102 124.781 97.0608 124.781C105.345 124.781 112.061 118.64 112.061 111.067C112.061 103.492 105.345 97.3521 97.0608 97.3521C88.7763 97.3521 82.0608 103.492 82.0608 111.067Z" fill="url(#paint0_linear_5191_4296)"/>
<path fill-rule="evenodd" clip-rule="evenodd" d="M100.918 111.067C100.918 112.013 101.685 112.781 102.632 112.781C103.578 112.781 104.346 112.013 104.346 111.067C104.346 110.12 103.578 109.352 102.632 109.352C101.685 109.352 100.918 110.12 100.918 111.067Z" fill="white" fill-opacity="0.4"/>
<path fill-rule="evenodd" clip-rule="evenodd" d="M95.7747 111.067C95.7747 112.013 96.542 112.781 97.4889 112.781C98.4354 112.781 99.2032 112.013 99.2032 111.067C99.2032 110.12 98.4354 109.352 97.4889 109.352C96.542 109.352 95.7747 110.12 95.7747 111.067Z" fill="white" fill-opacity="0.4"/>
<path fill-rule="evenodd" clip-rule="evenodd" d="M89.7747 111.067C89.7747 112.013 90.542 112.781 91.4889 112.781C92.4354 112.781 93.2032 112.013 93.2032 111.067C93.2032 110.12 92.4354 109.352 91.4889 109.352C90.542 109.352 89.7747 110.12 89.7747 111.067Z" fill="white" fill-opacity="0.4"/>
<path fill-rule="evenodd" clip-rule="evenodd" d="M72.632 105.725C60.3885 106.722 48.6607 108.089 37.6048 109.789C37.2259 107.999 36.9016 106.188 36.6321 104.362L55.5829 90.0752L72.632 105.725Z" fill="#1B1B19"/>
<path fill-rule="evenodd" clip-rule="evenodd" d="M158.346 134.638C158.346 136.295 143.38 137.638 124.918 137.638C106.455 137.638 91.489 136.295 91.489 134.638C91.489 132.981 106.455 131.638 124.918 131.638C143.38 131.638 158.346 132.981 158.346 134.638Z" fill="#1B1B19"/>
<path fill-rule="evenodd" clip-rule="evenodd" d="M213.203 162.495C209.903 162.495 207.203 159.795 207.203 156.495C207.203 153.195 209.903 150.495 213.203 150.495C216.503 150.495 219.203 153.195 219.203 156.495C219.203 159.795 216.503 162.495 213.203 162.495Z" fill="#262624"/>
<path d="M162.665 62.7073C170.041 62.7073 176.021 56.7281 176.021 49.3522C176.021 41.9764 170.041 35.9971 162.665 35.9971C155.29 35.9971 149.31 41.9764 149.31 49.3522C149.31 56.7281 155.29 62.7073 162.665 62.7073Z" fill="url(#paint1_linear_5191_4296)"/>
<path d="M162.574 55.2761C163.555 55.2761 164.241 54.606 164.241 53.6709C164.241 52.7358 163.555 52.0656 162.574 52.0656C161.607 52.0656 160.906 52.7358 160.906 53.6709C160.906 54.606 161.607 55.2761 162.574 55.2761ZM163.914 51.489C163.914 50.3981 164.444 49.9773 165.254 49.5565C166.345 48.9954 167.156 48.0759 167.156 46.7668C167.156 44.8187 165.301 43.4472 162.823 43.4472C160.205 43.4472 158.335 44.9901 158.147 47.1564L161.155 47.7019C161.264 46.7044 161.857 45.972 162.698 45.972C163.368 45.972 163.883 46.4395 163.883 47.0785C163.883 47.7175 163.306 48.0759 162.807 48.4032C161.716 49.1201 161.249 49.9305 161.249 51.489H163.914Z" fill="white" fill-opacity="0.2"/>
<defs>
<linearGradient id="paint0_linear_5191_4296" x1="97.0608" y1="83.6378" x2="69.742" y2="113.518" gradientUnits="userSpaceOnUse">
<stop stop-color="#F3CB94"/>
<stop offset="1" stop-color="#FBA531"/>
</linearGradient>
<linearGradient id="paint1_linear_5191_4296" x1="167.566" y1="35.9971" x2="171.066" y2="66.4951" gradientUnits="userSpaceOnUse">
<stop stop-color="#777774"/>
<stop offset="1" stop-color="#545450"/>
</linearGradient>
</defs>
</svg>
