<svg width="127" height="119" viewBox="0 0 127 119" fill="none" xmlns="http://www.w3.org/2000/svg">
<path fill-rule="evenodd" clip-rule="evenodd" d="M75.0467 97.2533H17.6222C13.5804 97.2533 10.272 93.9351 10.272 89.8797V7.98964C10.272 3.93423 13.5804 0.617676 17.6222 0.617676H75.0467C79.0901 0.617676 82.3986 3.93423 82.3986 7.98964V89.8797C82.3986 93.9351 79.0901 97.2533 75.0467 97.2533Z" fill="#1E3310"/>
<path fill-rule="evenodd" clip-rule="evenodd" d="M70.1448 100.755H12.7204C8.67856 100.755 5.37012 97.4363 5.37012 93.3809V11.4909C5.37012 7.43545 8.67856 4.1189 12.7204 4.1189H70.1448C74.1883 4.1189 77.4967 7.43545 77.4967 11.4909V93.3809C77.4967 97.4363 74.1883 100.755 70.1448 100.755Z" fill="#274116"/>
<path fill-rule="evenodd" clip-rule="evenodd" d="M65.3769 103.519H7.83371C3.78354 103.519 0.468262 100.214 0.468262 96.1756V14.6246C0.468262 10.586 3.78354 7.2832 7.83371 7.2832H65.3769C69.4287 7.2832 72.7439 10.586 72.7439 14.6246V96.1756C72.7439 100.214 69.4287 103.519 65.3769 103.519Z" fill="#3B414D"/>
<path fill-rule="evenodd" clip-rule="evenodd" d="M65.3769 103.519H7.83371C3.78354 103.519 0.468262 100.214 0.468262 96.1756V14.6246C0.468262 10.586 3.78354 7.2832 7.83371 7.2832H65.3769C69.4287 7.2832 72.7439 10.586 72.7439 14.6246V96.1756C72.7439 100.214 69.4287 103.519 65.3769 103.519Z" fill="#33561B"/>
<path fill-rule="evenodd" clip-rule="evenodd" d="M57.0825 32.1293H14.5799C13.3661 32.1293 12.3726 31.1841 12.3726 30.0293C12.3726 28.873 13.3661 27.9277 14.5799 27.9277H57.0825C58.2963 27.9277 59.2899 28.873 59.2899 30.0293C59.2899 31.1841 58.2963 32.1293 57.0825 32.1293Z" fill="#43682B"/>
<path fill-rule="evenodd" clip-rule="evenodd" d="M57.0825 44.734H14.5799C13.3661 44.734 12.3726 43.7888 12.3726 42.634C12.3726 41.4777 13.3661 40.5325 14.5799 40.5325H57.0825C58.2963 40.5325 59.2899 41.4777 59.2899 42.634C59.2899 43.7888 58.2963 44.734 57.0825 44.734Z" fill="#43682B"/>
<path fill-rule="evenodd" clip-rule="evenodd" d="M57.0825 57.3385H14.5799C13.3661 57.3385 12.3726 56.3933 12.3726 55.2385C12.3726 54.0838 13.3661 53.137 14.5799 53.137H57.0825C58.2963 53.137 59.2899 54.0838 59.2899 55.2385C59.2899 56.3933 58.2963 57.3385 57.0825 57.3385Z" fill="#43682B"/>
<path fill-rule="evenodd" clip-rule="evenodd" d="M57.0825 69.9432H14.5799C13.3661 69.9432 12.3726 68.998 12.3726 67.8433C12.3726 66.6869 13.3661 65.7417 14.5799 65.7417H57.0825C58.2963 65.7417 59.2899 66.6869 59.2899 67.8433C59.2899 68.998 58.2963 69.9432 57.0825 69.9432Z" fill="#43682B"/>
<path fill-rule="evenodd" clip-rule="evenodd" d="M36.7656 82.548H14.5893C13.3704 82.548 12.3726 81.6028 12.3726 80.448C12.3726 79.2917 13.3704 78.3464 14.5893 78.3464H36.7656C37.9846 78.3464 38.9824 79.2917 38.9824 80.448C38.9824 81.6028 37.9846 82.548 36.7656 82.548Z" fill="#43682B"/>
<path fill-rule="evenodd" clip-rule="evenodd" d="M72.6805 65.1104C63.3845 72.7275 50.1969 72.3828 41.339 64.9115C40.2085 63.9417 39.1469 62.8731 38.1756 61.6881C37.6754 61.0798 37.2088 60.457 36.7754 59.807C35.9085 58.5088 35.1718 57.143 34.5954 55.7501C33.5703 53.3923 32.9578 50.9376 32.738 48.4413C32.0069 40.6086 35.0601 32.5586 41.5957 27.2049C48.1474 21.835 56.6403 20.4374 64.1795 22.6785C66.5813 23.3983 68.87 24.4812 70.9823 25.9351C72.2352 26.79 73.4122 27.7787 74.5168 28.8838C75.0675 29.4344 75.5865 30.0159 76.0848 30.6257C77.0578 31.8109 77.9116 33.0612 78.6245 34.3602C84.2134 44.51 81.959 57.5077 72.6805 65.1104Z" fill="white" fill-opacity="0.1"/>
<path fill-rule="evenodd" clip-rule="evenodd" d="M70.4792 63.2102C60.8077 71.1378 46.5488 69.7219 38.6212 60.0504C30.704 50.3898 32.1185 36.1291 41.7915 28.2033C51.4521 20.2861 65.7111 21.7004 73.6283 31.361C81.5543 41.0324 80.1398 55.293 70.4792 63.2102ZM78.6021 27.2891C68.4283 14.875 50.1269 13.0598 37.7128 23.2335C25.3006 33.4058 23.4744 51.7177 33.6465 64.1317C42.9061 75.4267 58.9249 77.9513 71.0933 70.6384C72.2819 69.9229 73.4395 69.1036 74.557 68.1893C75.6729 67.2733 76.7037 66.2992 77.637 65.2741C87.198 54.7777 87.8599 38.5856 78.6021 27.2891Z" fill="#536C43"/>
<path fill-rule="evenodd" clip-rule="evenodd" d="M114.77 115.169L114.248 115.596C110.8 118.424 105.664 117.914 102.836 114.464L76.7451 82.6277L89.8103 71.9204L115.901 103.757C118.729 107.207 118.219 112.342 114.77 115.169Z" fill="url(#paint0_linear_420_5263)"/>
<path fill-rule="evenodd" clip-rule="evenodd" d="M78.3493 64.4504L86.0594 73.8583L79.3805 79.3303L71.6721 69.9225C72.8851 69.1925 74.0646 68.3563 75.2065 67.4235C76.3451 66.4904 77.3969 65.4965 78.3493 64.4504Z" fill="#375B1F"/>
<path fill-rule="evenodd" clip-rule="evenodd" d="M115.503 103.358L102.522 113.995L100.606 111.657L113.587 101.019L115.503 103.358Z" fill="#0E8B49"/>
<path fill-rule="evenodd" clip-rule="evenodd" d="M90.4267 72.3944L77.0892 83.3251L75.4652 81.3437L88.8027 70.413L90.4267 72.3944Z" fill="#0E8B49"/>
<defs>
<linearGradient id="paint0_linear_420_5263" x1="101.669" y1="51.282" x2="54.1795" y2="90.2009" gradientUnits="userSpaceOnUse">
<stop stop-color="#14C76A"/>
<stop offset="1" stop-color="#1D9856"/>
</linearGradient>
</defs>
</svg>
